<svg width="102" height="1231" viewBox="0 0 102 1231" fill="none" xmlns="http://www.w3.org/2000/svg">
<g opacity="0.6">
<path d="M1.54688 1059.68C1.54688 1032.36 23.7798 1010.12 51.1024 1010.12C78.4251 1010.12 100.658 1032.36 100.658 1059.68C100.658 1087 78.4251 1109.24 51.1024 1109.24C23.7798 1109.24 1.54688 1087 1.54688 1059.68ZM97.0878 1059.68C97.0878 1034.33 76.4579 1013.7 51.1024 1013.7C25.747 1013.7 5.11709 1034.33 5.11709 1059.68C5.11709 1085.04 25.747 1105.67 51.1024 1105.67C76.4579 1105.67 97.0878 1085.04 97.0878 1059.68Z" fill="#11F8A5"/>
<path d="M1.54421 1180.83C1.54421 1179.84 2.3457 1179.05 3.32411 1179.05C4.30252 1179.05 5.10401 1179.85 5.10401 1180.83C5.10401 1206.18 25.7339 1226.81 51.0894 1226.81C76.4448 1226.81 97.0747 1206.18 97.0747 1180.83C97.0747 1179.84 97.8762 1179.05 98.8546 1179.05C99.833 1179.05 100.634 1179.85 100.634 1180.83C100.634 1208.15 78.4016 1230.38 51.0789 1230.38C23.7563 1230.38 1.52344 1208.15 1.52344 1180.83H1.54421Z" fill="#11F8A5"/>
<path d="M99.1434 1058.48H77.4414V1062.76H99.1434V1058.48Z" fill="#11F8A5"/>
<path d="M24.4208 1058.48H2.71875V1062.76H24.4208V1058.48Z" fill="#11F8A5"/>
<path d="M53.4107 1087.46H49.1328V1109.16H53.4107V1087.46Z" fill="#11F8A5"/>
<path d="M53.4107 1012.08H49.1328V1033.78H53.4107V1012.08Z" fill="#11F8A5"/>
<path d="M76.7859 1033.47C61.9432 1018.63 37.868 1018.63 23.0148 1033.47C8.17213 1048.31 8.17213 1072.39 23.0148 1087.24C37.8576 1102.09 61.9328 1102.09 76.7859 1087.24C91.6286 1072.4 91.6286 1048.32 76.7859 1033.47ZM57.2489 1036.69C61.5789 1038.03 65.4613 1040.54 68.4798 1043.95L69.0626 1044.61L68.2092 1044.81C65.9505 1045.34 63.5357 1045.77 61.0376 1046.1L60.5901 1046.16L60.4652 1045.72C60.0488 1044.3 59.5596 1042.92 58.9975 1041.65C58.3001 1040.06 57.5195 1038.67 56.666 1037.49L55.7292 1036.21L57.2489 1036.68V1036.69ZM39.8768 1059.17L39.8977 1058.63C40.0018 1055.34 40.3661 1052.2 40.9906 1049.3L41.0843 1048.85L41.5526 1048.89C47.0276 1049.37 52.8773 1049.34 58.321 1048.83L58.7893 1048.79L58.8934 1049.25C59.5284 1052.18 59.8927 1055.33 59.9863 1058.63V1059.17H39.8873H39.8768ZM59.9863 1061.59V1062.13C59.8718 1065.43 59.5075 1068.58 58.8726 1071.5L58.7685 1071.96L58.3001 1071.92C52.8564 1071.41 47.0068 1071.4 41.5319 1071.87L41.0634 1071.91L40.9697 1071.45C40.3452 1068.56 39.9809 1065.43 39.8768 1062.13L39.856 1061.59H59.9655H59.9863ZM49.9316 1035.78C52.9605 1035.78 56.0415 1039.62 57.9671 1045.82L58.1648 1046.44L57.5091 1046.49C54.9486 1046.71 52.3048 1046.83 49.6506 1046.83C47.1837 1046.83 44.7273 1046.73 42.3333 1046.53L41.6775 1046.48L41.8753 1045.85C43.8009 1039.63 46.8923 1035.77 49.9316 1035.77V1035.78ZM31.2793 1044.07C34.3186 1040.6 38.2323 1038.05 42.6143 1036.7L44.1444 1036.23L43.1972 1037.52C42.3437 1038.69 41.5527 1040.09 40.8657 1041.67C40.314 1042.92 39.8144 1044.32 39.3773 1045.82L39.2524 1046.24L38.8048 1046.19C36.2859 1045.88 33.8503 1045.46 31.5604 1044.93L30.6964 1044.73L31.2793 1044.07ZM25.2007 1058.61C25.4921 1054.55 26.7932 1050.59 28.9686 1047.15L29.1768 1046.83L29.5515 1046.92C32.2161 1047.6 35.0889 1048.14 38.1074 1048.52L38.6695 1048.6L38.5549 1049.16C37.9304 1052.18 37.5766 1055.37 37.4829 1058.66V1059.17H25.1694L25.2111 1058.61H25.2007ZM29.1768 1073.93L28.9686 1073.61C26.7932 1070.17 25.4921 1066.21 25.2007 1062.15L25.159 1061.59H37.462V1062.1C37.5661 1065.38 37.9305 1068.59 38.5446 1071.6L38.6591 1072.16L38.0969 1072.23C35.0889 1072.62 32.2057 1073.16 29.5411 1073.84L29.1664 1073.93H29.1768ZM42.6143 1084.07C38.2323 1082.71 34.3186 1080.16 31.2793 1076.7L30.6964 1076.03L31.5604 1075.83C33.8503 1075.31 36.2859 1074.89 38.8048 1074.58L39.2524 1074.52L39.3773 1074.95C39.8144 1076.45 40.314 1077.84 40.8657 1079.09C41.5631 1080.69 42.3437 1082.08 43.1972 1083.26L44.1444 1084.55L42.6143 1084.08V1084.07ZM49.9316 1084.97C46.8923 1084.97 43.8009 1081.11 41.8753 1074.9L41.6775 1074.26L42.3333 1074.21C47.2982 1073.82 52.5858 1073.83 57.5091 1074.25L58.1648 1074.3L57.9671 1074.93C56.0311 1081.11 52.9501 1084.96 49.9316 1084.96V1084.97ZM68.4798 1076.8C65.4613 1080.22 61.5684 1082.73 57.2489 1084.07L55.7292 1084.54L56.666 1083.26C57.5195 1082.09 58.3001 1080.69 58.9975 1079.09C59.5492 1077.81 60.0488 1076.45 60.4652 1075.02L60.5901 1074.59L61.0376 1074.65C63.5357 1074.97 65.9505 1075.41 68.2092 1075.94L69.0626 1076.15L68.4798 1076.8ZM74.6521 1062.15C74.3607 1066.25 73.0388 1070.26 70.8113 1073.73L70.6032 1074.05L70.2285 1073.96C67.5951 1073.26 64.7327 1072.71 61.735 1072.31L61.1729 1072.23L61.2874 1071.68C61.9119 1068.66 62.2762 1065.45 62.3699 1062.11V1061.6H74.6833L74.6417 1062.16L74.6521 1062.15ZM62.3907 1059.17V1058.66C62.2866 1055.32 61.9224 1052.09 61.2978 1049.08L61.1834 1048.53L61.7454 1048.46C64.7431 1048.05 67.595 1047.5 70.2388 1046.81L70.6136 1046.71L70.8217 1047.03C73.0491 1050.51 74.3815 1054.51 74.6625 1058.62L74.7042 1059.18H62.4012L62.3907 1059.17Z" fill="#11F8A5"/>
<path d="M1.4845 1181.58V1061.98C1.4845 1060.99 2.28598 1060.2 3.2644 1060.2C4.24281 1060.2 5.0443 1061 5.0443 1061.98V1181.58C5.0443 1182.56 4.24281 1183.36 3.2644 1183.36C2.28598 1183.36 1.4845 1182.55 1.4845 1181.58Z" fill="#11F8A5"/>
<path d="M97.0352 1181.85V1062.25C97.0352 1061.26 97.8366 1060.47 98.815 1060.47C99.7934 1060.47 100.595 1061.27 100.595 1062.25V1181.85C100.595 1182.84 99.7934 1183.63 98.815 1183.63C97.8366 1183.63 97.0352 1182.83 97.0352 1181.85Z" fill="#11F8A5"/>
<path d="M16.6173 972.671C-2.87243 953.181 -2.87243 921.473 16.6173 901.983C36.107 882.493 67.8157 882.493 87.3054 901.983C106.795 921.473 106.795 953.181 87.3054 972.671C67.8157 992.161 36.107 992.161 16.6173 972.671ZM84.9498 904.339C66.7588 886.148 37.164 886.148 18.9777 904.339C0.786622 922.53 0.786622 952.125 18.9777 970.311C37.1687 988.502 66.7635 988.502 84.9498 970.311C103.141 952.12 103.141 922.525 84.9498 904.339Z" fill="white"/>
<path d="M85.4893 926.724C85.3139 926.549 85.1717 926.326 85.0912 926.08C83.3612 920.961 80.5363 916.425 76.6971 912.586C72.8626 908.751 68.322 905.927 63.2031 904.192C62.5253 903.96 62.0703 903.329 62.0703 902.614V890.466C62.0703 889.954 62.3073 889.47 62.7102 889.153C63.1178 888.835 63.6439 888.726 64.1368 888.849C72.8863 891.039 80.8965 895.58 87.2951 901.983C93.6937 908.386 98.2344 916.392 100.424 925.141C100.547 925.639 100.434 926.165 100.121 926.573C99.8032 926.98 99.3198 927.213 98.8079 927.213H86.66C86.205 927.213 85.7879 927.028 85.4798 926.72L85.4893 926.724ZM79.0527 910.23C82.9677 914.145 85.9206 918.733 87.8449 923.881H96.6324C94.4237 916.525 90.4091 909.804 84.9442 904.339C79.4793 898.874 72.7584 894.859 65.4071 892.655V901.443C70.5544 903.362 75.1424 906.315 79.0574 910.235L79.0527 910.23Z" fill="white"/>
<path d="M16.6161 972.671C10.2175 966.273 5.67209 958.262 3.48234 949.513C3.35911 949.015 3.47287 948.489 3.78569 948.086C4.10325 947.679 4.58668 947.446 5.09857 947.446H17.2465C17.9622 947.446 18.5973 947.901 18.8248 948.579C20.5548 953.698 23.3797 958.234 27.2188 962.073C31.0533 965.908 35.594 968.732 40.7129 970.467C41.3906 970.695 41.8456 971.33 41.8456 972.046V984.193C41.8456 984.705 41.6086 985.189 41.2058 985.506C40.7981 985.824 40.272 985.933 39.7743 985.81C31.0248 983.62 23.0195 979.079 16.6161 972.681V972.671ZM7.28361 950.774C9.49231 958.13 13.5068 964.851 18.9717 970.315C24.4366 975.78 31.1576 979.795 38.5136 982.004V973.216C33.3663 971.297 28.7782 968.344 24.8632 964.429C20.9482 960.514 17.9954 955.926 16.071 950.778H7.28361V950.774Z" fill="white"/>
<path d="M62.5663 985.364C62.2535 985.051 62.0781 984.63 62.0781 984.184V972.036C62.0781 971.32 62.5331 970.685 63.2109 970.458C68.3298 968.728 72.8657 965.903 76.7049 962.064C80.5441 958.225 83.3642 953.689 85.0989 948.57C85.3264 947.892 85.9616 947.437 86.6773 947.437H98.8252C99.3371 947.437 99.8205 947.674 100.138 948.077C100.456 948.48 100.565 949.011 100.441 949.504C98.2469 958.253 93.7063 966.258 87.3076 972.662C80.909 979.065 72.8989 983.606 64.1494 985.796C63.6517 985.919 63.1256 985.805 62.7227 985.492C62.6706 985.445 62.6185 985.402 62.5711 985.355L62.5663 985.364ZM65.4102 973.212V981.999C72.7662 979.79 79.4871 975.776 84.952 970.311C90.4169 964.846 94.4267 958.125 96.6402 950.769H87.8527C85.9331 955.916 82.9803 960.5 79.0605 964.419C75.1455 968.334 70.5575 971.292 65.4102 973.212Z" fill="white"/>
<path d="M3.91913 926.725C3.87173 926.677 3.82435 926.625 3.78643 926.573C3.46887 926.17 3.35985 925.639 3.48309 925.141C5.67284 916.392 10.2135 908.382 16.6169 901.983C23.0202 895.585 31.0256 891.039 39.7751 888.849C40.2728 888.726 40.7989 888.84 41.2017 889.153C41.6046 889.47 41.8417 889.954 41.8417 890.466V902.614C41.8417 903.329 41.3866 903.964 40.7089 904.192C35.59 905.922 31.054 908.747 27.2148 912.586C23.3804 916.42 20.5555 920.961 18.8208 926.08C18.5933 926.758 17.9582 927.213 17.2425 927.213H5.0946C4.64907 927.213 4.22247 927.037 3.91439 926.729L3.91913 926.725ZM38.5096 892.655C31.1536 894.864 24.4326 898.879 18.9677 904.344C13.5028 909.808 9.49305 916.529 7.27961 923.885H16.067C17.9866 918.738 20.9395 914.155 24.8592 910.235C28.7742 906.32 33.3623 903.367 38.5096 901.443V892.655Z" fill="white"/>
<path d="M79.0566 910.23C64.1171 895.29 39.8023 895.286 24.8627 910.23C9.91839 925.174 9.92313 949.484 24.8627 964.424C39.8023 979.364 64.1123 979.368 79.0566 964.424C94.001 949.48 93.9962 925.17 79.0566 910.23Z" fill="white"/>
<path d="M65.7835 951.005L38.2558 951.187C37.0962 951.195 36.1624 952.141 36.1701 953.301L36.1766 954.282C36.1843 955.442 37.1306 956.375 38.2902 956.368L65.8178 956.185C66.9774 956.177 67.9113 955.231 67.9036 954.071L67.8971 953.09C67.8894 951.931 66.9431 950.997 65.7835 951.005Z" fill="#191D0A"/>
<path d="M42.0062 934.388C41.7076 934.388 41.4043 934.322 41.1294 934.189L38.9823 933.151C38.0486 932.696 37.622 931.592 38.0106 930.63L38.9965 928.175C39.2999 927.426 40.0156 926.938 40.8213 926.933C41.1673 926.933 41.5086 927.018 41.8119 927.194L44.3714 928.653C44.8501 928.924 45.1961 929.393 45.3193 929.933C45.4425 930.473 45.3335 931.042 45.0207 931.497L43.6178 933.531C43.2528 934.061 42.6461 934.384 42.0015 934.384L42.0062 934.388Z" fill="#191D0A"/>
<path d="M61.8211 934.256C61.1765 934.256 60.5651 933.948 60.1954 933.422L58.8066 931.464C58.4843 931.014 58.3706 930.445 58.4844 929.905C58.5981 929.364 58.9394 928.89 59.4181 928.611L62.0581 927.061C62.3567 926.886 62.698 926.791 63.044 926.786C63.8497 926.781 64.5749 927.26 64.8877 928.004L65.8831 930.388C66.2812 931.346 65.8689 932.459 64.9446 932.924L62.698 934.047C62.4278 934.18 62.1244 934.256 61.8258 934.256H61.8211Z" fill="#191D0A"/>
<path d="M39.8437 949.347C38.635 949.356 37.5497 948.598 37.1373 947.461L32.5445 934.82C32.2507 934.962 31.9378 935.071 31.6203 935.152C31.2458 935.246 30.8666 935.294 30.4827 935.294C30.26 935.294 30.0419 935.284 29.8286 935.256C27.4351 934.952 25.6198 932.9 25.6056 930.483C25.5866 927.81 27.7479 925.62 30.4211 925.601C33.0943 925.582 35.2841 927.743 35.2983 930.417C35.2983 931.033 35.194 931.625 34.976 932.18C34.8575 932.483 34.7106 932.772 34.54 933.047L43.2752 937.275L49.9583 927.592C49.6786 927.473 49.4084 927.326 49.1525 927.151C48.669 926.824 48.2472 926.416 47.9059 925.938C47.3277 925.122 47.0149 924.16 47.0101 923.165C46.9912 920.492 49.1525 918.302 51.8257 918.283C51.9442 918.283 52.0674 918.283 52.1859 918.292C54.5795 918.454 56.5133 920.373 56.6886 922.767C56.7692 923.899 56.4706 924.985 55.826 925.909C55.4848 926.393 55.0676 926.805 54.5889 927.132C54.3377 927.307 54.0676 927.454 53.7879 927.573L60.5894 937.156L69.1825 932.858C69.0214 932.549 68.8934 932.227 68.7987 931.891C68.6849 931.483 68.6233 931.056 68.6233 930.625C68.6233 930.431 68.6327 930.236 68.6517 930.047C68.9266 927.611 70.9836 925.762 73.4341 925.748C76.1073 925.729 78.297 927.89 78.3112 930.564C78.3302 933.113 76.349 935.256 73.8038 935.431L73.5004 935.441C73.0075 935.441 72.5241 935.374 72.0548 935.232C71.7515 935.137 71.4576 935.019 71.1827 934.867L66.8696 947.262C66.4762 948.404 65.3955 949.172 64.1869 949.181L39.8437 949.342V949.347Z" fill="#191D0A"/>
<path d="M51.5529 859.627C38.8544 859.627 26.1663 854.797 16.4966 845.127C-2.83221 825.798 -2.83221 794.354 16.4966 775.025C25.8644 765.657 38.3131 760.505 51.5529 760.505C64.7927 760.505 77.2414 765.657 86.6092 775.025C105.938 794.354 105.938 825.798 86.6092 845.127C76.95 854.787 64.2514 859.627 51.5529 859.627ZM19.0988 842.525C36.9912 860.418 66.1042 860.418 83.9966 842.525C101.889 824.633 101.889 795.52 83.9966 777.627C75.3262 768.957 63.8039 764.19 51.5425 764.19C39.2811 764.19 27.7588 768.967 19.0884 777.627C1.19592 795.52 1.19592 824.633 19.0884 842.525H19.0988Z" fill="#DA7DB5"/>
<path d="M53.3875 799.642L44.207 812.507H49.7132V821.687L58.8936 808.832H53.3875V799.642Z" fill="#DA7DB5"/>
<path d="M51.5432 792.491C41.4885 792.491 33.3281 800.651 33.3281 810.706C33.3281 820.761 41.4885 828.9 51.5432 828.9C61.598 828.9 69.7584 820.74 69.7584 810.706C69.7584 800.672 61.598 792.491 51.5432 792.491ZM51.5432 826.652C42.7167 826.652 35.5556 819.491 35.5556 810.664C35.5556 801.838 42.7167 794.677 51.5432 794.677C60.3698 794.677 67.531 801.838 67.531 810.664C67.531 819.491 60.3698 826.652 51.5432 826.652Z" fill="#DA7DB5"/>
<path d="M79.7002 781.926C72.1852 774.401 62.1824 770.268 51.5448 770.268C40.9072 770.268 30.9149 774.411 23.3895 781.926C7.87018 797.445 7.87018 822.707 23.3895 838.237C31.1543 846.002 41.3443 849.884 51.5448 849.884C61.7453 849.884 71.9354 846.002 79.7002 838.237C95.2195 822.718 95.2195 797.456 79.7002 781.926ZM51.5448 835.416C37.9303 835.416 26.8451 824.331 26.8451 810.716C26.8451 804.7 28.9997 799.184 32.5803 794.874L29.5618 791.856C28.6979 790.992 28.6979 789.587 29.5618 788.713C30.4257 787.838 31.8309 787.849 32.7052 788.713L35.7237 791.731C39.4708 788.598 44.1859 786.537 49.3278 786.1V784.06H47.2877C45.487 784.06 43.9985 782.571 43.9985 780.771V779.053C43.9985 777.232 45.487 775.764 47.2877 775.764H55.8228C57.6235 775.764 59.1119 777.232 59.1119 779.053V780.771C59.1119 782.571 57.6235 784.06 55.8228 784.06H53.7827V786.1C58.935 786.548 63.6397 788.608 67.3868 791.731L70.4052 788.713C71.2692 787.849 72.6743 787.849 73.5487 788.713C74.4126 789.576 74.4126 790.982 73.5487 791.856L70.5301 794.874C74.1107 799.184 76.2653 804.69 76.2653 810.716C76.2653 824.331 65.1801 835.416 51.5656 835.416H51.5448Z" fill="#DA7DB5"/>
<path d="M50.5451 741.343C23.2225 741.343 1 719.11 1 691.798C1 664.486 23.2329 642.253 50.5451 642.253C77.8574 642.253 100.09 664.486 100.09 691.798C100.09 719.11 77.8574 741.343 50.5451 741.343ZM50.5451 645.552C25.044 645.552 4.29958 666.297 4.29958 691.798C4.29958 717.299 25.044 738.043 50.5451 738.043C76.0463 738.043 96.7907 717.299 96.7907 691.798C96.7907 666.297 76.0463 645.552 50.5451 645.552Z" fill="white"/>
<path d="M82.8733 656.444L67.535 671.782L70.5526 674.799L85.8909 659.461L82.8733 656.444Z" fill="white"/>
<path d="M30.0764 709.242L14.7382 724.581L17.7557 727.598L33.094 712.26L30.0764 709.242Z" fill="white"/>
<path d="M71.0175 709.24L67.9999 712.257L83.3381 727.595L86.3557 724.578L71.0175 709.24Z" fill="white"/>
<path d="M17.7675 655.979L14.7499 658.996L30.0808 674.327L33.0984 671.31L17.7675 655.979Z" fill="white"/>
<path d="M62.641 693.13C63.6402 692.131 63.6402 690.518 62.641 689.529L60.5176 687.416C59.5183 686.417 57.905 686.417 56.9162 687.416L55.7712 688.561L54.4494 687.239C53.4501 686.24 51.8368 686.24 50.848 687.239L49.703 688.394L48.3811 687.062C47.3819 686.063 45.7685 686.063 44.7797 687.062L37.7539 694.088C37.7018 694.14 37.7018 694.223 37.7539 694.286C38.6907 695.222 40.2208 695.222 41.1679 694.286L45.6957 689.758C46.1849 689.269 46.9759 689.269 47.4652 689.758L47.7982 690.091C47.8607 690.153 47.8607 690.247 47.7982 690.309L44.0199 694.088C43.9679 694.14 43.9679 694.223 44.0199 694.286C44.9567 695.222 46.4867 695.222 47.4339 694.286L51.7743 689.945C52.2635 689.456 53.0546 689.456 53.5438 689.945L53.8768 690.278C53.9289 690.33 53.9289 690.414 53.8768 690.476L50.2338 694.119C50.1818 694.171 50.1818 694.254 50.2338 694.317C51.1706 695.254 52.7007 695.254 53.6479 694.317L57.8425 690.122C58.3317 689.633 59.1228 689.633 59.612 690.122L60.3302 690.84C60.6112 691.121 60.6112 691.59 60.3302 691.871L60.2157 691.985C59.9347 692.266 59.4663 692.266 59.1853 691.985L58.2589 691.059C58.2069 691.007 58.1236 691.007 58.0611 691.059L56.4582 692.662C56.4062 692.714 56.4062 692.797 56.4582 692.86L57.905 694.306C58.9043 695.306 60.5176 695.306 61.5064 694.306L62.6514 693.161L62.641 693.13Z" fill="white"/>
<path d="M50.5462 653.796C29.5624 653.796 12.5547 670.804 12.5547 691.787C12.5547 712.771 29.5624 729.779 50.5462 729.779C71.53 729.779 88.5377 712.771 88.5377 691.787C88.5377 670.804 71.53 653.796 50.5462 653.796ZM52.0971 665.526C58.1965 665.88 63.7339 668.316 68.0223 672.125L62.5369 677.611C59.6745 675.186 56.0628 673.614 52.0971 673.281V665.526ZM49.0057 665.526V673.281C45.04 673.604 41.4282 675.186 38.5659 677.611L33.0805 672.125C37.3688 668.316 42.9062 665.88 49.0057 665.526ZM30.8947 674.311L36.38 679.797C33.9548 682.659 32.3831 686.271 32.05 690.237H24.2956C24.6495 684.137 27.0851 678.6 30.8947 674.311ZM24.2956 693.328H32.05C32.3727 697.294 33.9548 700.905 36.38 703.768L30.8947 709.253C27.0851 704.965 24.6495 699.427 24.2956 693.328ZM49.0057 718.038C42.9062 717.684 37.3688 715.248 33.0805 711.439L38.5659 705.954C41.4282 708.379 45.04 709.95 49.0057 710.284V718.038ZM34.5793 691.777C34.5793 682.961 41.7301 675.81 50.5462 675.81C59.3623 675.81 66.513 682.961 66.513 691.777C66.513 700.593 59.3623 707.744 50.5462 707.744C41.7301 707.744 34.5793 700.593 34.5793 691.777ZM52.0971 718.038V710.284C56.0628 709.961 59.6745 708.379 62.5369 705.954L68.0223 711.439C63.7339 715.248 58.1965 717.684 52.0971 718.038ZM70.2081 709.253L64.7228 703.768C67.148 700.905 68.7196 697.294 69.0527 693.328H76.8072C76.4533 699.427 74.0176 704.965 70.2081 709.253ZM69.0527 690.237C68.7301 686.271 67.148 682.659 64.7228 679.797L70.2081 674.311C74.0176 678.6 76.4533 684.137 76.8072 690.237H69.0527Z" fill="white"/>
<path d="M1.54688 436.461C1.54688 409.138 23.7798 386.905 51.1024 386.905C78.4251 386.905 100.658 409.138 100.658 436.461C100.658 463.783 78.4251 486.016 51.1024 486.016C23.7798 486.016 1.54688 463.783 1.54688 436.461ZM97.0878 436.461C97.0878 411.105 76.4579 390.475 51.1024 390.475C25.747 390.475 5.11709 411.105 5.11709 436.461C5.11709 461.816 25.747 482.446 51.1024 482.446C76.4579 482.446 97.0878 461.816 97.0878 436.461Z" fill="#11F8A5"/>
<path d="M1.54421 557.607C1.54421 556.618 2.3457 555.827 3.32411 555.827C4.30252 555.827 5.10401 556.628 5.10401 557.607C5.10401 582.962 25.7339 603.592 51.0894 603.592C76.4448 603.592 97.0747 582.962 97.0747 557.607C97.0747 556.618 97.8762 555.827 98.8546 555.827C99.833 555.827 100.634 556.628 100.634 557.607C100.634 584.929 78.4016 607.162 51.0789 607.162C23.7563 607.162 1.52344 584.929 1.52344 557.607H1.54421Z" fill="#11F8A5"/>
<path d="M99.1434 435.264H77.4414V439.541H99.1434V435.264Z" fill="#11F8A5"/>
<path d="M24.4208 435.264H2.71875V439.541H24.4208V435.264Z" fill="#11F8A5"/>
<path d="M53.4107 464.241H49.1328V485.943H53.4107V464.241Z" fill="#11F8A5"/>
<path d="M53.4107 388.862H49.1328V410.564H53.4107V388.862Z" fill="#11F8A5"/>
<path d="M76.7859 410.252C61.9432 395.409 37.868 395.409 23.0148 410.252C8.17213 425.094 8.17213 449.169 23.0148 464.023C37.8576 478.865 61.9328 478.865 76.7859 464.023C91.6286 449.18 91.6286 425.105 76.7859 410.252ZM57.2489 413.468C61.5789 414.811 65.4613 417.319 68.4798 420.733L69.0626 421.389L68.2092 421.587C65.9505 422.117 63.5357 422.555 61.0376 422.877L60.5901 422.94L60.4652 422.503C60.0488 421.077 59.5596 419.703 58.9975 418.433C58.3001 416.84 57.5195 415.445 56.666 414.269L55.7292 412.989L57.2489 413.457V413.468ZM39.8768 435.95L39.8977 435.409C40.0018 432.12 40.3661 428.977 40.9906 426.083L41.0843 425.625L41.5526 425.667C47.0276 426.146 52.8773 426.125 58.321 425.615L58.7893 425.573L58.8934 426.031C59.5284 428.956 59.8927 432.11 59.9863 435.409V435.95H39.8873H39.8768ZM59.9863 438.365V438.907C59.8718 442.206 59.5075 445.36 58.8726 448.285L58.7685 448.743L58.3001 448.701C52.8564 448.191 47.0068 448.181 41.5319 448.649L41.0634 448.691L40.9697 448.233C40.3452 445.339 39.9809 442.206 39.8768 438.907L39.856 438.365H59.9655H59.9863ZM49.9316 412.562C52.9605 412.562 56.0415 416.403 57.9671 422.596L58.1648 423.221L57.5091 423.273C54.9486 423.491 52.3048 423.606 49.6506 423.606C47.1837 423.606 44.7273 423.512 42.3333 423.314L41.6775 423.262L41.8753 422.627C43.8009 416.413 46.8923 412.552 49.9316 412.552V412.562ZM31.2793 420.848C34.3186 417.381 38.2323 414.831 42.6143 413.478L44.1444 413.01L43.1972 414.301C42.3437 415.466 41.5527 416.871 40.8657 418.454C40.314 419.703 39.8144 421.097 39.3773 422.596L39.2524 423.023L38.8048 422.971C36.2859 422.659 33.8503 422.242 31.5604 421.711L30.6964 421.514L31.2793 420.848ZM25.2007 435.388C25.4921 431.329 26.7932 427.374 28.9686 423.929L29.1768 423.606L29.5515 423.699C32.2161 424.376 35.0889 424.917 38.1074 425.302L38.6695 425.375L38.5549 425.937C37.9304 428.956 37.5766 432.151 37.4829 435.44V435.95H25.1694L25.2111 435.388H25.2007ZM29.1768 450.71L28.9686 450.387C26.7932 446.952 25.4921 442.987 25.2007 438.927L25.159 438.365H37.462V438.875C37.5661 442.164 37.9305 445.37 38.5446 448.378L38.6591 448.94L38.0969 449.013C35.0889 449.398 32.2057 449.94 29.5411 450.616L29.1664 450.71H29.1768ZM42.6143 460.848C38.2323 459.495 34.3186 456.945 31.2793 453.479L30.6964 452.812L31.5604 452.615C33.8503 452.094 36.2859 451.667 38.8048 451.355L39.2524 451.303L39.3773 451.73C39.8144 453.229 40.314 454.624 40.8657 455.873C41.5631 457.465 42.3437 458.86 43.1972 460.036L44.1444 461.327L42.6143 460.858V460.848ZM49.9316 461.753C46.8923 461.753 43.8009 457.892 41.8753 451.678L41.6775 451.043L42.3333 450.991C47.2982 450.595 52.5858 450.606 57.5091 451.033L58.1648 451.085L57.9671 451.709C56.0311 457.892 52.9501 461.743 49.9316 461.743V461.753ZM68.4798 453.583C65.4613 456.997 61.5684 459.505 57.2489 460.848L55.7292 461.316L56.666 460.036C57.5195 458.87 58.3001 457.465 58.9975 455.873C59.5492 454.592 60.0488 453.229 60.4652 451.803L60.5901 451.366L61.0376 451.428C63.5357 451.751 65.9505 452.188 68.2092 452.719L69.0626 452.927L68.4798 453.583ZM74.6521 438.927C74.3607 443.028 73.0388 447.036 70.8113 450.512L70.6032 450.835L70.2285 450.741C67.5951 450.044 64.7327 449.492 61.735 449.086L61.1729 449.013L61.2874 448.462C61.9119 445.443 62.2762 442.227 62.3699 438.886V438.376H74.6833L74.6417 438.938L74.6521 438.927ZM62.3907 435.95V435.44C62.2866 432.099 61.9224 428.873 61.2978 425.864L61.1834 425.313L61.7454 425.24C64.7431 424.834 67.595 424.282 70.2388 423.585L70.6136 423.491L70.8217 423.814C73.0491 427.291 74.3815 431.287 74.6625 435.399L74.7042 435.961H62.4012L62.3907 435.95Z" fill="#11F8A5"/>
<path d="M1.4845 558.356V438.761C1.4845 437.772 2.28598 436.981 3.2644 436.981C4.24281 436.981 5.0443 437.782 5.0443 438.761V558.356C5.0443 559.345 4.24281 560.136 3.2644 560.136C2.28598 560.136 1.4845 559.334 1.4845 558.356Z" fill="#11F8A5"/>
<path d="M97.0352 558.627V439.031C97.0352 438.043 97.8366 437.252 98.815 437.252C99.7934 437.252 100.595 438.053 100.595 439.031V558.627C100.595 559.615 99.7934 560.407 98.815 560.407C97.8366 560.407 97.0352 559.605 97.0352 558.627Z" fill="#11F8A5"/>
<path d="M14.8282 349.451C-4.66149 329.961 -4.66149 298.253 14.8282 278.763C34.318 259.273 66.0266 259.273 85.5164 278.763C105.006 298.253 105.006 329.961 85.5164 349.451C66.0266 368.941 34.318 368.941 14.8282 349.451ZM83.1607 281.118C64.9697 262.927 35.3749 262.927 17.1886 281.118C-1.00244 299.309 -1.00244 328.904 17.1886 347.091C35.3796 365.282 64.9744 365.282 83.1607 347.091C101.352 328.9 101.352 299.305 83.1607 281.118Z" fill="white"/>
<path d="M83.7002 303.504C83.5248 303.329 83.3827 303.106 83.3021 302.86C81.5721 297.741 78.7472 293.205 74.908 289.366C71.0736 285.531 66.5329 282.706 61.414 280.972C60.7363 280.739 60.2812 280.109 60.2812 279.393V267.245C60.2812 266.733 60.5182 266.25 60.9211 265.932C61.3287 265.615 61.8548 265.506 62.3478 265.629C71.0973 267.819 79.1074 272.359 85.506 278.763C91.9046 285.166 96.4453 293.172 98.6351 301.921C98.7583 302.419 98.6445 302.945 98.3317 303.353C98.0142 303.76 97.5307 303.992 97.0188 303.992H84.8709C84.4159 303.992 83.9988 303.808 83.6907 303.499L83.7002 303.504ZM77.2636 287.01C81.1787 290.925 84.1315 295.513 86.0558 300.66H94.8433C92.6346 293.304 88.62 286.583 83.1551 281.118C77.6902 275.654 70.9693 271.639 63.618 269.435V278.223C68.7654 280.142 73.3534 283.095 77.2684 287.015L77.2636 287.01Z" fill="white"/>
<path d="M14.8271 349.451C8.42843 343.052 3.88303 335.042 1.69328 326.293C1.57005 325.795 1.68381 325.269 1.99663 324.866C2.31419 324.458 2.79762 324.226 3.30951 324.226H15.4574C16.1731 324.226 16.8082 324.681 17.0357 325.359C18.7657 330.478 21.5906 335.014 25.4298 338.853C29.2642 342.687 33.8049 345.512 38.9238 347.247C39.6016 347.474 40.0565 348.11 40.0565 348.825V360.973C40.0565 361.485 39.8196 361.968 39.4167 362.286C39.0091 362.604 38.483 362.713 37.9853 362.589C29.2358 360.4 21.2304 355.859 14.8271 349.46V349.451ZM5.49454 327.553C7.70325 334.909 11.7178 341.63 17.1827 347.095C22.6476 352.56 29.3685 356.575 36.7246 358.783V349.996C31.5772 348.076 26.9892 345.124 23.0741 341.208C19.1591 337.293 16.2063 332.705 14.282 327.558H5.49454V327.553Z" fill="white"/>
<path d="M60.7773 362.144C60.4644 361.831 60.2891 361.409 60.2891 360.964V348.816C60.2891 348.1 60.7441 347.465 61.4219 347.238C66.5408 345.508 71.0767 342.683 74.9158 338.844C78.755 335.004 81.5751 330.468 83.3098 325.35C83.5374 324.672 84.1725 324.217 84.8882 324.217H97.0361C97.548 324.217 98.0315 324.454 98.349 324.857C98.6666 325.26 98.7756 325.79 98.6524 326.283C96.4579 335.033 91.9172 343.038 85.5186 349.442C79.12 355.845 71.1098 360.386 62.3603 362.575C61.8626 362.699 61.3365 362.585 60.9337 362.272C60.8815 362.225 60.8294 362.182 60.782 362.135L60.7773 362.144ZM63.6211 349.991V358.779C70.9771 356.57 77.6981 352.556 83.1629 347.091C88.6278 341.626 92.6377 334.905 94.8511 327.549H86.0637C84.1441 332.696 81.1912 337.279 77.2715 341.199C73.3564 345.114 68.7684 348.072 63.6211 349.991Z" fill="white"/>
<path d="M2.13007 303.504C2.08267 303.457 2.03529 303.405 1.99737 303.353C1.67981 302.95 1.57079 302.419 1.69402 301.921C3.88377 293.172 8.42443 285.162 14.8278 278.763C21.2312 272.364 29.2365 267.819 37.986 265.629C38.4837 265.506 39.0098 265.62 39.4127 265.933C39.8156 266.25 40.0526 266.734 40.0526 267.245V279.393C40.0526 280.109 39.5976 280.744 38.9198 280.972C33.8009 282.702 29.2649 285.527 25.4258 289.366C21.5913 293.2 18.7665 297.741 17.0317 302.86C16.8042 303.537 16.1691 303.992 15.4534 303.992H3.30554C2.86001 303.992 2.43341 303.817 2.12533 303.509L2.13007 303.504ZM36.7206 269.435C29.3645 271.644 22.6436 275.658 17.1787 281.123C11.7138 286.588 7.70399 293.309 5.49054 300.665H14.278C16.1976 295.518 19.1504 290.935 23.0701 287.015C26.9852 283.1 31.5732 280.147 36.7206 278.223V269.435Z" fill="white"/>
<path d="M77.2676 287.01C62.328 272.07 38.0133 272.066 23.0737 287.01C8.12933 301.954 8.13407 326.264 23.0737 341.204C38.0133 356.143 62.3232 356.148 77.2676 341.204C92.2119 326.26 92.2072 301.95 77.2676 287.01Z" fill="white"/>
<path d="M63.9944 327.784L36.4667 327.967C35.3071 327.975 34.3733 328.921 34.381 330.081L34.3875 331.062C34.3952 332.221 35.3415 333.155 36.5011 333.147L64.0288 332.965C65.1884 332.957 66.1222 332.011 66.1145 330.851L66.108 329.87C66.1003 328.711 65.154 327.777 63.9944 327.784Z" fill="#191D0A"/>
<path d="M40.2172 311.168C39.9186 311.168 39.6152 311.102 39.3403 310.969L37.1932 309.931C36.2595 309.476 35.8329 308.372 36.2216 307.41L37.2075 304.954C37.5108 304.206 38.2265 303.717 39.0323 303.713C39.3783 303.713 39.7195 303.798 40.0228 303.973L42.5823 305.433C43.061 305.703 43.407 306.173 43.5302 306.713C43.6535 307.253 43.5445 307.822 43.2316 308.277L41.8287 310.31C41.4637 310.841 40.857 311.163 40.2124 311.163L40.2172 311.168Z" fill="#191D0A"/>
<path d="M60.032 311.035C59.3874 311.035 58.776 310.727 58.4063 310.201L57.0176 308.244C56.6953 307.794 56.5816 307.225 56.6953 306.684C56.8091 306.144 57.1503 305.67 57.629 305.39L60.269 303.841C60.5676 303.665 60.9089 303.57 61.2549 303.566C62.0607 303.561 62.7859 304.04 63.0987 304.784L64.094 307.168C64.4921 308.125 64.0798 309.239 63.1555 309.704L60.9089 310.827C60.6388 310.96 60.3354 311.035 60.0368 311.035H60.032Z" fill="#191D0A"/>
<path d="M38.0546 326.127C36.846 326.136 35.7606 325.378 35.3482 324.24L30.7555 311.599C30.4616 311.742 30.1488 311.851 29.8312 311.931C29.4568 312.026 29.0776 312.073 28.6937 312.073C28.4709 312.073 28.2529 312.064 28.0396 312.036C25.646 311.732 23.8307 309.68 23.8165 307.263C23.7976 304.589 25.9588 302.4 28.632 302.381C31.3052 302.362 33.495 304.523 33.5092 307.196C33.5092 307.812 33.4049 308.405 33.1869 308.959C33.0684 309.263 32.9215 309.552 32.7509 309.827L41.4862 314.055L48.1692 304.371C47.8896 304.253 47.6194 304.106 47.3634 303.931C46.88 303.604 46.4581 303.196 46.1169 302.717C45.5386 301.902 45.2258 300.94 45.2211 299.945C45.2021 297.271 47.3634 295.082 50.0366 295.063C50.1551 295.063 50.2784 295.063 50.3969 295.072C52.7904 295.233 54.7242 297.153 54.8996 299.546C54.9802 300.679 54.6816 301.765 54.037 302.689C53.6957 303.172 53.2786 303.585 52.7999 303.912C52.5487 304.087 52.2785 304.234 51.9989 304.352L58.8004 313.936L67.3935 309.637C67.2323 309.329 67.1044 309.007 67.0096 308.67C66.8958 308.263 66.8342 307.836 66.8342 307.405C66.8342 307.211 66.8437 307.016 66.8626 306.827C67.1375 304.39 69.1946 302.542 71.645 302.528C74.3182 302.509 76.508 304.67 76.5222 307.343C76.5411 309.893 74.5599 312.036 72.0147 312.211L71.7114 312.22C71.2184 312.22 70.735 312.154 70.2658 312.012C69.9624 311.917 69.6685 311.799 69.3936 311.647L65.0805 324.041C64.6871 325.184 63.6064 325.951 62.3978 325.961L38.0546 326.122V326.127Z" fill="#191D0A"/>
<path d="M50.6154 236.406C37.9169 236.406 25.2288 231.577 15.5591 221.907C-3.76971 202.578 -3.76971 171.134 15.5591 151.805C24.9269 142.437 37.3756 137.285 50.6154 137.285C63.8552 137.285 76.3039 142.437 85.6717 151.805C105.001 171.134 105.001 202.578 85.6717 221.907C76.0125 231.566 63.3139 236.406 50.6154 236.406ZM18.1613 219.305C36.0537 237.197 65.1667 237.197 83.0591 219.305C100.952 201.413 100.952 172.3 83.0591 154.407C74.3887 145.737 62.8664 140.97 50.605 140.97C38.3436 140.97 26.8213 145.747 18.1509 154.407C0.258422 172.3 0.258422 201.413 18.1509 219.305H18.1613Z" fill="#DA7DB5"/>
<path d="M52.45 176.421L43.2695 189.286H48.7757V198.467L57.9561 185.612H52.45V176.421Z" fill="#DA7DB5"/>
<path d="M50.6057 169.271C40.551 169.271 32.3906 177.431 32.3906 187.486C32.3906 197.54 40.551 205.68 50.6057 205.68C60.6605 205.68 68.8209 197.52 68.8209 187.486C68.8209 177.452 60.6605 169.271 50.6057 169.271ZM50.6057 203.432C41.7792 203.432 34.6181 196.271 34.6181 187.444C34.6181 178.618 41.7792 171.456 50.6057 171.456C59.4323 171.456 66.5935 178.618 66.5935 187.444C66.5935 196.271 59.4323 203.432 50.6057 203.432Z" fill="#DA7DB5"/>
<path d="M78.7627 158.706C71.2477 151.18 61.2449 147.048 50.6073 147.048C39.9697 147.048 29.9774 151.191 22.452 158.706C6.93268 174.225 6.93268 199.487 22.452 215.017C30.2168 222.781 40.4068 226.664 50.6073 226.664C60.8078 226.664 70.9979 222.781 78.7627 215.017C94.282 199.497 94.282 174.236 78.7627 158.706ZM50.6073 212.196C36.9928 212.196 25.9076 201.111 25.9076 187.496C25.9076 181.48 28.0622 175.963 31.6428 171.654L28.6243 168.636C27.7604 167.772 27.7604 166.367 28.6243 165.492C29.4882 164.618 30.8934 164.628 31.7677 165.492L34.7862 168.511C38.5333 165.378 43.2484 163.317 48.3903 162.88V160.84H46.3502C44.5495 160.84 43.061 159.351 43.061 157.551V155.833C43.061 154.012 44.5495 152.544 46.3502 152.544H54.8853C56.686 152.544 58.1744 154.012 58.1744 155.833V157.551C58.1744 159.351 56.686 160.84 54.8853 160.84H52.8452V162.88C57.9975 163.327 62.7022 165.388 66.4493 168.511L69.4677 165.492C70.3317 164.628 71.7368 164.628 72.6112 165.492C73.4751 166.356 73.4751 167.761 72.6112 168.636L69.5926 171.654C73.1732 175.963 75.3278 181.47 75.3278 187.496C75.3278 201.111 64.2426 212.196 50.6281 212.196H50.6073Z" fill="#DA7DB5"/>
<path d="M51.5451 118.123C24.2225 118.123 2 95.8898 2 68.5776C2 41.2653 24.2329 19.0325 51.5451 19.0325C78.8574 19.0325 101.09 41.2653 101.09 68.5776C101.09 95.8898 78.8574 118.123 51.5451 118.123ZM51.5451 22.332C26.044 22.332 5.29958 43.0764 5.29958 68.5776C5.29958 94.0787 26.044 114.823 51.5451 114.823C77.0463 114.823 97.7907 94.0787 97.7907 68.5776C97.7907 43.0764 77.0463 22.332 51.5451 22.332Z" fill="white"/>
<path d="M83.8733 33.2234L68.535 48.5616L71.5526 51.5793L86.8909 36.241L83.8733 33.2234Z" fill="white"/>
<path d="M31.0764 86.0222L15.7382 101.36L18.7557 104.378L34.094 89.0398L31.0764 86.0222Z" fill="white"/>
<path d="M72.0175 86.0194L68.9999 89.037L84.3381 104.375L87.3557 101.358L72.0175 86.0194Z" fill="white"/>
<path d="M18.7675 32.7584L15.7499 35.776L31.0808 51.1069L34.0984 48.0893L18.7675 32.7584Z" fill="white"/>
<path d="M63.641 69.91C64.6402 68.9107 64.6402 67.2974 63.641 66.3085L61.5176 64.1956C60.5183 63.1964 58.905 63.1964 57.9162 64.1956L56.7712 65.3406L55.4494 64.0187C54.4501 63.0194 52.8368 63.0194 51.848 64.0187L50.703 65.174L49.3811 63.8417C48.3819 62.8425 46.7685 62.8425 45.7797 63.8417L38.7539 70.8675C38.7018 70.9196 38.7018 71.0029 38.7539 71.0653C39.6907 72.0021 41.2208 72.0021 42.1679 71.0653L46.6957 66.5375C47.1849 66.0483 47.9759 66.0483 48.4652 66.5375L48.7982 66.8706C48.8607 66.9331 48.8607 67.0267 48.7982 67.0892L45.0199 70.8675C44.9679 70.9196 44.9679 71.0029 45.0199 71.0653C45.9567 72.0021 47.4867 72.0021 48.4339 71.0653L52.7743 66.7249C53.2635 66.2357 54.0546 66.2357 54.5438 66.7249L54.8768 67.058C54.9289 67.11 54.9289 67.1933 54.8768 67.2557L51.2338 70.8988C51.1818 70.9508 51.1818 71.0341 51.2338 71.0965C52.1706 72.0333 53.7007 72.0333 54.6479 71.0965L58.8425 66.9018C59.3317 66.4126 60.1228 66.4126 60.612 66.9018L61.3302 67.62C61.6112 67.9011 61.6112 68.3695 61.3302 68.6505L61.2157 68.765C60.9347 69.046 60.4663 69.046 60.1853 68.765L59.2589 67.8386C59.2069 67.7866 59.1236 67.7866 59.0611 67.8386L57.4582 69.4416C57.4062 69.4936 57.4062 69.5769 57.4582 69.6393L58.905 71.0861C59.9043 72.0853 61.5176 72.0853 62.5064 71.0861L63.6514 69.9412L63.641 69.91Z" fill="white"/>
<path d="M51.5462 30.5757C30.5624 30.5757 13.5547 47.5834 13.5547 68.5672C13.5547 89.551 30.5624 106.559 51.5462 106.559C72.53 106.559 89.5377 89.551 89.5377 68.5672C89.5377 47.5834 72.53 30.5757 51.5462 30.5757ZM53.0971 42.3062C59.1965 42.6601 64.7339 45.0957 69.0223 48.9053L63.5369 54.3906C60.6745 51.9654 57.0628 50.3937 53.0971 50.0606V42.3062ZM50.0057 42.3062V50.0606C46.04 50.3833 42.4282 51.9654 39.5659 54.3906L34.0805 48.9053C38.3688 45.0957 43.9062 42.6601 50.0057 42.3062ZM31.8947 51.0911L37.38 56.5765C34.9548 59.4388 33.3831 63.0506 33.05 67.0163H25.2956C25.6495 60.9169 28.0851 55.3795 31.8947 51.0911ZM25.2956 70.1077H33.05C33.3727 74.0734 34.9548 77.6852 37.38 80.5476L31.8947 86.0329C28.0851 81.7445 25.6495 76.2072 25.2956 70.1077ZM50.0057 94.8178C43.9062 94.4639 38.3688 92.0282 34.0805 88.2187L39.5659 82.7333C42.4282 85.1586 46.04 86.7303 50.0057 87.0633V94.8178ZM35.5793 68.5568C35.5793 59.7407 42.7301 52.5899 51.5462 52.5899C60.3623 52.5899 67.513 59.7407 67.513 68.5568C67.513 77.3729 60.3623 84.5236 51.5462 84.5236C42.7301 84.5236 35.5793 77.3729 35.5793 68.5568ZM53.0971 94.8178V87.0633C57.0628 86.7407 60.6745 85.1586 63.5369 82.7333L69.0223 88.2187C64.7339 92.0282 59.1965 94.4639 53.0971 94.8178ZM71.2081 86.0329L65.7228 80.5476C68.148 77.6852 69.7196 74.0734 70.0527 70.1077H77.8072C77.4533 76.2072 75.0176 81.7445 71.2081 86.0329ZM70.0527 67.0163C69.7301 63.0506 68.148 59.4388 65.7228 56.5765L71.2081 51.0911C75.0176 55.3795 77.4533 60.9169 77.8072 67.0163H70.0527Z" fill="white"/>
</g>
</svg>
