<svg width="684" height="51" viewBox="0 0 684 51" fill="none" xmlns="http://www.w3.org/2000/svg">
<g opacity="0.4">
<path d="M646.783 50.6168C640.458 50.6168 634.137 48.2111 629.321 43.3944C619.692 33.7662 619.692 18.1028 629.321 8.47454C633.987 3.8082 640.188 1.2417 646.783 1.2417C653.378 1.2417 659.579 3.8082 664.246 8.47454C673.874 18.1028 673.874 33.7662 664.246 43.3944C659.434 48.2059 653.109 50.6168 646.783 50.6168ZM630.617 42.0982C639.529 51.0109 654.031 51.0109 662.944 42.0982C671.857 33.1855 671.857 18.6835 662.944 9.77075C658.625 5.45179 652.886 3.07715 646.778 3.07715C640.67 3.07715 634.931 5.45697 630.612 9.77075C621.699 18.6835 621.699 33.1855 630.612 42.0982H630.617Z" fill="#EBF29D"/>
<path d="M646.456 35.1712C646.545 35.3838 646.752 35.5082 646.97 35.5082C647.042 35.5082 647.115 35.4927 647.188 35.4667C648.93 34.7357 650.516 33.6054 651.771 32.1951C651.973 31.967 651.952 31.6144 651.724 31.4122C651.496 31.21 651.144 31.2307 650.941 31.4589C649.795 32.7499 648.349 33.7817 646.757 34.4453C646.477 34.5646 646.342 34.8913 646.462 35.1712H646.456Z" fill="#EBF29D"/>
<path d="M656.193 17.3976L646.985 13.7164C646.85 13.6645 646.705 13.6645 646.57 13.7164L637.362 17.3976C637.149 17.4806 637.014 17.6828 637.014 17.9109V24.506C637.024 30.593 640.872 36.0941 646.585 38.1888C646.648 38.2095 646.71 38.2199 646.777 38.2199C646.845 38.2199 646.907 38.2095 646.969 38.1888C652.683 36.0889 656.53 30.593 656.54 24.506V17.9109C656.54 17.6828 656.405 17.4806 656.193 17.3976ZM655.431 24.506C655.42 30.0434 651.946 35.0882 646.782 37.074C641.618 35.0882 638.139 30.0434 638.129 24.506V18.2894L646.782 14.8311L655.431 18.2894V24.506Z" fill="#EBF29D"/>
<path d="M642.935 18.2635C642.801 18.2064 642.65 18.2064 642.51 18.2635L640.317 19.1397C640.105 19.2227 639.97 19.4249 639.97 19.653V21.9914C639.97 22.2973 640.219 22.5462 640.524 22.5462C640.83 22.5462 641.079 22.2973 641.079 21.9914V20.0315L642.92 19.2953C643.06 19.2383 643.164 19.1345 643.226 18.9946C643.283 18.8598 643.283 18.7094 643.226 18.5694C643.169 18.4294 643.065 18.3257 642.93 18.2635H642.935Z" fill="#EBF29D"/>
<path d="M660.802 11.912C657.059 8.16336 652.076 6.10498 646.777 6.10498C641.478 6.10498 636.501 8.16855 632.752 11.912C625.022 19.6426 625.022 32.2262 632.752 39.9619C636.62 43.8298 641.696 45.7586 646.777 45.7586C651.858 45.7586 656.934 43.8246 660.802 39.9619C668.533 32.2314 668.533 19.6478 660.802 11.912ZM658.059 24.5059C658.075 31.5418 653.58 37.6962 646.876 39.8271C646.813 39.8479 646.746 39.8479 646.679 39.8271C639.975 37.6962 635.479 31.5418 635.495 24.5059V16.7235C635.495 16.5939 635.573 16.4747 635.697 16.4228L646.658 12.0416C646.694 12.0261 646.736 12.0209 646.777 12.0209C646.819 12.0209 646.86 12.0261 646.896 12.0416L657.857 16.428C657.982 16.4747 658.059 16.5939 658.059 16.7287V24.5111V24.5059Z" fill="#EBF29D"/>
<path d="M583.717 50.5367C570.107 50.5367 559.037 39.4619 559.037 25.8569C559.037 12.2519 570.112 1.17712 583.717 1.17712C597.322 1.17712 608.397 12.2519 608.397 25.8569C608.397 39.4619 597.322 50.5367 583.717 50.5367ZM583.717 2.82071C571.014 2.82071 560.681 13.1541 560.681 25.8569C560.681 38.5597 571.014 48.8931 583.717 48.8931C596.42 48.8931 606.753 38.5597 606.753 25.8569C606.753 13.1541 596.42 2.82071 583.717 2.82071Z" fill="white"/>
<path d="M591.722 10.4426C591.598 10.4426 591.473 10.4167 591.359 10.3597C588.969 9.17751 586.397 8.57607 583.717 8.57607C581.036 8.57607 578.465 9.17751 576.074 10.3597C575.758 10.5152 575.38 10.453 575.131 10.2041L570.89 5.9629C570.708 5.78143 570.625 5.53255 570.656 5.2785C570.687 5.02444 570.833 4.8015 571.05 4.67188C574.872 2.38018 579.253 1.17212 583.722 1.17212C588.191 1.17212 592.573 2.38537 596.394 4.67188C596.612 4.8015 596.757 5.02444 596.788 5.2785C596.819 5.53255 596.731 5.78143 596.555 5.9629L592.313 10.2041C592.153 10.3596 591.945 10.4426 591.727 10.4426H591.722ZM583.717 6.93246C586.449 6.93246 589.083 7.5028 591.551 8.62791L594.621 5.5585C591.282 3.75936 587.533 2.8157 583.717 2.8157C579.901 2.8157 576.152 3.75936 572.813 5.5585L575.883 8.62791C578.351 7.5028 580.984 6.93246 583.717 6.93246Z" fill="white"/>
<path d="M583.716 50.5366C579.247 50.5366 574.865 49.3234 571.044 47.0369C570.826 46.9072 570.681 46.6843 570.65 46.4302C570.619 46.1762 570.707 45.9273 570.883 45.7458L575.125 41.5046C575.374 41.2558 575.757 41.1935 576.068 41.3491C578.458 42.5312 581.03 43.1327 583.711 43.1327C586.391 43.1327 588.963 42.5312 591.353 41.3491C591.669 41.1935 592.048 41.2558 592.297 41.5046L596.538 45.7458C596.719 45.9273 596.802 46.1762 596.771 46.4302C596.74 46.6843 596.595 46.9072 596.377 47.0369C592.556 49.3286 588.175 50.5366 583.706 50.5366H583.716ZM572.812 46.1502C576.151 47.9494 579.9 48.893 583.716 48.893C587.532 48.893 591.281 47.9494 594.62 46.1502L591.55 43.0808C589.082 44.2059 586.448 44.7763 583.716 44.7763C580.983 44.7763 578.35 44.2059 575.882 43.0808L572.812 46.1502Z" fill="white"/>
<path d="M604.193 38.9229C603.975 38.9229 603.768 38.84 603.612 38.6844L599.371 34.4432C599.122 34.1944 599.06 33.8107 599.216 33.4996C600.398 31.1094 600.999 28.5377 600.999 25.8572C600.999 23.1766 600.398 20.6049 599.216 18.2147C599.06 17.8984 599.122 17.5148 599.371 17.2711L603.612 13.0299C603.794 12.8484 604.043 12.7655 604.297 12.7966C604.551 12.8277 604.774 12.9729 604.903 13.1906C607.195 17.0118 608.403 21.393 608.403 25.8623C608.403 30.3317 607.195 34.7128 604.903 38.5341C604.774 38.7518 604.551 38.897 604.297 38.9281C604.26 38.9281 604.229 38.9281 604.193 38.9281V38.9229ZM600.942 33.6863L604.012 36.7557C605.811 33.4166 606.754 29.668 606.754 25.852C606.754 22.0359 605.811 18.2873 604.012 14.9483L600.942 18.0177C602.067 20.4857 602.638 23.1196 602.638 25.852C602.638 28.5844 602.067 31.2183 600.942 33.6863Z" fill="white"/>
<path d="M563.242 38.9227C563.206 38.9227 563.175 38.9227 563.144 38.9175C562.89 38.8864 562.667 38.7412 562.537 38.5234C560.245 34.7022 559.037 30.321 559.037 25.8517C559.037 21.3824 560.245 17.0012 562.537 13.18C562.667 12.9622 562.89 12.8171 563.144 12.7859C563.398 12.7548 563.647 12.843 563.828 13.0192L568.069 17.2605C568.318 17.5093 568.38 17.893 568.225 18.2041C567.043 20.5943 566.441 23.166 566.441 25.8465C566.441 28.5271 567.043 31.0988 568.225 33.489C568.38 33.8052 568.318 34.1889 568.069 34.4326L563.828 38.6738C563.673 38.8293 563.465 38.9175 563.247 38.9175L563.242 38.9227ZM563.424 14.948C561.625 18.287 560.681 22.0357 560.681 25.8517C560.681 29.6677 561.625 33.4164 563.424 36.7554L566.493 33.686C565.368 31.218 564.798 28.5841 564.798 25.8517C564.798 23.1193 565.368 20.4854 566.493 18.0174L563.424 14.948Z" fill="white"/>
<path d="M583.717 6.9325C573.286 6.9325 564.793 15.4201 564.793 25.8571C564.793 36.2942 573.28 44.7818 583.717 44.7818C594.155 44.7818 602.642 36.2942 602.642 25.8571C602.642 15.4201 594.155 6.9325 583.717 6.9325ZM594.367 19.6405C595.264 21.1752 595.808 22.8499 595.985 24.6283C595.99 24.7009 595.959 24.7683 595.897 24.8046C594.543 25.6342 593.33 26.6504 592.283 27.8377C592.236 27.8948 592.158 27.9155 592.091 27.8896L589.753 27.1274C589.685 27.1067 589.639 27.0497 589.628 26.9771C589.364 25.0431 588.762 23.1921 587.839 21.4708C587.808 21.4086 587.813 21.336 587.855 21.2789L589.302 19.288C589.338 19.2413 589.395 19.2102 589.452 19.2102C589.467 19.2102 589.478 19.2102 589.493 19.2102C591.038 19.5524 592.625 19.6664 594.201 19.5368C594.274 19.5316 594.341 19.5679 594.377 19.6301L594.367 19.6405ZM588.353 27.3037C588.358 27.3556 588.342 27.4074 588.311 27.4437C587.082 28.8591 585.517 29.9946 583.79 30.7205C583.743 30.7412 583.697 30.7412 583.65 30.7205C581.924 29.9894 580.358 28.854 579.129 27.4437C579.098 27.4074 579.082 27.3556 579.087 27.3037C579.326 25.4268 579.912 23.6328 580.819 21.9737C580.845 21.927 580.887 21.8959 580.938 21.8856C581.851 21.6937 582.784 21.5952 583.723 21.5952C584.661 21.5952 585.594 21.6937 586.507 21.8856C586.559 21.8959 586.6 21.927 586.626 21.9737C587.534 23.6328 588.114 25.4268 588.358 27.3037H588.353ZM588.073 14.435C588.073 14.435 588.135 14.3831 588.197 14.3831C588.218 14.3831 588.244 14.3831 588.27 14.3987C590.178 15.1556 591.884 16.4 593.211 17.9917C593.278 18.0695 593.252 18.1525 593.237 18.1836C593.226 18.2095 593.18 18.2925 593.071 18.2925C591.894 18.308 590.722 18.1732 589.587 17.9036C589.54 17.8932 589.499 17.8621 589.473 17.8206C588.866 16.82 588.379 15.7415 588.026 14.6216C587.995 14.5231 588.052 14.4557 588.078 14.435H588.073ZM581.099 13.8128C582.815 13.4447 584.625 13.4447 586.341 13.8128C586.408 13.8283 586.465 13.8802 586.481 13.9476C586.849 15.4875 587.445 16.96 588.249 18.3236C588.285 18.3858 588.28 18.4636 588.239 18.5258L586.802 20.5064C586.761 20.5634 586.688 20.5945 586.621 20.579C584.723 20.1953 582.717 20.1953 580.819 20.579C580.752 20.5945 580.679 20.5634 580.638 20.5064L579.201 18.5258C579.16 18.4688 579.155 18.3858 579.191 18.3236C579.995 16.96 580.591 15.4875 580.959 13.9476C580.975 13.8802 581.032 13.8283 581.099 13.8128ZM574.229 17.9917C575.557 16.3948 577.262 15.1505 579.17 14.3987C579.196 14.3883 579.222 14.3831 579.243 14.3831C579.31 14.3831 579.352 14.4194 579.367 14.435C579.393 14.4609 579.45 14.5231 579.419 14.6216C579.067 15.7467 578.579 16.82 577.973 17.8206C577.947 17.8621 577.905 17.8932 577.859 17.9036C576.723 18.1732 575.551 18.308 574.374 18.2925C574.266 18.2925 574.219 18.2095 574.208 18.1836C574.193 18.1525 574.167 18.0695 574.234 17.9917H574.229ZM573.073 19.6405C573.104 19.5835 573.166 19.5472 573.234 19.5472C573.234 19.5472 573.244 19.5472 573.249 19.5472C574.831 19.6716 576.417 19.5627 577.957 19.2205C578.03 19.205 578.102 19.2309 578.144 19.2931L579.59 21.2841C579.632 21.3411 579.637 21.4189 579.606 21.476C578.683 23.1973 578.082 25.0483 577.817 26.9823C577.807 27.0497 577.76 27.1067 577.693 27.1326L575.354 27.8948C575.287 27.9155 575.209 27.8948 575.163 27.8429C574.115 26.6556 572.902 25.6394 571.549 24.8098C571.492 24.7735 571.455 24.7061 571.461 24.6335C571.637 22.8551 572.181 21.1752 573.078 19.6457L573.073 19.6405ZM573.638 32.4159C573.607 32.5145 573.519 32.5352 573.483 32.5404C573.446 32.5404 573.363 32.5404 573.306 32.4574C572.202 30.7205 571.549 28.7088 571.419 26.6452C571.414 26.5415 571.481 26.4897 571.512 26.4741C571.543 26.4586 571.626 26.4223 571.709 26.4845C572.669 27.1637 573.54 27.9622 574.302 28.8488C574.333 28.8851 574.348 28.9317 574.343 28.9836C574.25 30.1502 574.011 31.3064 573.633 32.4211L573.638 32.4159ZM578.761 37.1497C577.143 36.4394 575.717 35.3972 574.525 34.0595C574.478 34.0077 574.463 33.9299 574.488 33.8677C575.095 32.4056 575.479 30.8657 575.629 29.2895C575.634 29.2169 575.686 29.1547 575.754 29.1339L578.066 28.3821C578.066 28.3821 578.102 28.3718 578.123 28.3718C578.175 28.3718 578.222 28.3925 578.258 28.434C579.554 29.8858 581.177 31.0679 582.955 31.8508C583.023 31.8819 583.064 31.9441 583.064 32.0167V34.4484C583.064 34.521 583.023 34.5884 582.955 34.6143C581.504 35.2417 580.155 36.0868 578.947 37.1186C578.896 37.1653 578.818 37.1756 578.756 37.1445L578.761 37.1497ZM586.917 37.663C586.911 37.6993 586.885 37.7823 586.782 37.8082C584.78 38.3163 582.665 38.3163 580.664 37.8082C580.565 37.7823 580.534 37.6993 580.529 37.663C580.524 37.6267 580.513 37.5438 580.601 37.4763C581.545 36.7764 582.572 36.1905 583.655 35.7394C583.702 35.7187 583.749 35.7187 583.795 35.7394C584.874 36.1905 585.9 36.7764 586.849 37.4763C586.932 37.5386 586.927 37.6267 586.922 37.663H586.917ZM592.926 34.0647C591.733 35.4024 590.307 36.4394 588.69 37.1497C588.622 37.1808 588.55 37.1653 588.498 37.1238C587.29 36.092 585.947 35.2469 584.49 34.6195C584.423 34.5884 584.381 34.5262 584.381 34.4536V32.0219C584.381 31.9493 584.423 31.8819 584.49 31.856C586.268 31.0731 587.896 29.8909 589.187 28.4392C589.224 28.3977 589.27 28.377 589.322 28.377C589.343 28.377 589.359 28.377 589.379 28.3873L591.692 29.1391C591.759 29.1599 591.811 29.2221 591.816 29.2947C591.967 30.8709 592.35 32.4056 592.957 33.8729C592.983 33.9351 592.972 34.0129 592.921 34.0647H592.926ZM594.139 32.4626C594.082 32.5507 593.994 32.5508 593.963 32.5456C593.926 32.5456 593.843 32.5197 593.807 32.4211C593.434 31.3064 593.195 30.1502 593.097 28.9836C593.097 28.9369 593.107 28.8851 593.138 28.8488C593.9 27.9622 594.772 27.1689 595.731 26.4845C595.767 26.4586 595.803 26.4482 595.834 26.4482C595.876 26.4482 595.907 26.4638 595.928 26.4741C595.959 26.4897 596.031 26.5415 596.021 26.6452C595.891 28.7088 595.238 30.7205 594.134 32.4574L594.139 32.4626Z" fill="white"/>
<path d="M522.218 50.6168C515.892 50.6168 509.572 48.2111 504.755 43.3944C495.127 33.7661 495.127 18.1028 504.755 8.47454C509.422 3.8082 515.623 1.2417 522.218 1.2417C528.813 1.2417 535.014 3.8082 539.68 8.47454C549.309 18.1028 549.309 33.7661 539.68 43.3944C534.869 48.2059 528.543 50.6168 522.218 50.6168ZM506.051 42.0982C514.964 51.0109 529.466 51.0109 538.379 42.0982C547.292 33.1854 547.292 18.6835 538.379 9.77075C534.06 5.45179 528.32 3.07715 522.213 3.07715C516.105 3.07715 510.365 5.45697 506.046 9.77075C497.134 18.6835 497.134 33.1854 506.046 42.0982H506.051Z" fill="#EBF29D"/>
<path d="M521.891 35.1765C521.979 35.3891 522.187 35.5135 522.405 35.5135C522.477 35.5135 522.55 35.4979 522.622 35.472C524.364 34.741 525.951 33.6107 527.206 32.2004C527.408 31.9723 527.387 31.6197 527.159 31.4175C526.931 31.2153 526.578 31.236 526.376 31.4641C525.23 32.7552 523.784 33.7869 522.192 34.4506C521.912 34.5698 521.777 34.8965 521.896 35.1765H521.891Z" fill="#EBF29D"/>
<path d="M531.628 17.3976L522.419 13.7164C522.285 13.6645 522.139 13.6645 522.005 13.7164L512.796 17.3976C512.584 17.4806 512.449 17.6828 512.449 17.9109V24.506C512.459 30.593 516.306 36.0941 522.02 38.1888C522.082 38.2095 522.145 38.2199 522.212 38.2199C522.279 38.2199 522.342 38.2095 522.404 38.1888C528.117 36.0889 531.965 30.593 531.975 24.506V17.9109C531.975 17.6828 531.84 17.4806 531.628 17.3976ZM530.865 24.506C530.855 30.0434 527.381 35.0882 522.217 37.074C517.053 35.0882 513.574 30.0434 513.564 24.506V18.2894L522.217 14.8311L530.865 18.2894V24.506Z" fill="#EBF29D"/>
<path d="M518.37 18.2635C518.235 18.2064 518.085 18.2064 517.945 18.2635L515.752 19.1397C515.539 19.2227 515.404 19.4249 515.404 19.653V21.9914C515.404 22.2973 515.653 22.5462 515.959 22.5462C516.265 22.5462 516.514 22.2973 516.514 21.9914V20.0315L518.355 19.2953C518.495 19.2382 518.598 19.1345 518.661 18.9945C518.718 18.8597 518.718 18.7094 518.661 18.5694C518.604 18.4294 518.5 18.3257 518.365 18.2635H518.37Z" fill="#EBF29D"/>
<path d="M536.237 11.912C532.493 8.16336 527.511 6.10498 522.212 6.10498C516.913 6.10498 511.935 8.16855 508.187 11.912C500.456 19.6426 500.456 32.2261 508.187 39.9619C512.055 43.8298 517.131 45.7586 522.212 45.7586C527.293 45.7586 532.369 43.8246 536.237 39.9619C543.967 32.2313 543.967 19.6478 536.237 11.912ZM533.494 24.5059C533.51 31.5418 529.014 37.6961 522.31 39.8271C522.248 39.8478 522.181 39.8478 522.113 39.8271C515.409 37.6961 510.914 31.5418 510.93 24.5059V16.7235C510.93 16.5939 511.007 16.4747 511.132 16.4228L522.093 12.0416C522.129 12.0261 522.17 12.0209 522.212 12.0209C522.253 12.0209 522.295 12.0261 522.331 12.0416L533.292 16.428C533.416 16.4747 533.494 16.5939 533.494 16.7287V24.5111V24.5059Z" fill="#EBF29D"/>
<path d="M461.299 50.4026C447.688 50.4026 436.619 39.3277 436.619 25.7227C436.619 12.1178 447.694 1.04297 461.299 1.04297C474.904 1.04297 485.978 12.1178 485.978 25.7227C485.978 39.3277 474.904 50.4026 461.299 50.4026ZM461.299 2.68655C448.596 2.68655 438.262 13.0199 438.262 25.7227C438.262 38.4256 448.596 48.7589 461.299 48.7589C474.001 48.7589 484.335 38.4256 484.335 25.7227C484.335 13.0199 474.001 2.68655 461.299 2.68655Z" fill="#11F8A5"/>
<path d="M477.399 8.11567L469.758 15.7561L471.261 17.2593L478.902 9.61884L477.399 8.11567Z" fill="#11F8A5"/>
<path d="M451.101 34.4127L443.46 42.0531L444.964 43.5562L452.604 35.9158L451.101 34.4127Z" fill="#11F8A5"/>
<path d="M471.493 34.4201L469.99 35.9232L477.63 43.5636L479.133 42.0605L471.493 34.4201Z" fill="#11F8A5"/>
<path d="M444.962 7.88553L443.459 9.38867L451.095 17.0254L452.598 15.5223L444.962 7.88553Z" fill="#11F8A5"/>
<path d="M467.318 26.3864C467.816 25.8887 467.816 25.085 467.318 24.5925L466.26 23.54C465.763 23.0422 464.959 23.0422 464.466 23.54L463.896 24.1103L463.238 23.4518C462.74 22.9541 461.936 22.9541 461.444 23.4518L460.873 24.0273L460.215 23.3637C459.717 22.8659 458.913 22.8659 458.421 23.3637L454.921 26.8634C454.895 26.8893 454.895 26.9308 454.921 26.9619C455.388 27.4286 456.15 27.4286 456.622 26.9619L458.877 24.7065C459.121 24.4629 459.515 24.4629 459.759 24.7065L459.925 24.8724C459.956 24.9035 459.956 24.9502 459.925 24.9813L458.042 26.8634C458.017 26.8893 458.017 26.9308 458.042 26.9619C458.509 27.4286 459.271 27.4286 459.743 26.9619L461.905 24.7999C462.149 24.5562 462.543 24.5562 462.787 24.7999L462.953 24.9658C462.978 24.9917 462.978 25.0332 462.953 25.0643L461.138 26.879C461.112 26.9049 461.112 26.9464 461.138 26.9775C461.604 27.4441 462.367 27.4441 462.838 26.9775L464.928 24.888C465.172 24.6443 465.566 24.6443 465.809 24.888L466.167 25.2458C466.307 25.3858 466.307 25.6191 466.167 25.7591L466.11 25.8161C465.97 25.9561 465.737 25.9561 465.597 25.8161L465.135 25.3547C465.109 25.3287 465.068 25.3287 465.037 25.3547L464.238 26.1531C464.212 26.179 464.212 26.2205 464.238 26.2516L464.959 26.9723C465.457 27.4701 466.26 27.4701 466.753 26.9723L467.323 26.402L467.318 26.3864Z" fill="#11F8A5"/>
<path d="M461.299 6.79785C450.847 6.79785 442.375 15.2699 442.375 25.7225C442.375 36.1751 450.847 44.6471 461.299 44.6471C471.752 44.6471 480.224 36.1751 480.224 25.7225C480.224 15.2699 471.752 6.79785 461.299 6.79785ZM462.072 12.6412C465.11 12.8174 467.868 14.0307 470.005 15.9283L467.272 18.6607C465.846 17.4527 464.047 16.6698 462.072 16.5039V12.6412ZM460.532 12.6412V16.5039C458.556 16.6646 456.757 17.4527 455.331 18.6607L452.599 15.9283C454.735 14.0307 457.494 12.8174 460.532 12.6412ZM451.51 17.0172L454.243 19.7496C453.035 21.1754 452.252 22.9745 452.086 24.9499H448.223C448.399 21.9116 449.613 19.1533 451.51 17.0172ZM448.223 26.4899H452.086C452.247 28.4653 453.035 30.2644 454.243 31.6902L451.51 34.4226C449.613 32.2865 448.399 29.5282 448.223 26.4899ZM460.532 38.7986C457.494 38.6224 454.735 37.4091 452.599 35.5114L455.331 32.779C456.757 33.9871 458.556 34.77 460.532 34.9359V38.7986ZM453.346 25.7173C453.346 21.3257 456.908 17.7638 461.299 17.7638C465.691 17.7638 469.253 21.3257 469.253 25.7173C469.253 30.1088 465.691 33.6708 461.299 33.6708C456.908 33.6708 453.346 30.1088 453.346 25.7173ZM462.072 38.7986V34.9359C464.047 34.7752 465.846 33.9871 467.272 32.779L470.005 35.5114C467.868 37.4091 465.11 38.6224 462.072 38.7986ZM471.093 34.4226L468.361 31.6902C469.569 30.2644 470.352 28.4653 470.518 26.4899H474.381C474.204 29.5282 472.991 32.2865 471.093 34.4226ZM470.518 24.9499C470.357 22.9745 469.569 21.1754 468.361 19.7496L471.093 17.0172C472.991 19.1533 474.204 21.9116 474.381 24.9499H470.518Z" fill="#11F8A5"/>
<path d="M378.856 43.1097C369.148 33.4013 369.148 17.6064 378.856 7.89798C388.565 -1.81039 404.36 -1.81039 414.068 7.89798C423.777 17.6064 423.777 33.4013 414.068 43.1097C404.36 52.8181 388.565 52.8181 378.856 43.1097ZM412.895 9.07139C403.833 0.00992596 389.091 0.00992596 380.032 9.07139C370.971 18.1329 370.971 32.8749 380.032 41.934C389.094 50.9954 403.836 50.9954 412.895 41.934C421.956 32.8725 421.956 18.1305 412.895 9.07139Z" fill="white"/>
<path d="M413.163 20.2221C413.076 20.1347 413.005 20.0238 412.965 19.901C412.103 17.3511 410.696 15.0917 408.784 13.1793C406.874 11.2692 404.612 9.86209 402.062 8.99797C401.724 8.88228 401.498 8.56828 401.498 8.21177V2.16056C401.498 1.90558 401.616 1.66475 401.816 1.50656C402.019 1.34838 402.282 1.29408 402.527 1.35547C406.885 2.44624 410.875 4.70806 414.063 7.89775C417.25 11.0874 419.512 15.0752 420.603 19.4335C420.664 19.6814 420.607 19.9435 420.452 20.1465C420.293 20.3496 420.053 20.4653 419.798 20.4653H413.746C413.52 20.4653 413.312 20.3732 413.159 20.2197L413.163 20.2221ZM409.957 12.0059C411.907 13.956 413.378 16.2415 414.337 18.8055H418.714C417.614 15.1413 415.614 11.7934 412.892 9.07116C410.17 6.34895 406.822 4.34919 403.16 3.25134V7.6286C405.724 8.5848 408.009 10.0557 409.959 12.0082L409.957 12.0059Z" fill="white"/>
<path d="M378.856 43.1095C375.668 39.9222 373.404 35.9321 372.313 31.5737C372.252 31.3258 372.309 31.0637 372.464 30.8631C372.623 30.66 372.863 30.5443 373.118 30.5443H379.17C379.526 30.5443 379.842 30.771 379.956 31.1086C380.818 33.6585 382.225 35.9179 384.137 37.8303C386.047 39.7404 388.309 41.1475 390.859 42.0116C391.196 42.1249 391.423 42.4413 391.423 42.7978V48.849C391.423 49.104 391.305 49.3449 391.104 49.503C390.901 49.6612 390.639 49.7155 390.391 49.6541C386.033 48.5634 382.045 46.3015 378.856 43.1142V43.1095ZM374.207 32.2017C375.307 35.866 377.307 39.2139 380.029 41.9361C382.751 44.6583 386.099 46.658 389.763 47.7583V43.381C387.199 42.4248 384.914 40.9539 382.964 39.0037C381.014 37.0536 379.543 34.7681 378.584 32.2041H374.207V32.2017Z" fill="white"/>
<path d="M401.745 49.4324C401.589 49.2766 401.501 49.0664 401.501 48.8445V42.7933C401.501 42.4368 401.728 42.1204 402.066 42.0071C404.616 41.1453 406.875 39.7382 408.787 37.8258C410.7 35.9134 412.105 33.6539 412.969 31.1041C413.082 30.7664 413.398 30.5398 413.755 30.5398H419.806C420.061 30.5398 420.302 30.6578 420.46 30.8585C420.618 31.0592 420.673 31.3236 420.611 31.5692C419.518 35.9276 417.256 39.9153 414.069 43.105C410.882 46.2946 406.892 48.5565 402.533 49.6472C402.285 49.7086 402.023 49.652 401.823 49.4961C401.797 49.4725 401.771 49.4513 401.747 49.4277L401.745 49.4324ZM403.161 43.3788V47.7561C406.825 46.6559 410.173 44.6561 412.896 41.9339C415.618 39.2117 417.615 35.8638 418.718 32.1996H414.34C413.384 34.7636 411.913 37.0467 409.961 38.9992C408.011 40.9494 405.725 42.4226 403.161 43.3788Z" fill="white"/>
<path d="M372.531 20.2222C372.507 20.1986 372.484 20.1726 372.465 20.1467C372.307 19.946 372.252 19.6816 372.314 19.4336C373.405 15.0753 375.666 11.0852 378.856 7.89787C382.046 4.71054 386.034 2.44636 390.392 1.35558C390.64 1.2942 390.902 1.35086 391.103 1.50668C391.303 1.66487 391.421 1.90569 391.421 2.16068V8.21189C391.421 8.56839 391.195 8.88476 390.857 8.99809C388.307 9.85985 386.048 11.267 384.135 13.1794C382.225 15.0894 380.818 17.3513 379.954 19.9011C379.841 20.2387 379.524 20.4654 379.168 20.4654H373.117C372.895 20.4654 372.682 20.378 372.529 20.2246L372.531 20.2222ZM389.762 3.25145C386.097 4.35167 382.749 6.35143 380.027 9.07364C377.305 11.7959 375.308 15.1437 374.205 18.808H378.582C379.538 16.244 381.009 13.9609 382.962 12.0083C384.912 10.0582 387.198 8.58728 389.762 7.62872V3.25145Z" fill="white"/>
<path d="M409.959 12.006C402.517 4.56414 390.405 4.56177 382.964 12.006C375.519 19.4501 375.522 31.5596 382.964 39.0015C390.405 46.4433 402.515 46.4457 409.959 39.0015C417.403 31.5573 417.401 19.4478 409.959 12.006Z" fill="white"/>
<path d="M403.346 32.3169L389.633 32.4079C389.056 32.4117 388.591 32.8831 388.594 33.4607L388.598 33.9494C388.601 34.527 389.073 34.9922 389.65 34.9884L403.363 34.8974C403.94 34.8936 404.406 34.4222 404.402 33.8446L404.398 33.3559C404.395 32.7782 403.923 32.3131 403.346 32.3169Z" fill="#191D0A"/>
<path d="M391.502 24.04C391.353 24.04 391.202 24.0069 391.065 23.9408L389.995 23.4238C389.53 23.1971 389.318 22.647 389.511 22.1677L390.002 20.9447C390.153 20.5717 390.51 20.3285 390.911 20.3262C391.084 20.3262 391.254 20.3687 391.405 20.456L392.68 21.1832C392.918 21.3178 393.091 21.5515 393.152 21.8207C393.213 22.0898 393.159 22.3731 393.003 22.5998L392.304 23.6127C392.123 23.8771 391.82 24.0376 391.499 24.0376L391.502 24.04Z" fill="#191D0A"/>
<path d="M401.372 23.974C401.051 23.974 400.746 23.8205 400.562 23.5584L399.87 22.5834C399.71 22.3591 399.653 22.0757 399.71 21.8066C399.766 21.5374 399.936 21.3013 400.175 21.162L401.49 20.39C401.639 20.3026 401.809 20.2554 401.981 20.2531C402.382 20.2507 402.744 20.4892 402.899 20.8598L403.395 22.0474C403.594 22.5243 403.388 23.0792 402.928 23.3105L401.809 23.8701C401.674 23.9362 401.523 23.974 401.374 23.974H401.372Z" fill="#191D0A"/>
<path d="M390.424 31.4912C389.822 31.4959 389.281 31.1182 389.076 30.5516L386.788 24.2548C386.642 24.3256 386.486 24.3799 386.328 24.4201C386.141 24.4673 385.952 24.4909 385.761 24.4909C385.65 24.4909 385.542 24.4862 385.435 24.472C384.243 24.3209 383.339 23.2986 383.332 22.0945C383.322 20.7629 384.399 19.6721 385.731 19.6627C387.062 19.6533 388.153 20.7299 388.16 22.0615C388.16 22.3684 388.108 22.6635 387.999 22.9397C387.94 23.0908 387.867 23.2349 387.782 23.3718L392.134 25.4778L395.463 20.6543C395.323 20.5953 395.189 20.5221 395.061 20.4347C394.82 20.2718 394.61 20.0688 394.44 19.8303C394.152 19.4242 393.996 18.945 393.994 18.4491C393.985 17.1176 395.061 16.0268 396.393 16.0173C396.452 16.0173 396.513 16.0173 396.572 16.0221C397.764 16.1023 398.728 17.0585 398.815 18.2508C398.855 18.8151 398.707 19.3558 398.385 19.8162C398.215 20.057 398.008 20.2624 397.769 20.4253C397.644 20.5126 397.509 20.5858 397.37 20.6449L400.758 25.4188L405.039 23.2774C404.958 23.1239 404.895 22.9634 404.847 22.7957C404.791 22.5927 404.76 22.3802 404.76 22.1653C404.76 22.0685 404.765 21.9717 404.774 21.8773C404.911 20.6638 405.936 19.743 407.156 19.7359C408.488 19.7264 409.579 20.8031 409.586 22.1346C409.595 23.4049 408.608 24.472 407.341 24.5594L407.19 24.5641C406.944 24.5641 406.703 24.531 406.469 24.4602C406.318 24.413 406.172 24.354 406.035 24.2784L403.887 30.4524C403.691 31.0214 403.152 31.4039 402.55 31.4086L390.424 31.4889V31.4912Z" fill="#191D0A"/>
<path d="M336.34 50.6168C330.015 50.6168 323.694 48.2111 318.878 43.3944C309.249 33.7662 309.249 18.1028 318.878 8.47454C323.544 3.8082 329.745 1.2417 336.34 1.2417C342.935 1.2417 349.136 3.8082 353.803 8.47454C363.431 18.1028 363.431 33.7662 353.803 43.3944C348.991 48.2059 342.666 50.6168 336.34 50.6168ZM320.174 42.0982C329.086 51.0109 343.588 51.0109 352.501 42.0982C361.414 33.1855 361.414 18.6835 352.501 9.77075C348.182 5.45179 342.443 3.07715 336.335 3.07715C330.227 3.07715 324.488 5.45697 320.169 9.77075C311.256 18.6835 311.256 33.1855 320.169 42.0982H320.174Z" fill="#EBF29D"/>
<path d="M336.013 35.1712C336.102 35.3838 336.309 35.5082 336.527 35.5082C336.599 35.5082 336.672 35.4927 336.744 35.4667C338.487 34.7357 340.073 33.6054 341.328 32.1951C341.53 31.967 341.509 31.6144 341.281 31.4122C341.053 31.21 340.7 31.2307 340.498 31.4589C339.352 32.7499 337.906 33.7817 336.314 34.4453C336.034 34.5646 335.899 34.8913 336.019 35.1712H336.013Z" fill="#EBF29D"/>
<path d="M345.75 17.3976L336.542 13.7164C336.407 13.6645 336.262 13.6645 336.127 13.7164L326.919 17.3976C326.706 17.4806 326.571 17.6828 326.571 17.9109V24.506C326.581 30.593 330.429 36.0941 336.142 38.1888C336.205 38.2095 336.267 38.2199 336.334 38.2199C336.402 38.2199 336.464 38.2095 336.526 38.1888C342.24 36.0889 346.087 30.593 346.097 24.506V17.9109C346.097 17.6828 345.962 17.4806 345.75 17.3976ZM344.988 24.506C344.977 30.0434 341.503 35.0882 336.339 37.074C331.175 35.0882 327.696 30.0434 327.686 24.506V18.2894L336.339 14.8311L344.988 18.2894V24.506Z" fill="#EBF29D"/>
<path d="M332.492 18.2635C332.358 18.2064 332.207 18.2064 332.067 18.2635L329.874 19.1397C329.661 19.2227 329.527 19.4249 329.527 19.653V21.9914C329.527 22.2973 329.776 22.5462 330.081 22.5462C330.387 22.5462 330.636 22.2973 330.636 21.9914V20.0315L332.477 19.2953C332.617 19.2383 332.721 19.1345 332.783 18.9946C332.84 18.8598 332.84 18.7094 332.783 18.5694C332.726 18.4294 332.622 18.3257 332.487 18.2635H332.492Z" fill="#EBF29D"/>
<path d="M350.359 11.912C346.616 8.16336 341.633 6.10498 336.334 6.10498C331.035 6.10498 326.058 8.16855 322.309 11.912C314.579 19.6426 314.579 32.2262 322.309 39.9619C326.177 43.8298 331.253 45.7586 336.334 45.7586C341.415 45.7586 346.491 43.8246 350.359 39.9619C358.09 32.2314 358.09 19.6478 350.359 11.912ZM347.616 24.5059C347.632 31.5418 343.137 37.6962 336.433 39.8271C336.37 39.8479 336.303 39.8479 336.236 39.8271C329.532 37.6962 325.036 31.5418 325.052 24.5059V16.7235C325.052 16.5939 325.13 16.4747 325.254 16.4228L336.215 12.0416C336.251 12.0261 336.293 12.0209 336.334 12.0209C336.376 12.0209 336.417 12.0261 336.453 12.0416L347.414 16.428C347.539 16.4747 347.616 16.5939 347.616 16.7287V24.5111V24.5059Z" fill="#EBF29D"/>
<path d="M273.274 50.5366C259.664 50.5366 248.594 39.4618 248.594 25.8568C248.594 12.2518 259.669 1.177 273.274 1.177C286.879 1.177 297.954 12.2518 297.954 25.8568C297.954 39.4618 286.879 50.5366 273.274 50.5366ZM273.274 2.82058C260.571 2.82058 250.238 13.1539 250.238 25.8568C250.238 38.5596 260.571 48.893 273.274 48.893C285.977 48.893 296.31 38.5596 296.31 25.8568C296.31 13.1539 285.977 2.82058 273.274 2.82058Z" fill="white"/>
<path d="M281.279 10.4421C281.154 10.4421 281.03 10.4162 280.916 10.3592C278.526 9.17702 275.954 8.57558 273.273 8.57558C270.593 8.57558 268.021 9.17702 265.631 10.3592C265.315 10.5147 264.936 10.4525 264.687 10.2036L260.446 5.96241C260.265 5.78094 260.182 5.53206 260.213 5.27801C260.244 5.02395 260.389 4.80101 260.607 4.67139C264.428 2.3797 268.809 1.17163 273.279 1.17163C277.748 1.17163 282.129 2.38488 285.95 4.67139C286.168 4.80101 286.313 5.02395 286.344 5.27801C286.375 5.53206 286.287 5.78094 286.111 5.96241L281.87 10.2036C281.709 10.3591 281.502 10.4421 281.284 10.4421H281.279ZM273.273 6.93197C276.006 6.93197 278.64 7.50231 281.108 8.62742L284.177 5.55801C280.838 3.75887 277.089 2.81521 273.273 2.81521C269.457 2.81521 265.709 3.75887 262.37 5.55801L265.439 8.62742C267.907 7.50231 270.541 6.93197 273.273 6.93197Z" fill="white"/>
<path d="M273.273 50.5365C268.803 50.5365 264.422 49.3232 260.601 47.0367C260.383 46.9071 260.238 46.6841 260.207 46.4301C260.176 46.176 260.264 45.9272 260.44 45.7457L264.681 41.5045C264.93 41.2556 265.314 41.1934 265.625 41.349C268.015 42.5311 270.587 43.1325 273.267 43.1325C275.948 43.1325 278.52 42.5311 280.91 41.349C281.226 41.1934 281.605 41.2556 281.853 41.5045L286.095 45.7457C286.276 45.9272 286.359 46.176 286.328 46.4301C286.297 46.6841 286.152 46.9071 285.934 47.0367C282.113 49.3284 277.732 50.5365 273.262 50.5365H273.273ZM262.369 46.1501C265.708 47.9493 269.457 48.8929 273.273 48.8929C277.089 48.8929 280.837 47.9493 284.176 46.1501L281.107 43.0807C278.639 44.2058 276.005 44.7761 273.273 44.7761C270.54 44.7761 267.906 44.2058 265.438 43.0807L262.369 46.1501Z" fill="white"/>
<path d="M293.75 38.9226C293.532 38.9226 293.324 38.8396 293.169 38.6841L288.928 34.4429C288.679 34.194 288.617 33.8103 288.772 33.4992C289.954 31.109 290.556 28.5373 290.556 25.8568C290.556 23.1762 289.954 20.6046 288.772 18.2144C288.617 17.8981 288.679 17.5144 288.928 17.2707L293.169 13.0295C293.35 12.8481 293.599 12.7651 293.853 12.7962C294.107 12.8273 294.33 12.9725 294.46 13.1902C296.752 17.0115 297.96 21.3927 297.96 25.862C297.96 30.3313 296.752 34.7125 294.46 38.5337C294.33 38.7515 294.107 38.8966 293.853 38.9278C293.817 38.9278 293.786 38.9278 293.75 38.9278V38.9226ZM290.499 33.6859L293.568 36.7553C295.367 33.4163 296.311 29.6676 296.311 25.8516C296.311 22.0356 295.367 18.2869 293.568 14.9479L290.499 18.0173C291.624 20.4853 292.194 23.1192 292.194 25.8516C292.194 28.584 291.624 31.2179 290.499 33.6859Z" fill="white"/>
<path d="M252.799 38.9225C252.762 38.9225 252.731 38.9225 252.7 38.9173C252.446 38.8862 252.223 38.7411 252.094 38.5233C249.802 34.7021 248.594 30.3209 248.594 25.8516C248.594 21.3822 249.802 17.0011 252.094 13.1799C252.223 12.9621 252.446 12.8169 252.7 12.7858C252.954 12.7547 253.203 12.8428 253.385 13.0191L257.626 17.2603C257.875 17.5092 257.937 17.8929 257.781 18.2039C256.599 20.5942 255.998 23.1659 255.998 25.8464C255.998 28.527 256.599 31.0986 257.781 33.4888C257.937 33.8051 257.875 34.1888 257.626 34.4325L253.385 38.6737C253.229 38.8292 253.022 38.9173 252.804 38.9173L252.799 38.9225ZM252.98 14.9479C251.181 18.2869 250.237 22.0355 250.237 25.8516C250.237 29.6676 251.181 33.4162 252.98 36.7553L256.05 33.6859C254.925 31.2179 254.354 28.584 254.354 25.8516C254.354 23.1192 254.925 20.4853 256.05 18.0173L252.98 14.9479Z" fill="white"/>
<path d="M273.274 6.93213C262.842 6.93213 254.35 15.4197 254.35 25.8568C254.35 36.2938 262.837 44.7814 273.274 44.7814C283.711 44.7814 292.199 36.2938 292.199 25.8568C292.199 15.4197 283.711 6.93213 273.274 6.93213ZM283.924 19.6402C284.821 21.1749 285.365 22.8496 285.542 24.628C285.547 24.7005 285.516 24.768 285.454 24.8043C284.1 25.6338 282.887 26.65 281.84 27.8374C281.793 27.8944 281.715 27.9152 281.648 27.8892L279.31 27.127C279.242 27.1063 279.195 27.0493 279.185 26.9767C278.921 25.0428 278.319 23.1918 277.396 21.4704C277.365 21.4082 277.37 21.3356 277.412 21.2786L278.858 19.2876C278.895 19.2409 278.952 19.2098 279.009 19.2098C279.024 19.2098 279.035 19.2098 279.05 19.2098C280.595 19.552 282.182 19.6661 283.758 19.5365C283.831 19.5313 283.898 19.5676 283.934 19.6298L283.924 19.6402ZM277.91 27.3033C277.915 27.3552 277.899 27.407 277.868 27.4433C276.639 28.8588 275.074 29.9943 273.347 30.7201C273.3 30.7409 273.254 30.7409 273.207 30.7201C271.48 29.9891 269.915 28.8536 268.686 27.4433C268.655 27.407 268.639 27.3552 268.644 27.3033C268.883 25.4264 269.469 23.6325 270.376 21.9733C270.402 21.9267 270.443 21.8956 270.495 21.8852C271.408 21.6934 272.341 21.5948 273.28 21.5948C274.218 21.5948 275.151 21.6934 276.064 21.8852C276.116 21.8956 276.157 21.9267 276.183 21.9733C277.09 23.6325 277.671 25.4264 277.915 27.3033H277.91ZM277.63 14.4346C277.63 14.4346 277.692 14.3827 277.754 14.3827C277.775 14.3827 277.801 14.3827 277.827 14.3983C279.735 15.1553 281.44 16.3996 282.768 17.9914C282.835 18.0692 282.809 18.1521 282.794 18.1832C282.783 18.2091 282.737 18.2921 282.628 18.2921C281.451 18.3077 280.279 18.1729 279.144 17.9032C279.097 17.8929 279.055 17.8618 279.03 17.8203C278.423 16.8196 277.936 15.7412 277.583 14.6212C277.552 14.5227 277.609 14.4553 277.635 14.4346H277.63ZM270.656 13.8124C272.372 13.4443 274.182 13.4443 275.898 13.8124C275.965 13.828 276.022 13.8798 276.038 13.9472C276.406 15.4871 277.002 16.9596 277.806 18.3232C277.842 18.3854 277.837 18.4632 277.796 18.5254L276.359 20.506C276.318 20.563 276.245 20.5942 276.178 20.5786C274.28 20.1949 272.274 20.1949 270.376 20.5786C270.309 20.5942 270.236 20.563 270.195 20.506L268.758 18.5254C268.717 18.4684 268.712 18.3854 268.748 18.3232C269.552 16.9596 270.148 15.4871 270.516 13.9472C270.532 13.8798 270.589 13.828 270.656 13.8124ZM263.786 17.9914C265.113 16.3945 266.819 15.1501 268.727 14.3983C268.753 14.3879 268.779 14.3827 268.8 14.3827C268.867 14.3827 268.909 14.419 268.924 14.4346C268.95 14.4605 269.007 14.5227 268.976 14.6212C268.624 15.7463 268.136 16.8196 267.53 17.8203C267.504 17.8618 267.462 17.8929 267.416 17.9032C266.28 18.1729 265.108 18.3077 263.931 18.2921C263.822 18.2921 263.776 18.2091 263.765 18.1832C263.75 18.1521 263.724 18.0692 263.791 17.9914H263.786ZM262.63 19.6402C262.661 19.5831 262.723 19.5468 262.791 19.5468C262.791 19.5468 262.801 19.5468 262.806 19.5468C264.388 19.6713 265.974 19.5624 267.514 19.2202C267.587 19.2046 267.659 19.2306 267.701 19.2928L269.147 21.2837C269.189 21.3408 269.194 21.4186 269.163 21.4756C268.24 23.197 267.638 25.0479 267.374 26.9819C267.364 27.0493 267.317 27.1063 267.25 27.1322L264.911 27.8944C264.844 27.9151 264.766 27.8944 264.719 27.8426C263.672 26.6552 262.459 25.639 261.106 24.8094C261.049 24.7732 261.012 24.7057 261.017 24.6331C261.194 22.8548 261.738 21.1749 262.635 19.6453L262.63 19.6402ZM263.195 32.4156C263.164 32.5141 263.076 32.5348 263.04 32.54C263.003 32.54 262.92 32.54 262.863 32.4571C261.759 30.7202 261.106 28.7084 260.976 26.6449C260.971 26.5412 261.038 26.4893 261.069 26.4738C261.1 26.4582 261.183 26.4219 261.266 26.4841C262.225 27.1633 263.097 27.9618 263.859 28.8484C263.89 28.8847 263.905 28.9314 263.9 28.9832C263.807 30.1498 263.568 31.306 263.19 32.4208L263.195 32.4156ZM268.318 37.1493C266.7 36.439 265.274 35.3969 264.082 34.0592C264.035 34.0073 264.019 33.9295 264.045 33.8673C264.652 32.4052 265.036 30.8653 265.186 29.2891C265.191 29.2165 265.243 29.1543 265.31 29.1336L267.623 28.3818C267.623 28.3818 267.659 28.3714 267.68 28.3714C267.732 28.3714 267.778 28.3922 267.815 28.4336C269.111 29.8854 270.734 31.0675 272.512 31.8504C272.58 31.8815 272.621 31.9438 272.621 32.0163V34.448C272.621 34.5206 272.58 34.588 272.512 34.6139C271.06 35.2413 269.712 36.0864 268.504 37.1182C268.452 37.1649 268.375 37.1753 268.312 37.1441L268.318 37.1493ZM276.473 37.6626C276.468 37.6989 276.442 37.7819 276.339 37.8078C274.337 38.3159 272.222 38.3159 270.221 37.8078C270.122 37.7819 270.091 37.6989 270.086 37.6626C270.081 37.6263 270.07 37.5434 270.158 37.476C271.102 36.776 272.129 36.1901 273.212 35.739C273.259 35.7183 273.305 35.7183 273.352 35.739C274.431 36.1901 275.457 36.776 276.406 37.476C276.489 37.5382 276.484 37.6263 276.479 37.6626H276.473ZM282.483 34.0644C281.29 35.402 279.864 36.439 278.247 37.1493C278.179 37.1804 278.107 37.1649 278.055 37.1234C276.847 36.0916 275.504 35.2465 274.047 34.6191C273.98 34.588 273.938 34.5258 273.938 34.4532V32.0215C273.938 31.9489 273.98 31.8815 274.047 31.8556C275.825 31.0727 277.453 29.8906 278.744 28.4388C278.781 28.3973 278.827 28.3766 278.879 28.3766C278.9 28.3766 278.915 28.3766 278.936 28.387L281.249 29.1388C281.316 29.1595 281.368 29.2217 281.373 29.2943C281.523 30.8705 281.907 32.4052 282.514 33.8725C282.54 33.9347 282.529 34.0125 282.477 34.0644H282.483ZM283.696 32.4622C283.639 32.5504 283.551 32.5504 283.52 32.5452C283.483 32.5452 283.4 32.5193 283.364 32.4208C282.991 31.306 282.752 30.1498 282.654 28.9832C282.654 28.9366 282.664 28.8847 282.695 28.8484C283.457 27.9618 284.328 27.1685 285.288 26.4841C285.324 26.4582 285.36 26.4478 285.391 26.4478C285.433 26.4478 285.464 26.4634 285.485 26.4738C285.516 26.4893 285.588 26.5412 285.578 26.6449C285.448 28.7084 284.795 30.7202 283.691 32.4571L283.696 32.4622Z" fill="white"/>
<path d="M211.774 50.6168C205.449 50.6168 199.129 48.2111 194.312 43.3944C184.684 33.7661 184.684 18.1028 194.312 8.47454C198.978 3.8082 205.179 1.2417 211.774 1.2417C218.369 1.2417 224.571 3.8082 229.237 8.47454C238.865 18.1028 238.865 33.7661 229.237 43.3944C224.425 48.2059 218.1 50.6168 211.774 50.6168ZM195.608 42.0982C204.521 51.0109 219.023 51.0109 227.935 42.0982C236.848 33.1854 236.848 18.6835 227.935 9.77075C223.617 5.45179 217.877 3.07715 211.769 3.07715C205.661 3.07715 199.922 5.45697 195.603 9.77075C186.69 18.6835 186.69 33.1854 195.603 42.0982H195.608Z" fill="#EBF29D"/>
<path d="M211.448 35.1765C211.536 35.3891 211.743 35.5135 211.961 35.5135C212.034 35.5135 212.106 35.4979 212.179 35.472C213.921 34.741 215.507 33.6107 216.762 32.2004C216.964 31.9723 216.944 31.6197 216.716 31.4175C216.487 31.2153 216.135 31.236 215.933 31.4641C214.787 32.7552 213.34 33.7869 211.748 34.4506C211.468 34.5698 211.334 34.8965 211.453 35.1765H211.448Z" fill="#EBF29D"/>
<path d="M221.184 17.3976L211.976 13.7164C211.841 13.6645 211.696 13.6645 211.561 13.7164L202.353 17.3976C202.14 17.4806 202.005 17.6828 202.005 17.9109V24.506C202.016 30.593 205.863 36.0941 211.577 38.1888C211.639 38.2095 211.701 38.2199 211.768 38.2199C211.836 38.2199 211.898 38.2095 211.96 38.1888C217.674 36.0889 221.521 30.593 221.532 24.506V17.9109C221.532 17.6828 221.397 17.4806 221.184 17.3976ZM220.422 24.506C220.412 30.0434 216.938 35.0882 211.774 37.074C206.61 35.0882 203.131 30.0434 203.12 24.506V18.2894L211.774 14.8311L220.422 18.2894V24.506Z" fill="#EBF29D"/>
<path d="M207.927 18.2635C207.792 18.2064 207.642 18.2064 207.502 18.2635L205.308 19.1397C205.096 19.2227 204.961 19.4249 204.961 19.653V21.9914C204.961 22.2973 205.21 22.5462 205.516 22.5462C205.822 22.5462 206.071 22.2973 206.071 21.9914V20.0315L207.911 19.2953C208.051 19.2382 208.155 19.1345 208.217 18.9945C208.274 18.8597 208.274 18.7094 208.217 18.5694C208.16 18.4294 208.056 18.3257 207.922 18.2635H207.927Z" fill="#EBF29D"/>
<path d="M225.793 11.912C222.05 8.16336 217.067 6.10498 211.768 6.10498C206.47 6.10498 201.492 8.16855 197.743 11.912C190.013 19.6426 190.013 32.2261 197.743 39.9619C201.611 43.8298 206.687 45.7586 211.768 45.7586C216.85 45.7586 221.926 43.8246 225.793 39.9619C233.524 32.2313 233.524 19.6478 225.793 11.912ZM223.051 24.5059C223.066 31.5418 218.571 37.6961 211.867 39.8271C211.805 39.8478 211.737 39.8478 211.67 39.8271C204.966 37.6961 200.471 31.5418 200.486 24.5059V16.7235C200.486 16.5939 200.564 16.4747 200.688 16.4228L211.649 12.0416C211.685 12.0261 211.727 12.0209 211.768 12.0209C211.81 12.0209 211.851 12.0261 211.888 12.0416L222.848 16.428C222.973 16.4747 223.051 16.5939 223.051 16.7287V24.5111V24.5059Z" fill="#EBF29D"/>
<path d="M150.855 50.4028C137.245 50.4028 126.175 39.328 126.175 25.723C126.175 12.118 137.25 1.04321 150.855 1.04321C164.46 1.04321 175.535 12.118 175.535 25.723C175.535 39.328 164.46 50.4028 150.855 50.4028ZM150.855 2.6868C138.152 2.6868 127.819 13.0202 127.819 25.723C127.819 38.4258 138.152 48.7592 150.855 48.7592C163.558 48.7592 173.891 38.4258 173.891 25.723C173.891 13.0202 163.558 2.6868 150.855 2.6868Z" fill="#11F8A5"/>
<path d="M166.955 8.11567L159.315 15.7561L160.818 17.2593L168.458 9.61884L166.955 8.11567Z" fill="#11F8A5"/>
<path d="M140.657 34.4127L133.017 42.0531L134.52 43.5562L142.161 35.9158L140.657 34.4127Z" fill="#11F8A5"/>
<path d="M161.049 34.4203L159.546 35.9235L167.187 43.5639L168.69 42.0607L161.049 34.4203Z" fill="#11F8A5"/>
<path d="M134.518 7.88577L133.015 9.38892L140.652 17.0257L142.155 15.5225L134.518 7.88577Z" fill="#11F8A5"/>
<path d="M156.875 26.3864C157.372 25.8887 157.372 25.085 156.875 24.5925L155.817 23.54C155.319 23.0422 154.516 23.0422 154.023 23.54L153.453 24.1103L152.794 23.4518C152.296 22.9541 151.493 22.9541 151 23.4518L150.43 24.0273L149.771 23.3637C149.274 22.8659 148.47 22.8659 147.977 23.3637L144.478 26.8634C144.452 26.8893 144.452 26.9308 144.478 26.9619C144.944 27.4286 145.707 27.4286 146.178 26.9619L148.434 24.7065C148.677 24.4629 149.071 24.4629 149.315 24.7065L149.481 24.8724C149.512 24.9035 149.512 24.9502 149.481 24.9813L147.599 26.8634C147.573 26.8893 147.573 26.9308 147.599 26.9619C148.066 27.4286 148.828 27.4286 149.3 26.9619L151.462 24.7999C151.705 24.5562 152.099 24.5562 152.343 24.7999L152.509 24.9658C152.535 24.9917 152.535 25.0332 152.509 25.0643L150.694 26.879C150.668 26.9049 150.668 26.9464 150.694 26.9775C151.161 27.4441 151.923 27.4441 152.395 26.9775L154.484 24.888C154.728 24.6443 155.122 24.6443 155.366 24.888L155.724 25.2458C155.864 25.3858 155.864 25.6191 155.724 25.7591L155.667 25.8161C155.527 25.9561 155.293 25.9561 155.153 25.8161L154.692 25.3547C154.666 25.3287 154.624 25.3287 154.593 25.3547L153.795 26.1531C153.769 26.179 153.769 26.2205 153.795 26.2516L154.516 26.9723C155.013 27.4701 155.817 27.4701 156.309 26.9723L156.88 26.402L156.875 26.3864Z" fill="#11F8A5"/>
<path d="M150.856 6.79822C140.403 6.79822 131.931 15.2702 131.931 25.7228C131.931 36.1755 140.403 44.6475 150.856 44.6475C161.308 44.6475 169.78 36.1755 169.78 25.7228C169.78 15.2702 161.308 6.79822 150.856 6.79822ZM151.628 12.6415C154.667 12.8178 157.425 14.031 159.561 15.9287L156.829 18.6611C155.403 17.453 153.604 16.6702 151.628 16.5042V12.6415ZM150.088 12.6415V16.5042C148.113 16.665 146.314 17.453 144.888 18.6611L142.156 15.9287C144.292 14.031 147.05 12.8178 150.088 12.6415ZM141.067 17.0175L143.799 19.7499C142.591 21.1758 141.808 22.9749 141.642 24.9503H137.78C137.956 21.912 139.169 19.1537 141.067 17.0175ZM137.78 26.4902H141.642C141.803 28.4656 142.591 30.2648 143.799 31.6906L141.067 34.423C139.169 32.2869 137.956 29.5285 137.78 26.4902ZM150.088 38.799C147.05 38.6227 144.292 37.4095 142.156 35.5118L144.888 32.7794C146.314 33.9875 148.113 34.7704 150.088 34.9363V38.799ZM142.902 25.7177C142.902 21.3261 146.464 17.7641 150.856 17.7641C155.247 17.7641 158.809 21.3261 158.809 25.7177C158.809 30.1092 155.247 33.6712 150.856 33.6712C146.464 33.6712 142.902 30.1092 142.902 25.7177ZM151.628 38.799V34.9363C153.604 34.7756 155.403 33.9875 156.829 32.7794L159.561 35.5118C157.425 37.4095 154.667 38.6227 151.628 38.799ZM160.65 34.423L157.918 31.6906C159.126 30.2648 159.909 28.4656 160.074 26.4902H163.937C163.761 29.5285 162.548 32.2869 160.65 34.423ZM160.074 24.9503C159.914 22.9749 159.126 21.1758 157.918 19.7499L160.65 17.0175C162.548 19.1537 163.761 21.912 163.937 24.9503H160.074Z" fill="#11F8A5"/>
<path d="M68.4131 43.1117C58.7048 33.4033 58.7048 17.6083 68.4131 7.89993C78.1215 -1.80844 93.9165 -1.80844 103.625 7.89993C113.333 17.6083 113.333 33.4033 103.625 43.1117C93.9165 52.82 78.1215 52.82 68.4131 43.1117ZM102.451 9.07334C93.39 0.0118791 78.648 0.0118791 69.5889 9.07334C60.5274 18.1348 60.5274 32.8768 69.5889 41.9359C78.6504 50.9974 93.3924 50.9974 102.451 41.9359C111.513 32.8744 111.513 18.1324 102.451 9.07334Z" fill="white"/>
<path d="M102.722 20.2243C102.635 20.1369 102.564 20.026 102.524 19.9032C101.662 17.3533 100.255 15.0939 98.3427 13.1815C96.4327 11.2714 94.1709 9.86429 91.621 9.00017C91.2834 8.88448 91.0567 8.57047 91.0567 8.21397V2.16276C91.0567 1.90777 91.1748 1.66695 91.3755 1.50876C91.5785 1.35058 91.8406 1.29628 92.0861 1.35766C96.4445 2.44844 100.435 4.71026 103.622 7.89995C106.809 11.0896 109.071 15.0773 110.162 19.4357C110.223 19.6836 110.167 19.9457 110.011 20.1487C109.853 20.3518 109.612 20.4675 109.357 20.4675H103.306C103.079 20.4675 102.871 20.3754 102.718 20.2219L102.722 20.2243ZM99.5161 12.0081C101.466 13.9582 102.937 16.2437 103.896 18.8077H108.273C107.173 15.1435 105.173 11.7956 102.451 9.07336C99.7286 6.35114 96.3808 4.35139 92.7189 3.25353V7.6308C95.2829 8.587 97.5683 10.0579 99.5185 12.0104L99.5161 12.0081Z" fill="white"/>
<path d="M68.4128 43.1117C65.2255 39.9244 62.9613 35.9343 61.8705 31.5759C61.8091 31.328 61.8658 31.0659 62.0216 30.8653C62.1798 30.6622 62.4206 30.5465 62.6756 30.5465H68.7268C69.0833 30.5465 69.3997 30.7732 69.513 31.1108C70.3748 33.6607 71.7819 35.9201 73.6943 37.8325C75.6043 39.7426 77.8662 41.1497 80.4161 42.0138C80.7537 42.1271 80.9803 42.4435 80.9803 42.8V48.8512C80.9803 49.1062 80.8623 49.347 80.6616 49.5052C80.4585 49.6634 80.1965 49.7177 79.9486 49.6563C75.5902 48.5656 71.6025 46.3037 68.4128 43.1164V43.1117ZM63.764 32.2039C64.8642 35.8682 66.864 39.216 69.5862 41.9383C72.3084 44.6605 75.6563 46.6602 79.3206 47.7605V43.3832C76.7565 42.427 74.4711 40.9561 72.5209 39.0059C70.5707 37.0558 69.0998 34.7703 68.1413 32.2063H63.764V32.2039Z" fill="white"/>
<path d="M91.2999 49.4343C91.1441 49.2785 91.0567 49.0684 91.0567 48.8465V42.7953C91.0567 42.4387 91.2834 42.1224 91.621 42.0091C94.1709 41.1473 96.4303 39.7401 98.3427 37.8277C100.255 35.9153 101.66 33.6559 102.524 31.106C102.637 30.7684 102.954 30.5417 103.31 30.5417H109.361C109.616 30.5417 109.857 30.6598 110.015 30.8605C110.174 31.0612 110.228 31.3256 110.167 31.5711C109.073 35.9295 106.812 39.9172 103.624 43.1069C100.437 46.2966 96.4469 48.5584 92.0885 49.6492C91.8406 49.7106 91.5785 49.6539 91.3778 49.4981C91.3519 49.4745 91.3259 49.4532 91.3023 49.4296L91.2999 49.4343ZM92.7165 43.3808V47.758C96.3808 46.6578 99.7286 44.6581 102.451 41.9359C105.173 39.2136 107.17 35.8658 108.273 32.2015H103.896C102.94 34.7655 101.469 37.0486 99.5161 39.0011C97.566 40.9513 95.2805 42.4246 92.7165 43.3808Z" fill="white"/>
<path d="M62.088 20.2242C62.0644 20.2006 62.0407 20.1746 62.0219 20.1486C61.8637 19.9479 61.8094 19.6835 61.8708 19.4356C62.9615 15.0772 65.2234 11.0872 68.413 7.89982C71.6027 4.71249 75.5904 2.44831 79.9488 1.35754C80.1967 1.29615 80.4588 1.35281 80.6595 1.50864C80.8601 1.66682 80.9782 1.90765 80.9782 2.16263V8.21384C80.9782 8.57035 80.7516 8.88672 80.4139 9.00004C77.8641 9.8618 75.6046 11.2689 73.6922 13.1813C71.7822 15.0914 70.375 17.3532 69.5109 19.9031C69.3976 20.2407 69.0812 20.4674 68.7247 20.4674H62.6735C62.4516 20.4674 62.2391 20.38 62.0856 20.2265L62.088 20.2242ZM79.3184 3.25341C75.6542 4.35363 72.3063 6.35338 69.5841 9.0756C66.8619 11.7978 64.8645 15.1457 63.7619 18.8099H68.1392C69.0954 16.2459 70.5663 13.9628 72.5188 12.0103C74.469 10.0601 76.7544 8.58924 79.3184 7.63068V3.25341Z" fill="white"/>
<path d="M99.518 12.008C92.0762 4.56621 79.9644 4.56385 72.5225 12.008C65.0783 19.4522 65.0807 31.5617 72.5225 39.0035C79.9644 46.4454 92.0738 46.4477 99.518 39.0035C106.962 31.5594 106.96 19.4499 99.518 12.008Z" fill="white"/>
<path d="M92.9023 32.3191L79.19 32.4101C78.6124 32.4139 78.1472 32.8853 78.1511 33.4629L78.1543 33.9516C78.1581 34.5292 78.6295 34.9944 79.2072 34.9906L92.9194 34.8996C93.4971 34.8958 93.9622 34.4244 93.9584 33.8468L93.9552 33.3581C93.9513 32.7804 93.48 32.3153 92.9023 32.3191Z" fill="#191D0A"/>
<path d="M81.0583 24.042C80.9095 24.042 80.7584 24.0089 80.6215 23.9428L79.552 23.4257C79.0868 23.1991 78.8743 22.649 79.0679 22.1697L79.559 20.9467C79.7102 20.5737 80.0667 20.3305 80.468 20.3281C80.6404 20.3281 80.8104 20.3706 80.9615 20.458L82.2364 21.1852C82.4749 21.3197 82.6472 21.5535 82.7086 21.8226C82.77 22.0918 82.7157 22.3751 82.5599 22.6018L81.861 23.6146C81.6792 23.879 81.377 24.0396 81.0559 24.0396L81.0583 24.042Z" fill="#191D0A"/>
<path d="M90.9306 23.9759C90.6095 23.9759 90.3049 23.8225 90.1208 23.5604L89.429 22.5853C89.2684 22.361 89.2118 22.0777 89.2684 21.8085C89.3251 21.5394 89.4951 21.3033 89.7335 21.164L91.0486 20.392C91.1973 20.3046 91.3674 20.2574 91.5397 20.255C91.9411 20.2527 92.3023 20.4911 92.4581 20.8618L92.9539 22.0494C93.1523 22.5263 92.9469 23.0811 92.4865 23.3125L91.3674 23.872C91.2328 23.9382 91.0817 23.9759 90.9329 23.9759H90.9306Z" fill="#191D0A"/>
<path d="M79.981 31.4932C79.379 31.4979 78.8383 31.1201 78.6329 30.5535L76.3451 24.2568C76.1987 24.3276 76.0429 24.3819 75.8847 24.422C75.6982 24.4693 75.5093 24.4929 75.3181 24.4929C75.2071 24.4929 75.0985 24.4881 74.9923 24.474C73.8 24.3229 72.8957 23.3006 72.8886 22.0965C72.8792 20.7649 73.9558 19.6741 75.2874 19.6646C76.619 19.6552 77.7098 20.7318 77.7168 22.0634C77.7168 22.3703 77.6649 22.6655 77.5563 22.9417C77.4973 23.0928 77.4241 23.2368 77.3391 23.3738L81.6904 25.4798L85.0194 20.6563C84.8801 20.5972 84.7455 20.524 84.618 20.4367C84.3772 20.2738 84.1671 20.0707 83.9971 19.8323C83.709 19.4262 83.5532 18.9469 83.5508 18.4511C83.5414 17.1195 84.618 16.0287 85.9496 16.0193C86.0086 16.0193 86.07 16.0193 86.129 16.024C87.3213 16.1043 88.2846 17.0605 88.372 18.2528C88.4121 18.8171 88.2634 19.3577 87.9423 19.8181C87.7723 20.0589 87.5645 20.2643 87.326 20.4272C87.2009 20.5146 87.0663 20.5878 86.9271 20.6468L90.3151 25.4207L94.5955 23.2793C94.5153 23.1259 94.4515 22.9653 94.4043 22.7977C94.3476 22.5946 94.3169 22.3821 94.3169 22.1673C94.3169 22.0705 94.3217 21.9737 94.3311 21.8793C94.468 20.6657 95.4927 19.7449 96.7133 19.7378C98.0449 19.7284 99.1357 20.805 99.1428 22.1366C99.1522 23.4068 98.1653 24.474 96.8975 24.5613L96.7464 24.566C96.5008 24.566 96.26 24.533 96.0263 24.4622C95.8752 24.4149 95.7288 24.3559 95.5919 24.2804L93.4434 30.4544C93.2474 31.0234 92.7091 31.4058 92.107 31.4105L79.981 31.4908V31.4932Z" fill="#191D0A"/>
<path d="M25.8076 0.809438L85.3813 0.809438C85.8739 0.809438 86.2679 1.20868 86.2679 1.69606C86.2679 2.18343 85.8687 2.58264 85.3813 2.58264L25.8076 2.58264C25.315 2.58264 24.921 2.18343 24.921 1.69606C24.921 1.20868 25.3202 0.809438 25.8076 0.809438Z" fill="white"/>
<path d="M25.678 48.402L85.2517 48.402C85.7443 48.402 86.1383 48.8012 86.1383 49.2886C86.1383 49.7759 85.7391 50.1752 85.2517 50.1752L25.678 50.1752C25.1854 50.1752 24.7914 49.7759 24.7914 49.2886C24.7914 48.8012 25.1906 48.402 25.678 48.402Z" fill="white"/>
<path d="M24.3607 1.01046C24.8468 1.01046 25.2357 1.40446 25.2357 1.88543C25.2357 2.3664 24.8417 2.7604 24.3607 2.7604C11.8964 2.7604 1.75504 12.9018 1.75504 25.3661C1.75504 37.8305 11.8964 47.9718 24.3607 47.9718C24.8468 47.9718 25.2357 48.3658 25.2357 48.8468C25.2357 49.3278 24.8417 49.7217 24.3607 49.7217C10.9293 49.7217 1.31431e-06 38.7924 1.90142e-06 25.361C2.48853e-06 11.9296 10.9293 1.00024 24.3607 1.00024L24.3607 1.01046Z" fill="white"/>
</g>
</svg>
