<svg width="684" height="50" viewBox="0 0 684 50" fill="none" xmlns="http://www.w3.org/2000/svg">
<g opacity="0.2">
<path d="M646.02 49.9136C639.634 49.9136 633.253 47.4849 628.391 42.6223C618.671 32.9023 618.671 17.0896 628.391 7.36965C633.101 2.65883 639.362 0.0678711 646.02 0.0678711C652.677 0.0678711 658.938 2.65883 663.648 7.36965C673.368 17.0896 673.368 32.9023 663.648 42.6223C658.791 47.4797 652.405 49.9136 646.02 49.9136ZM629.699 41.3138C638.697 50.3114 653.337 50.3114 662.335 41.3138C671.332 32.3161 671.332 17.6759 662.335 8.67821C657.975 4.31809 652.18 1.92081 646.014 1.92081C639.848 1.92081 634.054 4.32332 629.694 8.67821C620.696 17.6759 620.696 32.3161 629.694 41.3138H629.699Z" fill="#EBF29D"/>
<path d="M645.69 34.3207C645.779 34.5353 645.988 34.6609 646.208 34.6609C646.281 34.6609 646.355 34.6452 646.428 34.619C648.187 33.881 649.788 32.7399 651.055 31.3162C651.259 31.0859 651.238 30.73 651.008 30.5259C650.777 30.3217 650.422 30.3426 650.217 30.573C649.061 31.8763 647.6 32.9179 645.993 33.5879C645.711 33.7083 645.575 34.038 645.695 34.3207H645.69Z" fill="#EBF29D"/>
<path d="M655.519 16.3778L646.223 12.6614C646.087 12.6091 645.94 12.6091 645.804 12.6614L636.508 16.3778C636.293 16.4615 636.157 16.6657 636.157 16.896V23.5539C636.168 29.6989 640.052 35.2525 645.82 37.3671C645.883 37.388 645.945 37.3985 646.013 37.3985C646.081 37.3985 646.144 37.388 646.207 37.3671C651.975 35.2472 655.859 29.6989 655.87 23.5539V16.896C655.87 16.6657 655.733 16.4615 655.519 16.3778ZM654.749 23.5539C654.739 29.1441 651.232 34.237 646.019 36.2417C640.805 34.237 637.293 29.1441 637.283 23.5539V17.2781L646.019 13.7868L654.749 17.2781V23.5539Z" fill="#EBF29D"/>
<path d="M642.135 17.2517C641.999 17.1941 641.847 17.1941 641.706 17.2517L639.492 18.1363C639.277 18.22 639.141 18.4242 639.141 18.6545V21.0151C639.141 21.324 639.392 21.5752 639.701 21.5752C640.01 21.5752 640.261 21.324 640.261 21.0151V19.0366L642.119 18.2934C642.261 18.2358 642.365 18.131 642.428 17.9897C642.486 17.8536 642.486 17.7019 642.428 17.5605C642.371 17.4192 642.266 17.3145 642.13 17.2517H642.135Z" fill="#EBF29D"/>
<path d="M660.178 10.8399C656.399 7.05554 651.369 4.97754 646.019 4.97754C640.67 4.97754 635.645 7.06078 631.861 10.8399C624.057 18.6442 624.057 31.3477 631.861 39.1572C635.766 43.0619 640.89 45.009 646.019 45.009C651.149 45.009 656.273 43.0567 660.178 39.1572C667.982 31.3529 667.982 18.6494 660.178 10.8399ZM657.409 23.5539C657.425 30.6567 652.887 36.8698 646.119 39.0211C646.056 39.042 645.988 39.042 645.92 39.0211C639.152 36.8698 634.614 30.6567 634.63 23.5539V15.6973C634.63 15.5664 634.708 15.446 634.834 15.3937L645.899 10.9708C645.936 10.9551 645.978 10.9498 646.019 10.9498C646.061 10.9498 646.103 10.9551 646.14 10.9708L657.205 15.3989C657.331 15.446 657.409 15.5664 657.409 15.7025V23.5591V23.5539Z" fill="#EBF29D"/>
<path d="M582.358 49.9056C568.618 49.9056 557.443 38.7252 557.443 24.9906C557.443 11.2559 568.624 0.0755615 582.358 0.0755615C596.093 0.0755615 607.273 11.2559 607.273 24.9906C607.273 38.7252 596.093 49.9056 582.358 49.9056ZM582.358 1.73481C569.534 1.73481 559.102 12.1667 559.102 24.9906C559.102 37.8145 569.534 48.2463 582.358 48.2463C595.182 48.2463 605.614 37.8145 605.614 24.9906C605.614 12.1667 595.182 1.73481 582.358 1.73481Z" fill="#DA7DB5"/>
<path d="M598.617 7.21219L590.904 14.9254L592.421 16.4429L600.135 8.72968L598.617 7.21219Z" fill="#DA7DB5"/>
<path d="M572.065 33.7633L564.352 41.4766L565.869 42.994L573.582 35.2808L572.065 33.7633Z" fill="#DA7DB5"/>
<path d="M592.647 33.7671L591.13 35.2845L598.843 42.9978L600.361 41.4803L592.647 33.7671Z" fill="#DA7DB5"/>
<path d="M565.867 6.98351L564.35 8.50098L572.059 16.2105L573.577 14.693L565.867 6.98351Z" fill="#DA7DB5"/>
<path d="M588.435 25.6605C588.937 25.158 588.937 24.3467 588.435 23.8494L587.367 22.7869C586.865 22.2844 586.053 22.2844 585.556 22.7869L584.98 23.3627L584.316 22.6979C583.813 22.1954 583.002 22.1954 582.505 22.6979L581.929 23.2789L581.264 22.6089C580.762 22.1064 579.95 22.1064 579.453 22.6089L575.92 26.142C575.894 26.1682 575.894 26.2101 575.92 26.2415C576.391 26.7126 577.16 26.7126 577.637 26.2415L579.914 23.9646C580.16 23.7186 580.557 23.7186 580.803 23.9646L580.971 24.1321C581.002 24.1635 581.002 24.2106 580.971 24.242L579.071 26.142C579.045 26.1682 579.045 26.2101 579.071 26.2415C579.542 26.7126 580.311 26.7126 580.788 26.2415L582.97 24.0588C583.216 23.8128 583.614 23.8128 583.86 24.0588L584.028 24.2263C584.054 24.2525 584.054 24.2944 584.028 24.3258L582.196 26.1578C582.17 26.1839 582.17 26.2258 582.196 26.2572C582.667 26.7283 583.436 26.7283 583.913 26.2572L586.022 24.1478C586.268 23.9018 586.666 23.9018 586.912 24.1478L587.273 24.509C587.414 24.6503 587.414 24.8858 587.273 25.0271L587.215 25.0847C587.074 25.226 586.838 25.226 586.697 25.0847L586.231 24.6189C586.205 24.5927 586.163 24.5927 586.132 24.6189L585.326 25.4249C585.3 25.4511 585.3 25.493 585.326 25.5244L586.053 26.252C586.556 26.7545 587.367 26.7545 587.864 26.252L588.44 25.6762L588.435 25.6605Z" fill="#DA7DB5"/>
<path d="M582.359 5.88538C571.806 5.88538 563.254 14.4381 563.254 24.9904C563.254 35.5426 571.806 44.0954 582.359 44.0954C592.911 44.0954 601.464 35.5426 601.464 24.9904C601.464 14.4381 592.911 5.88538 582.359 5.88538ZM583.139 11.7844C586.206 11.9623 588.991 13.1872 591.147 15.1029L588.389 17.8613C586.949 16.6418 585.133 15.8514 583.139 15.6839V11.7844ZM581.584 11.7844V15.6839C579.59 15.8462 577.774 16.6418 576.334 17.8613L573.576 15.1029C575.732 13.1872 578.517 11.9623 581.584 11.7844ZM572.476 16.2021L575.235 18.9605C574.015 20.4 573.225 22.2162 573.057 24.2105H569.158C569.336 21.1432 570.561 18.3586 572.476 16.2021ZM569.158 25.7651H573.057C573.22 27.7593 574.015 29.5756 575.235 31.015L572.476 33.7735C570.561 31.6169 569.336 28.8323 569.158 25.7651ZM581.584 38.1912C578.517 38.0132 575.732 36.7884 573.576 34.8726L576.334 32.1142C577.774 33.3338 579.59 34.1241 581.584 34.2916V38.1912ZM574.329 24.9851C574.329 20.5517 577.925 16.9558 582.359 16.9558C586.792 16.9558 590.388 20.5517 590.388 24.9851C590.388 29.4185 586.792 33.0145 582.359 33.0145C577.925 33.0145 574.329 29.4185 574.329 24.9851ZM583.139 38.1912V34.2916C585.133 34.1294 586.949 33.3338 588.389 32.1142L591.147 34.8726C588.991 36.7884 586.206 38.0132 583.139 38.1912ZM592.246 33.7735L589.488 31.015C590.707 29.5756 591.498 27.7593 591.665 25.7651H595.565C595.387 28.8323 594.162 31.6169 592.246 33.7735ZM591.665 24.2105C591.503 22.2162 590.707 20.4 589.488 18.9605L592.246 16.2021C594.162 18.3586 595.387 21.1432 595.565 24.2105H591.665Z" fill="#DA7DB5"/>
<path d="M520.271 49.8299C506.532 49.8299 495.356 38.6495 495.356 24.9149C495.356 11.1802 506.537 -0.00012207 520.271 -0.00012207C534.006 -0.00012207 545.187 11.1802 545.187 24.9149C545.187 38.6495 534.006 49.8299 520.271 49.8299ZM520.271 1.65913C507.448 1.65913 497.016 12.091 497.016 24.9149C497.016 37.7388 507.448 48.1706 520.271 48.1706C533.095 48.1706 543.527 37.7388 543.527 24.9149C543.527 12.091 533.095 1.65913 520.271 1.65913Z" fill="#EBF29D"/>
<path d="M528.355 9.35883C528.229 9.35883 528.103 9.33264 527.988 9.27507C525.575 8.08166 522.979 7.47449 520.273 7.47449C517.567 7.47449 514.971 8.08166 512.558 9.27507C512.238 9.4321 511.856 9.36929 511.605 9.11805L507.324 4.83644C507.14 4.65324 507.057 4.40199 507.088 4.14551C507.119 3.88904 507.266 3.66397 507.486 3.53312C511.343 1.21958 515.766 0 520.278 0C524.79 0 529.213 1.22481 533.071 3.53312C533.291 3.66397 533.437 3.88904 533.469 4.14551C533.5 4.40199 533.411 4.65324 533.233 4.83644L528.951 9.11805C528.789 9.27507 528.58 9.35883 528.36 9.35883H528.355ZM520.273 5.81524C523.031 5.81524 525.69 6.39102 528.182 7.52685L531.281 4.42815C527.91 2.61187 524.125 1.65925 520.273 1.65925C516.421 1.65925 512.636 2.61187 509.265 4.42815L512.364 7.52685C514.856 6.39102 517.515 5.81524 520.273 5.81524Z" fill="#EBF29D"/>
<path d="M520.272 49.8298C515.76 49.8298 511.337 48.605 507.48 46.2967C507.26 46.1658 507.113 45.9408 507.082 45.6843C507.05 45.4278 507.139 45.1766 507.317 44.9934L511.599 40.7117C511.85 40.4605 512.237 40.3977 512.552 40.5547C514.965 41.7481 517.561 42.3553 520.267 42.3553C522.973 42.3553 525.569 41.7481 527.982 40.5547C528.301 40.3977 528.683 40.4605 528.935 40.7117L533.216 44.9934C533.4 45.1766 533.483 45.4278 533.452 45.6843C533.42 45.9408 533.274 46.1658 533.054 46.2967C529.196 48.6102 524.774 49.8298 520.262 49.8298H520.272ZM509.264 45.4016C512.635 47.2179 516.42 48.1705 520.272 48.1705C524.124 48.1705 527.909 47.2179 531.28 45.4016L528.181 42.303C525.689 43.4388 523.03 44.0146 520.272 44.0146C517.514 44.0146 514.855 43.4388 512.363 42.303L509.264 45.4016Z" fill="#EBF29D"/>
<path d="M540.942 38.1106C540.722 38.1106 540.513 38.0268 540.356 37.8698L536.074 33.5882C535.823 33.337 535.76 32.9496 535.917 32.6356C537.111 30.2226 537.718 27.6264 537.718 24.9203C537.718 22.2142 537.111 19.618 535.917 17.205C535.76 16.8857 535.823 16.4984 536.074 16.2524L540.356 11.9708C540.539 11.7876 540.79 11.7038 541.047 11.7352C541.303 11.7666 541.528 11.9132 541.659 12.133C543.973 15.9907 545.192 20.4136 545.192 24.9255C545.192 29.4374 543.973 33.8604 541.659 37.718C541.528 37.9379 541.303 38.0844 541.047 38.1158C541.01 38.1158 540.979 38.1158 540.942 38.1158V38.1106ZM537.66 32.824L540.759 35.9227C542.575 32.5518 543.528 28.7675 543.528 24.9151C543.528 21.0626 542.575 17.2783 540.759 13.9074L537.66 17.0061C538.796 19.4976 539.372 22.1566 539.372 24.9151C539.372 27.6735 538.796 30.3325 537.66 32.824Z" fill="#EBF29D"/>
<path d="M499.601 38.1106C499.565 38.1106 499.533 38.1106 499.502 38.1053C499.245 38.0739 499.02 37.9274 498.889 37.7075C496.576 33.8499 495.356 29.4269 495.356 24.915C495.356 20.4031 496.576 15.9802 498.889 12.1225C499.02 11.9027 499.245 11.7561 499.502 11.7247C499.758 11.6933 500.009 11.7823 500.193 11.9603L504.474 16.2419C504.725 16.4931 504.788 16.8805 504.631 17.1945C503.438 19.6075 502.831 22.2037 502.831 24.9098C502.831 27.6159 503.438 30.2121 504.631 32.6251C504.788 32.9443 504.725 33.3317 504.474 33.5777L500.193 37.8593C500.036 38.0163 499.826 38.1053 499.606 38.1053L499.601 38.1106ZM499.784 13.9074C497.968 17.2783 497.015 21.0626 497.015 24.915C497.015 28.7674 497.968 32.5518 499.784 35.9227L502.883 32.824C501.747 30.3325 501.171 27.6735 501.171 24.915C501.171 22.1566 501.747 19.4976 502.883 17.0061L499.784 13.9074Z" fill="#EBF29D"/>
<path d="M520.272 5.80994C509.741 5.80994 501.167 14.3784 501.167 24.9149C501.167 35.4515 509.735 44.0199 520.272 44.0199C530.808 44.0199 539.377 35.4515 539.377 24.9149C539.377 14.3784 530.808 5.80994 520.272 5.80994ZM531.023 18.6391C531.929 20.1884 532.478 21.8791 532.656 23.6744C532.661 23.7477 532.63 23.8158 532.567 23.8524C531.201 24.6899 529.976 25.7158 528.919 26.9144C528.872 26.972 528.793 26.9929 528.725 26.9667L526.365 26.1973C526.296 26.1764 526.249 26.1188 526.239 26.0455C525.972 24.0932 525.365 22.2245 524.433 20.4867C524.402 20.4239 524.407 20.3507 524.449 20.2931L525.909 18.2832C525.946 18.236 526.003 18.2046 526.061 18.2046C526.077 18.2046 526.087 18.2046 526.103 18.2046C527.663 18.5501 529.264 18.6652 530.855 18.5344C530.929 18.5292 530.997 18.5658 531.033 18.6286L531.023 18.6391ZM524.951 26.3753C524.956 26.4276 524.941 26.48 524.909 26.5166C523.669 27.9456 522.088 29.0919 520.345 29.8247C520.298 29.8456 520.251 29.8456 520.204 29.8247C518.461 29.0866 516.88 27.9403 515.64 26.5166C515.608 26.48 515.592 26.4276 515.598 26.3753C515.838 24.4805 516.43 22.6694 517.346 20.9945C517.372 20.9474 517.414 20.916 517.466 20.9055C518.388 20.7118 519.33 20.6124 520.277 20.6124C521.224 20.6124 522.167 20.7118 523.088 20.9055C523.14 20.916 523.182 20.9474 523.208 20.9945C524.124 22.6694 524.71 24.4805 524.956 26.3753H524.951ZM524.669 13.3839C524.669 13.3839 524.731 13.3315 524.794 13.3315C524.815 13.3315 524.841 13.3316 524.868 13.3473C526.794 14.1115 528.516 15.3677 529.856 16.9746C529.924 17.0531 529.898 17.1369 529.882 17.1683C529.871 17.1944 529.824 17.2782 529.714 17.2782C528.526 17.2939 527.343 17.1578 526.197 16.8856C526.15 16.8751 526.108 16.8437 526.082 16.8019C525.469 15.7916 524.977 14.7029 524.621 13.5723C524.59 13.4729 524.648 13.4048 524.674 13.3839H524.669ZM517.629 12.7558C519.361 12.3842 521.188 12.3842 522.92 12.7558C522.988 12.7715 523.046 12.8238 523.062 12.8919C523.433 14.4465 524.035 15.933 524.847 17.3096C524.883 17.3724 524.878 17.4509 524.836 17.5137L523.386 19.5132C523.344 19.5708 523.271 19.6022 523.203 19.5865C521.287 19.1991 519.262 19.1991 517.346 19.5865C517.278 19.6022 517.205 19.5708 517.163 19.5132L515.713 17.5137C515.671 17.4561 515.666 17.3724 515.702 17.3096C516.514 15.933 517.116 14.4465 517.487 12.8919C517.503 12.8238 517.561 12.7715 517.629 12.7558ZM510.693 16.9746C512.033 15.3624 513.755 14.1062 515.681 13.3473C515.708 13.3368 515.734 13.3315 515.755 13.3315C515.823 13.3315 515.865 13.3682 515.88 13.3839C515.906 13.4101 515.964 13.4729 515.933 13.5723C515.577 14.7082 515.085 15.7916 514.472 16.8019C514.446 16.8437 514.404 16.8751 514.357 16.8856C513.211 17.1578 512.028 17.2939 510.84 17.2782C510.73 17.2782 510.683 17.1944 510.672 17.1683C510.657 17.1369 510.63 17.0531 510.698 16.9746H510.693ZM509.526 18.6391C509.557 18.5815 509.62 18.5449 509.688 18.5449C509.688 18.5449 509.699 18.5449 509.704 18.5449C511.3 18.6705 512.902 18.5606 514.457 18.2151C514.53 18.1994 514.603 18.2256 514.645 18.2884L516.105 20.2983C516.147 20.3559 516.152 20.4344 516.121 20.492C515.189 22.2298 514.582 24.0984 514.315 26.0508C514.305 26.1188 514.258 26.1764 514.19 26.2026L511.829 26.972C511.761 26.9929 511.682 26.972 511.635 26.9197C510.578 25.721 509.353 24.6951 507.987 23.8576C507.93 23.821 507.893 23.7529 507.898 23.6797C508.076 21.8843 508.626 20.1884 509.531 18.6443L509.526 18.6391ZM510.096 31.5363C510.065 31.6357 509.976 31.6566 509.939 31.6619C509.903 31.6619 509.819 31.6619 509.761 31.5781C508.647 29.8246 507.987 27.7938 507.856 25.7105C507.851 25.6059 507.919 25.5535 507.95 25.5378C507.982 25.5221 508.066 25.4855 508.149 25.5483C509.118 26.234 509.997 27.04 510.766 27.9351C510.798 27.9717 510.814 28.0189 510.808 28.0712C510.714 29.2489 510.473 30.4161 510.091 31.5415L510.096 31.5363ZM515.268 36.3151C513.635 35.598 512.195 34.5459 510.992 33.1955C510.944 33.1432 510.929 33.0647 510.955 33.0018C511.567 31.5258 511.955 29.9712 512.106 28.38C512.112 28.3067 512.164 28.2439 512.232 28.223L514.567 27.464C514.567 27.464 514.603 27.4535 514.624 27.4535C514.676 27.4535 514.724 27.4745 514.76 27.5164C516.069 28.982 517.707 30.1753 519.502 30.9657C519.57 30.9971 519.612 31.0599 519.612 31.1332V33.5881C519.612 33.6614 519.57 33.7294 519.502 33.7556C518.037 34.3889 516.676 35.2421 515.456 36.2837C515.404 36.3308 515.325 36.3413 515.263 36.3099L515.268 36.3151ZM523.501 36.8333C523.496 36.87 523.47 36.9537 523.365 36.9799C521.345 37.4928 519.209 37.4928 517.189 36.9799C517.089 36.9537 517.058 36.87 517.053 36.8333C517.048 36.7967 517.037 36.7129 517.126 36.6449C518.079 35.9383 519.115 35.3468 520.209 34.8914C520.256 34.8705 520.303 34.8705 520.35 34.8914C521.439 35.3468 522.475 35.9383 523.433 36.6449C523.517 36.7077 523.512 36.7967 523.507 36.8333H523.501ZM529.568 33.2008C528.364 34.5512 526.925 35.598 525.291 36.3151C525.223 36.3465 525.15 36.3308 525.098 36.2889C523.878 35.2473 522.523 34.3942 521.052 33.7608C520.984 33.7294 520.942 33.6666 520.942 33.5933V31.1385C520.942 31.0652 520.984 30.9971 521.052 30.971C522.847 30.1806 524.491 28.9872 525.794 27.5216C525.831 27.4797 525.878 27.4588 525.93 27.4588C525.951 27.4588 525.967 27.4588 525.988 27.4692L528.322 28.2282C528.39 28.2492 528.442 28.312 528.448 28.3852C528.6 29.9765 528.987 31.5258 529.599 33.0071C529.625 33.0699 529.615 33.1484 529.563 33.2008H529.568ZM530.793 31.5834C530.735 31.6723 530.646 31.6724 530.615 31.6671C530.578 31.6671 530.494 31.641 530.458 31.5415C530.081 30.4161 529.84 29.2489 529.741 28.0712C529.741 28.0241 529.751 27.9717 529.782 27.9351C530.552 27.04 531.431 26.2392 532.4 25.5483C532.436 25.5221 532.473 25.5116 532.504 25.5116C532.546 25.5116 532.578 25.5273 532.598 25.5378C532.63 25.5535 532.703 25.6059 532.693 25.7105C532.562 27.7938 531.902 29.8246 530.787 31.5781L530.793 31.5834Z" fill="#EBF29D"/>
<path d="M458.762 0.159528C472.502 0.159528 483.682 11.3399 483.682 25.0798C483.682 38.8197 472.502 50 458.762 50C445.022 50 433.842 38.8197 433.842 25.0798C433.842 11.3399 445.022 0.159528 458.762 0.159528ZM458.762 48.2047C471.512 48.2047 481.887 37.8304 481.887 25.0798C481.887 12.3291 471.512 1.95487 458.762 1.95487C446.011 1.95487 435.637 12.3291 435.637 25.0798C435.637 37.8304 446.011 48.2047 458.762 48.2047Z" fill="#11F8A5"/>
<path d="M397.846 0.158288C398.343 0.158288 398.741 0.561305 398.741 1.05332C398.741 1.54534 398.338 1.94839 397.846 1.94839C385.095 1.94839 374.721 12.3227 374.721 25.0733C374.721 37.8239 385.095 48.1982 397.846 48.1982C398.343 48.1982 398.741 48.6012 398.741 49.0932C398.741 49.5853 398.338 49.9883 397.846 49.9883C384.106 49.9883 372.925 38.8079 372.925 25.068C372.925 11.3282 384.106 0.147809 397.846 0.147809V0.158288Z" fill="#11F8A5"/>
<path d="M453.967 20.6719C453.967 21.5879 454.59 22.3835 455.48 22.6033L457.171 23.0273V18.6776H455.967C454.868 18.6776 453.973 19.5727 453.973 20.6719H453.967Z" fill="#11F8A5"/>
<path d="M460.363 31.4701H461.566C462.666 31.4701 463.561 30.5751 463.561 29.4759C463.561 28.5599 462.938 27.7643 462.048 27.5445L460.357 27.1205V31.4701H460.363Z" fill="#11F8A5"/>
<path d="M458.767 4.79651C447.587 4.79651 438.484 13.8936 438.484 25.0792C438.484 36.2648 447.581 45.3619 458.767 45.3619C469.953 45.3619 479.05 36.2648 479.05 25.0792C479.05 13.8936 469.953 4.79651 458.767 4.79651ZM466.765 21.8759H463.567V20.2742C463.567 19.3948 462.85 18.6725 461.965 18.6725H460.363V23.823L462.829 24.4407C465.142 25.0217 466.76 27.0892 466.76 29.476C466.76 32.3391 464.431 34.6684 461.567 34.6684H460.363V38.7197H457.165V34.6684H455.564C452.915 34.6684 450.764 32.5171 450.764 29.8686V28.2669H453.962V29.8686C453.962 30.7479 454.679 31.4702 455.564 31.4702H457.165V26.3197L454.7 25.7021C452.386 25.1211 450.769 23.0536 450.769 20.6667C450.769 17.8036 453.098 15.4744 455.961 15.4744H457.165V11.4231H460.363V15.4744H461.965C464.614 15.4744 466.765 17.6257 466.765 20.2742V21.8759Z" fill="#11F8A5"/>
<path d="M397.464 0.128354L457.605 0.128354C458.102 0.128354 458.5 0.53137 458.5 1.02339C458.5 1.51541 458.097 1.91846 457.605 1.91846L397.464 1.91846C396.966 1.91846 396.569 1.51541 396.569 1.02339C396.569 0.53137 396.972 0.128354 397.464 0.128354Z" fill="#11F8A5"/>
<path d="M397.333 48.1707L457.474 48.1707C457.971 48.1707 458.369 48.5738 458.369 49.0658C458.369 49.5578 457.966 49.9608 457.474 49.9608L397.333 49.9608C396.835 49.9608 396.438 49.5578 396.438 49.0658C396.438 48.5738 396.841 48.1707 397.333 48.1707Z" fill="#11F8A5"/>
<path d="M332.618 49.9136C326.232 49.9136 319.851 47.4849 314.989 42.6223C305.269 32.9023 305.269 17.0896 314.989 7.36965C319.699 2.65883 325.96 0.0678711 332.618 0.0678711C339.276 0.0678711 345.536 2.65883 350.247 7.36965C359.967 17.0896 359.967 32.9023 350.247 42.6223C345.389 47.4797 339.003 49.9136 332.618 49.9136ZM316.297 41.3138C325.295 50.3114 339.935 50.3114 348.933 41.3138C357.93 32.3161 357.93 17.6759 348.933 8.67821C344.573 4.31809 338.778 1.92081 332.612 1.92081C326.446 1.92081 320.652 4.32332 316.292 8.67821C307.294 17.6759 307.294 32.3161 316.292 41.3138H316.297Z" fill="#EBF29D"/>
<path d="M332.288 34.3207C332.377 34.5353 332.586 34.6609 332.806 34.6609C332.879 34.6609 332.953 34.6452 333.026 34.619C334.785 33.881 336.386 32.7399 337.653 31.3162C337.857 31.0859 337.836 30.73 337.606 30.5259C337.376 30.3217 337.02 30.3426 336.816 30.573C335.659 31.8763 334.198 32.9179 332.592 33.5879C332.309 33.7083 332.173 34.038 332.293 34.3207H332.288Z" fill="#EBF29D"/>
<path d="M342.117 16.378L332.821 12.6617C332.685 12.6094 332.538 12.6094 332.402 12.6617L323.106 16.378C322.892 16.4618 322.756 16.6659 322.756 16.8962V23.5542C322.766 29.6992 326.65 35.2527 332.418 37.3673C332.481 37.3883 332.544 37.3988 332.612 37.3988C332.68 37.3988 332.742 37.3883 332.805 37.3673C338.573 35.2475 342.457 29.6992 342.468 23.5542V16.8962C342.468 16.6659 342.332 16.4618 342.117 16.378ZM341.348 23.5542C341.337 29.1443 337.83 34.2372 332.617 36.242C327.404 34.2372 323.891 29.1443 323.881 23.5542V17.2783L332.617 13.7871L341.348 17.2783V23.5542Z" fill="#EBF29D"/>
<path d="M328.733 17.2519C328.597 17.1943 328.445 17.1943 328.304 17.2519L326.09 18.1365C325.875 18.2203 325.739 18.4244 325.739 18.6547V21.0154C325.739 21.3242 325.991 21.5754 326.299 21.5754C326.608 21.5754 326.859 21.3242 326.859 21.0154V19.0368L328.718 18.2936C328.859 18.236 328.964 18.1313 329.026 17.99C329.084 17.8539 329.084 17.7021 329.026 17.5608C328.969 17.4195 328.864 17.3147 328.728 17.2519H328.733Z" fill="#EBF29D"/>
<path d="M346.776 10.8399C342.997 7.05554 337.967 4.97754 332.618 4.97754C327.268 4.97754 322.243 7.06078 318.459 10.8399C310.655 18.6442 310.655 31.3477 318.459 39.1572C322.364 43.0619 327.488 45.009 332.618 45.009C337.747 45.009 342.871 43.0567 346.776 39.1572C354.58 31.3529 354.58 18.6494 346.776 10.8399ZM344.007 23.5539C344.023 30.6567 339.485 36.8698 332.717 39.0211C332.654 39.042 332.586 39.042 332.518 39.0211C325.75 36.8698 321.212 30.6567 321.228 23.5539V15.6973C321.228 15.5664 321.306 15.446 321.432 15.3937L332.497 10.9708C332.534 10.9551 332.576 10.9498 332.618 10.9498C332.659 10.9498 332.701 10.9551 332.738 10.9708L343.803 15.3989C343.929 15.446 344.007 15.5664 344.007 15.7025V23.5591V23.5539Z" fill="#EBF29D"/>
<path d="M268.956 49.9056C255.216 49.9056 244.041 38.7252 244.041 24.9906C244.041 11.2559 255.221 0.0755615 268.956 0.0755615C282.691 0.0755615 293.871 11.2559 293.871 24.9906C293.871 38.7252 282.691 49.9056 268.956 49.9056ZM268.956 1.73481C256.132 1.73481 245.7 12.1667 245.7 24.9906C245.7 37.8145 256.132 48.2463 268.956 48.2463C281.78 48.2463 292.212 37.8145 292.212 24.9906C292.212 12.1667 281.78 1.73481 268.956 1.73481Z" fill="#DA7DB5"/>
<path d="M285.215 7.21219L277.502 14.9254L279.02 16.4429L286.733 8.72968L285.215 7.21219Z" fill="#DA7DB5"/>
<path d="M258.663 33.7633L250.95 41.4766L252.467 42.994L260.18 35.2808L258.663 33.7633Z" fill="#DA7DB5"/>
<path d="M279.245 33.7671L277.728 35.2845L285.441 42.9978L286.959 41.4803L279.245 33.7671Z" fill="#DA7DB5"/>
<path d="M252.465 6.98351L250.948 8.50098L258.657 16.2105L260.175 14.693L252.465 6.98351Z" fill="#DA7DB5"/>
<path d="M275.033 25.6605C275.536 25.158 275.536 24.3467 275.033 23.8494L273.965 22.7869C273.463 22.2844 272.651 22.2844 272.154 22.7869L271.578 23.3627L270.914 22.6979C270.411 22.1954 269.6 22.1954 269.103 22.6979L268.527 23.2789L267.862 22.6089C267.36 22.1064 266.548 22.1064 266.051 22.6089L262.518 26.142C262.492 26.1682 262.492 26.2101 262.518 26.2415C262.989 26.7126 263.758 26.7126 264.235 26.2415L266.512 23.9646C266.758 23.7186 267.155 23.7186 267.401 23.9646L267.569 24.1321C267.6 24.1635 267.6 24.2106 267.569 24.242L265.669 26.142C265.643 26.1682 265.643 26.2101 265.669 26.2415C266.14 26.7126 266.909 26.7126 267.386 26.2415L269.568 24.0588C269.814 23.8128 270.212 23.8128 270.458 24.0588L270.626 24.2263C270.652 24.2525 270.652 24.2944 270.626 24.3258L268.794 26.1578C268.768 26.1839 268.768 26.2258 268.794 26.2572C269.265 26.7283 270.034 26.7283 270.511 26.2572L272.62 24.1478C272.866 23.9018 273.264 23.9018 273.51 24.1478L273.871 24.509C274.012 24.6503 274.012 24.8858 273.871 25.0271L273.813 25.0847C273.672 25.226 273.437 25.226 273.295 25.0847L272.829 24.6189C272.803 24.5927 272.761 24.5927 272.73 24.6189L271.924 25.4249C271.898 25.4511 271.898 25.493 271.924 25.5244L272.651 26.252C273.154 26.7545 273.965 26.7545 274.462 26.252L275.038 25.6762L275.033 25.6605Z" fill="#DA7DB5"/>
<path d="M268.957 5.88538C258.405 5.88538 249.852 14.4381 249.852 24.9904C249.852 35.5426 258.405 44.0954 268.957 44.0954C279.509 44.0954 288.062 35.5426 288.062 24.9904C288.062 14.4381 279.509 5.88538 268.957 5.88538ZM269.737 11.7844C272.804 11.9623 275.589 13.1872 277.745 15.1029L274.987 17.8613C273.547 16.6418 271.731 15.8514 269.737 15.6839V11.7844ZM268.182 11.7844V15.6839C266.188 15.8462 264.372 16.6418 262.932 17.8613L260.174 15.1029C262.33 13.1872 265.115 11.9623 268.182 11.7844ZM259.075 16.2021L261.833 18.9605C260.613 20.4 259.823 22.2162 259.656 24.2105H255.756C255.934 21.1432 257.159 18.3586 259.075 16.2021ZM255.756 25.7651H259.656C259.818 27.7593 260.613 29.5756 261.833 31.015L259.075 33.7735C257.159 31.6169 255.934 28.8323 255.756 25.7651ZM268.182 38.1912C265.115 38.0132 262.33 36.7884 260.174 34.8726L262.932 32.1142C264.372 33.3338 266.188 34.1241 268.182 34.2916V38.1912ZM260.928 24.9851C260.928 20.5517 264.523 16.9558 268.957 16.9558C273.39 16.9558 276.986 20.5517 276.986 24.9851C276.986 29.4185 273.39 33.0145 268.957 33.0145C264.523 33.0145 260.928 29.4185 260.928 24.9851ZM269.737 38.1912V34.2916C271.731 34.1294 273.547 33.3338 274.987 32.1142L277.745 34.8726C275.589 36.7884 272.804 38.0132 269.737 38.1912ZM278.844 33.7735L276.086 31.015C277.306 29.5756 278.096 27.7593 278.263 25.7651H282.163C281.985 28.8323 280.76 31.6169 278.844 33.7735ZM278.263 24.2105C278.101 22.2162 277.306 20.4 276.086 18.9605L278.844 16.2021C280.76 18.3586 281.985 21.1432 282.163 24.2105H278.263Z" fill="#DA7DB5"/>
<path d="M206.869 49.8299C193.13 49.8299 181.954 38.6495 181.954 24.9149C181.954 11.1802 193.135 -0.00012207 206.869 -0.00012207C220.604 -0.00012207 231.784 11.1802 231.784 24.9149C231.784 38.6495 220.604 49.8299 206.869 49.8299ZM206.869 1.65913C194.046 1.65913 183.614 12.091 183.614 24.9149C183.614 37.7388 194.046 48.1706 206.869 48.1706C219.693 48.1706 230.125 37.7388 230.125 24.9149C230.125 12.091 219.693 1.65913 206.869 1.65913Z" fill="#EBF29D"/>
<path d="M214.953 9.35883C214.827 9.35883 214.701 9.33264 214.586 9.27507C212.173 8.08166 209.577 7.47449 206.871 7.47449C204.165 7.47449 201.569 8.08166 199.156 9.27507C198.837 9.4321 198.454 9.36929 198.203 9.11805L193.922 4.83644C193.738 4.65324 193.655 4.40199 193.686 4.14551C193.717 3.88904 193.864 3.66397 194.084 3.53312C197.941 1.21958 202.364 0 206.876 0C211.388 0 215.811 1.22481 219.669 3.53312C219.889 3.66397 220.035 3.88904 220.067 4.14551C220.098 4.40199 220.009 4.65324 219.831 4.83644L215.549 9.11805C215.387 9.27507 215.178 9.35883 214.958 9.35883H214.953ZM206.871 5.81524C209.63 5.81524 212.289 6.39102 214.78 7.52685L217.879 4.42815C214.508 2.61187 210.723 1.65925 206.871 1.65925C203.019 1.65925 199.234 2.61187 195.863 4.42815L198.962 7.52685C201.454 6.39102 204.113 5.81524 206.871 5.81524Z" fill="#EBF29D"/>
<path d="M206.87 49.8298C202.358 49.8298 197.935 48.605 194.078 46.2967C193.858 46.1658 193.711 45.9408 193.68 45.6843C193.648 45.4278 193.737 45.1766 193.915 44.9934L198.197 40.7117C198.448 40.4605 198.836 40.3977 199.15 40.5547C201.563 41.7481 204.159 42.3553 206.865 42.3553C209.571 42.3553 212.167 41.7481 214.58 40.5547C214.9 40.3977 215.282 40.4605 215.533 40.7117L219.815 44.9934C219.998 45.1766 220.081 45.4278 220.05 45.6843C220.019 45.9408 219.872 46.1658 219.652 46.2967C215.795 48.6102 211.372 49.8298 206.86 49.8298H206.87ZM195.863 45.4016C199.233 47.2179 203.018 48.1705 206.87 48.1705C210.723 48.1705 214.507 47.2179 217.878 45.4016L214.779 42.303C212.288 43.4388 209.629 44.0146 206.87 44.0146C204.112 44.0146 201.453 43.4388 198.961 42.303L195.863 45.4016Z" fill="#EBF29D"/>
<path d="M227.54 38.1106C227.321 38.1106 227.111 38.0268 226.954 37.8698L222.673 33.5882C222.421 33.337 222.359 32.9496 222.516 32.6356C223.709 30.2226 224.316 27.6264 224.316 24.9203C224.316 22.2142 223.709 19.618 222.516 17.205C222.359 16.8857 222.421 16.4984 222.673 16.2524L226.954 11.9708C227.137 11.7876 227.389 11.7038 227.645 11.7352C227.902 11.7666 228.127 11.9132 228.257 12.133C230.571 15.9907 231.791 20.4136 231.791 24.9255C231.791 29.4374 230.571 33.8604 228.257 37.718C228.127 37.9379 227.902 38.0844 227.645 38.1158C227.608 38.1158 227.577 38.1158 227.54 38.1158V38.1106ZM224.259 32.824L227.357 35.9227C229.173 32.5518 230.126 28.7675 230.126 24.9151C230.126 21.0626 229.173 17.2783 227.357 13.9074L224.259 17.0061C225.394 19.4976 225.97 22.1566 225.97 24.9151C225.97 27.6735 225.394 30.3325 224.259 32.824Z" fill="#EBF29D"/>
<path d="M186.199 38.1106C186.163 38.1106 186.131 38.1106 186.1 38.1053C185.843 38.0739 185.618 37.9274 185.487 37.7075C183.174 33.8499 181.954 29.4269 181.954 24.915C181.954 20.4031 183.174 15.9802 185.487 12.1225C185.618 11.9027 185.843 11.7561 186.1 11.7247C186.356 11.6933 186.608 11.7823 186.791 11.9603L191.072 16.2419C191.324 16.4931 191.386 16.8805 191.229 17.1945C190.036 19.6075 189.429 22.2037 189.429 24.9098C189.429 27.6159 190.036 30.2121 191.229 32.6251C191.386 32.9443 191.324 33.3317 191.072 33.5777L186.791 37.8593C186.634 38.0163 186.424 38.1053 186.205 38.1053L186.199 38.1106ZM186.383 13.9074C184.566 17.2783 183.614 21.0626 183.614 24.915C183.614 28.7674 184.566 32.5518 186.383 35.9227L189.481 32.824C188.345 30.3325 187.77 27.6735 187.77 24.915C187.77 22.1566 188.345 19.4976 189.481 17.0061L186.383 13.9074Z" fill="#EBF29D"/>
<path d="M206.87 5.80994C196.339 5.80994 187.765 14.3784 187.765 24.9149C187.765 35.4515 196.333 44.0199 206.87 44.0199C217.407 44.0199 225.975 35.4515 225.975 24.9149C225.975 14.3784 217.407 5.80994 206.87 5.80994ZM217.621 18.6391C218.527 20.1884 219.076 21.8791 219.254 23.6744C219.259 23.7477 219.228 23.8158 219.165 23.8524C217.799 24.6899 216.574 25.7158 215.517 26.9144C215.47 26.972 215.391 26.9929 215.323 26.9667L212.963 26.1973C212.895 26.1764 212.848 26.1188 212.837 26.0455C212.57 24.0932 211.963 22.2245 211.031 20.4867C211 20.4239 211.005 20.3507 211.047 20.2931L212.507 18.2832C212.544 18.236 212.601 18.2046 212.659 18.2046C212.675 18.2046 212.685 18.2046 212.701 18.2046C214.261 18.5501 215.862 18.6652 217.454 18.5344C217.527 18.5292 217.595 18.5658 217.632 18.6286L217.621 18.6391ZM211.549 26.3753C211.555 26.4276 211.539 26.48 211.508 26.5166C210.267 27.9456 208.686 29.0919 206.943 29.8247C206.896 29.8456 206.849 29.8456 206.802 29.8247C205.059 29.0866 203.478 27.9403 202.238 26.5166C202.206 26.48 202.191 26.4276 202.196 26.3753C202.437 24.4805 203.028 22.6694 203.944 20.9945C203.97 20.9474 204.012 20.916 204.064 20.9055C204.986 20.7118 205.928 20.6124 206.875 20.6124C207.823 20.6124 208.765 20.7118 209.686 20.9055C209.738 20.916 209.78 20.9474 209.806 20.9945C210.722 22.6694 211.309 24.4805 211.555 26.3753H211.549ZM211.267 13.3839C211.267 13.3839 211.33 13.3315 211.392 13.3315C211.413 13.3315 211.44 13.3316 211.466 13.3473C213.392 14.1115 215.114 15.3677 216.454 16.9746C216.522 17.0531 216.496 17.1369 216.48 17.1683C216.47 17.1944 216.423 17.2782 216.313 17.2782C215.124 17.2939 213.941 17.1578 212.795 16.8856C212.748 16.8751 212.706 16.8437 212.68 16.8019C212.068 15.7916 211.576 14.7029 211.22 13.5723C211.188 13.4729 211.246 13.4048 211.272 13.3839H211.267ZM204.227 12.7558C205.959 12.3842 207.786 12.3842 209.519 12.7558C209.587 12.7715 209.644 12.8238 209.66 12.8919C210.031 14.4465 210.633 15.933 211.445 17.3096C211.481 17.3724 211.476 17.4509 211.434 17.5137L209.984 19.5132C209.943 19.5708 209.869 19.6022 209.801 19.5865C207.885 19.1991 205.86 19.1991 203.944 19.5865C203.876 19.6022 203.803 19.5708 203.761 19.5132L202.311 17.5137C202.269 17.4561 202.264 17.3724 202.301 17.3096C203.112 15.933 203.714 14.4465 204.085 12.8919C204.101 12.8238 204.159 12.7715 204.227 12.7558ZM197.291 16.9746C198.631 15.3624 200.353 14.1062 202.28 13.3473C202.306 13.3368 202.332 13.3315 202.353 13.3315C202.421 13.3315 202.463 13.3682 202.478 13.3839C202.505 13.4101 202.562 13.4729 202.531 13.5723C202.175 14.7082 201.683 15.7916 201.07 16.8019C201.044 16.8437 201.002 16.8751 200.955 16.8856C199.809 17.1578 198.626 17.2939 197.438 17.2782C197.328 17.2782 197.281 17.1944 197.27 17.1683C197.255 17.1369 197.229 17.0531 197.297 16.9746H197.291ZM196.124 18.6391C196.156 18.5815 196.218 18.5449 196.286 18.5449C196.286 18.5449 196.297 18.5449 196.302 18.5449C197.898 18.6705 199.5 18.5606 201.055 18.2151C201.128 18.1994 201.201 18.2256 201.243 18.2884L202.704 20.2983C202.745 20.3559 202.751 20.4344 202.719 20.492C201.788 22.2298 201.18 24.0984 200.913 26.0508C200.903 26.1188 200.856 26.1764 200.788 26.2026L198.427 26.972C198.359 26.9929 198.281 26.972 198.233 26.9197C197.176 25.721 195.951 24.6951 194.585 23.8576C194.528 23.821 194.491 23.7529 194.496 23.6797C194.674 21.8843 195.224 20.1884 196.129 18.6443L196.124 18.6391ZM196.695 31.5363C196.663 31.6357 196.574 31.6566 196.538 31.6619C196.501 31.6619 196.417 31.6619 196.36 31.5781C195.245 29.8246 194.585 27.7938 194.454 25.7105C194.449 25.6059 194.517 25.5535 194.549 25.5378C194.58 25.5221 194.664 25.4855 194.747 25.5483C195.716 26.234 196.595 27.04 197.365 27.9351C197.396 27.9717 197.412 28.0189 197.406 28.0712C197.312 29.2489 197.071 30.4161 196.689 31.5415L196.695 31.5363ZM201.866 36.3151C200.233 35.598 198.794 34.5459 197.59 33.1955C197.543 33.1432 197.527 33.0647 197.553 33.0018C198.165 31.5258 198.553 29.9712 198.705 28.38C198.71 28.3067 198.762 28.2439 198.83 28.223L201.165 27.464C201.165 27.464 201.201 27.4535 201.222 27.4535C201.275 27.4535 201.322 27.4745 201.358 27.5164C202.667 28.982 204.305 30.1753 206.101 30.9657C206.169 30.9971 206.21 31.0599 206.21 31.1332V33.5881C206.21 33.6614 206.169 33.7294 206.101 33.7556C204.635 34.3889 203.274 35.2421 202.054 36.2837C202.002 36.3308 201.924 36.3413 201.861 36.3099L201.866 36.3151ZM210.1 36.8333C210.094 36.87 210.068 36.9537 209.963 36.9799C207.943 37.4928 205.807 37.4928 203.787 36.9799C203.688 36.9537 203.656 36.87 203.651 36.8333C203.646 36.7967 203.635 36.7129 203.724 36.6449C204.677 35.9383 205.713 35.3468 206.807 34.8914C206.854 34.8705 206.901 34.8705 206.949 34.8914C208.037 35.3468 209.074 35.9383 210.032 36.6449C210.115 36.7077 210.11 36.7967 210.105 36.8333H210.1ZM216.166 33.2008C214.962 34.5512 213.523 35.598 211.89 36.3151C211.822 36.3465 211.748 36.3308 211.696 36.2889C210.476 35.2473 209.121 34.3942 207.65 33.7608C207.582 33.7294 207.54 33.6666 207.54 33.5933V31.1385C207.54 31.0652 207.582 30.9971 207.65 30.971C209.445 30.1806 211.089 28.9872 212.392 27.5216C212.429 27.4797 212.476 27.4588 212.528 27.4588C212.549 27.4588 212.565 27.4588 212.586 27.4692L214.92 28.2282C214.988 28.2492 215.041 28.312 215.046 28.3852C215.198 29.9765 215.585 31.5258 216.197 33.0071C216.224 33.0699 216.213 33.1484 216.161 33.2008H216.166ZM217.391 31.5834C217.333 31.6723 217.244 31.6724 217.213 31.6671C217.176 31.6671 217.092 31.641 217.056 31.5415C216.679 30.4161 216.438 29.2489 216.339 28.0712C216.339 28.0241 216.349 27.9717 216.381 27.9351C217.15 27.04 218.029 26.2392 218.998 25.5483C219.034 25.5221 219.071 25.5116 219.102 25.5116C219.144 25.5116 219.176 25.5273 219.197 25.5378C219.228 25.5535 219.301 25.6059 219.291 25.7105C219.16 27.7938 218.501 29.8246 217.386 31.5781L217.391 31.5834Z" fill="#EBF29D"/>
<path d="M145.36 0.159528C159.1 0.159528 170.28 11.3399 170.28 25.0798C170.28 38.8197 159.1 50 145.36 50C131.62 50 120.44 38.8197 120.44 25.0798C120.44 11.3399 131.62 0.159528 145.36 0.159528ZM145.36 48.2047C158.11 48.2047 168.485 37.8304 168.485 25.0798C168.485 12.3291 158.11 1.95487 145.36 1.95487C132.609 1.95487 122.235 12.3291 122.235 25.0798C122.235 37.8304 132.609 48.2047 145.36 48.2047Z" fill="#11F8A5"/>
<path d="M84.4434 0.158288C84.9407 0.158288 85.3385 0.561305 85.3385 1.05332C85.3385 1.54534 84.9354 1.94839 84.4434 1.94839C71.6928 1.94839 61.3185 12.3227 61.3185 25.0733C61.3185 37.8239 71.6928 48.1982 84.4434 48.1982C84.9407 48.1982 85.3385 48.6012 85.3385 49.0932C85.3385 49.5853 84.9354 49.9883 84.4434 49.9883C70.7035 49.9883 59.5232 38.8079 59.5232 25.068C59.5232 11.3282 70.7035 0.147809 84.4434 0.147809V0.158288Z" fill="#11F8A5"/>
<path d="M140.565 20.6719C140.565 21.5879 141.188 22.3835 142.078 22.6033L143.769 23.0273V18.6776H142.565C141.465 18.6776 140.57 19.5727 140.57 20.6719H140.565Z" fill="#11F8A5"/>
<path d="M146.96 31.4701H148.164C149.264 31.4701 150.159 30.5751 150.159 29.4759C150.159 28.5599 149.536 27.7643 148.646 27.5445L146.955 27.1205V31.4701H146.96Z" fill="#11F8A5"/>
<path d="M145.365 4.79651C134.185 4.79651 125.082 13.8936 125.082 25.0792C125.082 36.2648 134.179 45.3619 145.365 45.3619C156.55 45.3619 165.648 36.2648 165.648 25.0792C165.648 13.8936 156.55 4.79651 145.365 4.79651ZM153.363 21.8759H150.165V20.2742C150.165 19.3948 149.448 18.6725 148.563 18.6725H146.961V23.823L149.427 24.4407C151.74 25.0217 153.358 27.0892 153.358 29.476C153.358 32.3391 151.028 34.6684 148.165 34.6684H146.961V38.7197H143.763V34.6684H142.162C139.513 34.6684 137.362 32.5171 137.362 29.8686V28.2669H140.56V29.8686C140.56 30.7479 141.277 31.4702 142.162 31.4702H143.763V26.3197L141.298 25.7021C138.984 25.1211 137.367 23.0536 137.367 20.6667C137.367 17.8036 139.696 15.4744 142.559 15.4744H143.763V11.4231H146.961V15.4744H148.563C151.212 15.4744 153.363 17.6257 153.363 20.2742V21.8759Z" fill="#11F8A5"/>
<path d="M84.0615 0.128354L144.203 0.128354C144.7 0.128354 145.098 0.53137 145.098 1.02339C145.098 1.51541 144.695 1.91846 144.203 1.91846L84.0615 1.91846C83.5643 1.91846 83.1665 1.51541 83.1665 1.02339C83.1665 0.53137 83.5695 0.128354 84.0615 0.128354Z" fill="#11F8A5"/>
<path d="M83.9306 48.1707L144.072 48.1707C144.569 48.1707 144.967 48.5738 144.967 49.0658C144.967 49.5578 144.564 49.9608 144.072 49.9608L83.9306 49.9608C83.4334 49.9608 83.0356 49.5578 83.0356 49.0658C83.0356 48.5738 83.4386 48.1707 83.9306 48.1707Z" fill="#11F8A5"/>
<path d="M24.9189 49.9136C18.5332 49.9136 12.1526 47.4849 7.29 42.6223C-2.43 32.9023 -2.43 17.0896 7.29 7.36965C12.0008 2.65883 18.261 0.0678711 24.9189 0.0678711C31.5769 0.0678711 37.8371 2.65883 42.5479 7.36965C52.2679 17.0896 52.2679 32.9023 42.5479 42.6223C37.6905 47.4797 31.3047 49.9136 24.9189 49.9136ZM8.59856 41.3138C17.5962 50.3114 32.2364 50.3114 41.2341 41.3138C50.2318 32.3161 50.2318 17.6759 41.2341 8.67821C36.874 4.31809 31.0797 1.92081 24.9137 1.92081C18.7478 1.92081 12.9534 4.32332 8.59332 8.67821C-0.404351 17.6759 -0.404351 32.3161 8.59332 41.3138H8.59856Z" fill="#EBF29D"/>
<path d="M24.5892 34.3207C24.6781 34.5353 24.8875 34.6609 25.1073 34.6609C25.1806 34.6609 25.2539 34.6452 25.3272 34.619C27.0859 33.881 28.6876 32.7399 29.9543 31.3162C30.1584 31.0859 30.1374 30.73 29.9071 30.5259C29.6768 30.3217 29.3209 30.3426 29.1168 30.573C27.96 31.8763 26.4996 32.9179 24.8927 33.5879C24.6101 33.7083 24.474 34.038 24.5944 34.3207H24.5892Z" fill="#EBF29D"/>
<path d="M34.4182 16.378L25.1221 12.6617C24.9861 12.6094 24.8395 12.6094 24.7034 12.6617L15.4074 16.378C15.1928 16.4618 15.0567 16.6659 15.0567 16.8962V23.5542C15.0672 29.6992 18.951 35.2527 24.7191 37.3673C24.7819 37.3883 24.8447 37.3988 24.9128 37.3988C24.9808 37.3988 25.0436 37.3883 25.1065 37.3673C30.8746 35.2475 34.7584 29.6992 34.7689 23.5542V16.8962C34.7689 16.6659 34.6328 16.4618 34.4182 16.378ZM33.6488 23.5542C33.6383 29.1443 30.1313 34.2372 24.918 36.242C19.7047 34.2372 16.1925 29.1443 16.182 23.5542V17.2783L24.918 13.7871L33.6488 17.2783V23.5542Z" fill="#EBF29D"/>
<path d="M21.0345 17.2519C20.8984 17.1943 20.7466 17.1943 20.6053 17.2519L18.3912 18.1365C18.1766 18.2203 18.0406 18.4244 18.0406 18.6547V21.0154C18.0406 21.3242 18.2918 21.5754 18.6006 21.5754C18.9094 21.5754 19.1607 21.3242 19.1607 21.0154V19.0368L21.0188 18.2936C21.1602 18.236 21.2648 18.1313 21.3276 17.99C21.3852 17.8539 21.3852 17.7021 21.3276 17.5608C21.2701 17.4195 21.1654 17.3147 21.0293 17.2519H21.0345Z" fill="#EBF29D"/>
<path d="M39.0774 10.8399C35.2983 7.05554 30.2681 4.97754 24.9187 4.97754C19.5693 4.97754 14.5444 7.06078 10.7601 10.8399C2.95583 18.6442 2.95583 31.3477 10.7601 39.1572C14.6648 43.0619 19.7892 45.009 24.9187 45.009C30.0483 45.009 35.1726 43.0567 39.0774 39.1572C46.8816 31.3529 46.8816 18.6494 39.0774 10.8399ZM36.3084 23.5539C36.3241 30.6567 31.786 36.8698 25.0182 39.0211C24.9554 39.042 24.8873 39.042 24.8193 39.0211C18.0514 36.8698 13.5133 30.6567 13.529 23.5539V15.6973C13.529 15.5664 13.6075 15.446 13.7331 15.3937L24.7983 10.9708C24.835 10.9551 24.8768 10.9498 24.9187 10.9498C24.9606 10.9498 25.0025 10.9551 25.0391 10.9708L36.1043 15.3989C36.2299 15.446 36.3084 15.5664 36.3084 15.7025V23.5591V23.5539Z" fill="#EBF29D"/>
</g>
</svg>
