<svg width="101" height="1368" viewBox="0 0 101 1368" fill="none" xmlns="http://www.w3.org/2000/svg">
<g opacity="0.4">
<path d="M49.9826 1367.22C37.2841 1367.22 24.5959 1362.39 14.9263 1352.72C-4.40252 1333.39 -4.40252 1301.95 14.9263 1282.62C24.2941 1273.25 36.7428 1268.1 49.9826 1268.1C63.2224 1268.1 75.6711 1273.25 85.0389 1282.62C104.368 1301.95 104.368 1333.39 85.0389 1352.72C75.3797 1362.38 62.6811 1367.22 49.9826 1367.22ZM17.5285 1350.12C35.4209 1368.01 64.5338 1368.01 82.4263 1350.12C100.319 1332.23 100.319 1303.11 82.4263 1285.22C73.7559 1276.55 62.2335 1271.78 49.9722 1271.78C37.7108 1271.78 26.1884 1276.56 17.5181 1285.22C-0.374391 1303.11 -0.374391 1332.23 17.5181 1350.12H17.5285Z" fill="#EBF29D"/>
<path d="M49.3269 1336.21C49.5039 1336.64 49.9202 1336.89 50.3574 1336.89C50.5031 1336.89 50.6489 1336.86 50.7946 1336.81C54.2919 1335.34 57.4769 1333.07 59.9958 1330.24C60.4017 1329.78 60.3601 1329.07 59.9021 1328.67C59.4441 1328.26 58.7364 1328.3 58.3304 1328.76C56.0301 1331.35 53.1261 1333.42 49.9306 1334.76C49.3686 1335 49.0979 1335.65 49.3373 1336.21H49.3269Z" fill="#EBF29D"/>
<path d="M68.8728 1300.53L50.3871 1293.14C50.1164 1293.04 49.825 1293.04 49.5544 1293.14L31.0686 1300.53C30.6419 1300.7 30.3712 1301.1 30.3712 1301.56V1314.8C30.392 1327.02 38.1153 1338.07 49.5856 1342.27C49.7105 1342.31 49.8354 1342.33 49.9707 1342.33C50.106 1342.33 50.2309 1342.31 50.3558 1342.27C61.8261 1338.06 69.5494 1327.02 69.5702 1314.8V1301.56C69.5702 1301.1 69.2996 1300.7 68.8728 1300.53ZM67.3427 1314.8C67.3219 1325.92 60.3481 1336.05 49.9811 1340.03C39.6141 1336.05 32.6299 1325.92 32.6091 1314.8V1302.32L49.9811 1295.38L67.3427 1302.32V1314.8Z" fill="#EBF29D"/>
<path d="M42.2585 1302.27C41.9878 1302.16 41.686 1302.16 41.4049 1302.27L37.0021 1304.03C36.5754 1304.2 36.3047 1304.6 36.3047 1305.06V1309.75C36.3047 1310.37 36.8043 1310.87 37.4184 1310.87C38.0325 1310.87 38.5322 1310.37 38.5322 1309.75V1305.82L42.2272 1304.34C42.5082 1304.23 42.7164 1304.02 42.8413 1303.74C42.9558 1303.47 42.9558 1303.17 42.8413 1302.88C42.7268 1302.6 42.5187 1302.4 42.248 1302.27H42.2585Z" fill="#EBF29D"/>
<path d="M78.1259 1289.52C70.6109 1281.99 60.6082 1277.86 49.9706 1277.86C39.333 1277.86 29.3407 1282 21.8152 1289.52C6.29596 1305.04 6.29596 1330.3 21.8152 1345.83C29.5801 1353.6 39.7701 1357.47 49.9706 1357.47C60.171 1357.47 70.3611 1353.59 78.1259 1345.83C93.6452 1330.31 93.6452 1305.05 78.1259 1289.52ZM72.6198 1314.8C72.651 1328.93 63.6267 1341.28 50.1683 1345.56C50.0434 1345.6 49.9081 1345.6 49.7728 1345.56C36.3144 1341.28 27.2902 1328.93 27.3214 1314.8V1299.18C27.3214 1298.92 27.4775 1298.68 27.7273 1298.58L49.7312 1289.78C49.8041 1289.75 49.8873 1289.74 49.9706 1289.74C50.0539 1289.74 50.1371 1289.75 50.21 1289.78L72.2138 1298.59C72.4636 1298.68 72.6198 1298.92 72.6198 1299.19V1314.81V1314.8Z" fill="#EBF29D"/>
<path d="M50.1273 1240.61C22.8046 1240.61 0.582153 1218.38 0.582153 1191.06C0.582153 1163.75 22.815 1141.52 50.1273 1141.52C77.4396 1141.52 99.6724 1163.75 99.6724 1191.06C99.6724 1218.38 77.4396 1240.61 50.1273 1240.61ZM50.1273 1144.82C24.6261 1144.82 3.88174 1165.56 3.88174 1191.06C3.88174 1216.57 24.6261 1237.31 50.1273 1237.31C75.6285 1237.31 96.3729 1216.57 96.3729 1191.06C96.3729 1165.56 75.6285 1144.82 50.1273 1144.82Z" fill="white"/>
<path d="M66.1979 1160.12C65.9481 1160.12 65.6983 1160.07 65.4693 1159.95C60.6709 1157.58 55.5082 1156.37 50.127 1156.37C44.7457 1156.37 39.583 1157.58 34.7847 1159.95C34.1497 1160.27 33.3899 1160.14 32.8903 1159.64L24.376 1151.13C24.0117 1150.76 23.8452 1150.26 23.9076 1149.75C23.9701 1149.24 24.2615 1148.8 24.6987 1148.53C32.3699 1143.93 41.1652 1141.51 50.1374 1141.51C59.1096 1141.51 67.9049 1143.94 75.5761 1148.53C76.0133 1148.8 76.3047 1149.24 76.3671 1149.75C76.4296 1150.26 76.2527 1150.76 75.8988 1151.13L67.3845 1159.64C67.0618 1159.95 66.6455 1160.12 66.2083 1160.12H66.1979ZM50.127 1153.07C55.6123 1153.07 60.8999 1154.22 65.8544 1156.48L72.0163 1150.31C65.3131 1146.7 57.7877 1144.81 50.127 1144.81C42.4662 1144.81 34.9408 1146.7 28.2376 1150.31L34.3996 1156.48C39.3541 1154.22 44.6416 1153.07 50.127 1153.07Z" fill="white"/>
<path d="M50.1252 1240.61C41.1529 1240.61 32.3576 1238.17 24.6865 1233.58C24.2493 1233.32 23.9579 1232.88 23.8954 1232.37C23.833 1231.86 24.0099 1231.36 24.3638 1230.99L32.8781 1222.48C33.3777 1221.98 34.1479 1221.85 34.7725 1222.17C39.5708 1224.54 44.7335 1225.75 50.1148 1225.75C55.496 1225.75 60.6587 1224.54 65.4571 1222.17C66.092 1221.85 66.8519 1221.98 67.3515 1222.48L75.8657 1230.99C76.23 1231.36 76.3966 1231.86 76.3341 1232.37C76.2717 1232.88 75.9802 1233.32 75.5431 1233.58C67.8719 1238.18 59.0766 1240.61 50.1044 1240.61H50.1252ZM28.2358 1231.8C34.939 1235.42 42.4644 1237.31 50.1252 1237.31C57.7859 1237.31 65.3114 1235.42 72.0145 1231.8L65.8526 1225.64C60.8981 1227.9 55.6105 1229.05 50.1252 1229.05C44.6398 1229.05 39.3523 1227.9 34.3978 1225.64L28.2358 1231.8Z" fill="white"/>
<path d="M91.2331 1217.29C90.7959 1217.29 90.3796 1217.13 90.0673 1216.82L81.553 1208.3C81.0534 1207.8 80.9285 1207.03 81.2408 1206.41C83.614 1201.61 84.8213 1196.45 84.8213 1191.06C84.8213 1185.68 83.614 1180.52 81.2408 1175.72C80.9285 1175.09 81.0534 1174.32 81.553 1173.83L90.0673 1165.31C90.4316 1164.95 90.9312 1164.78 91.4413 1164.85C91.9513 1164.91 92.3988 1165.2 92.659 1165.64C97.2597 1173.31 99.6849 1182.1 99.6849 1191.08C99.6849 1200.05 97.2597 1208.84 92.659 1216.51C92.3988 1216.95 91.9513 1217.24 91.4413 1217.3C91.3684 1217.3 91.3059 1217.3 91.2331 1217.3V1217.29ZM84.7068 1206.78L90.8688 1212.94C94.4806 1206.24 96.3749 1198.71 96.3749 1191.05C96.3749 1183.39 94.4806 1175.87 90.8688 1169.16L84.7068 1175.33C86.9655 1180.28 88.1105 1185.57 88.1105 1191.05C88.1105 1196.54 86.9655 1201.83 84.7068 1206.78Z" fill="white"/>
<path d="M9.02385 1217.29C8.95099 1217.29 8.88853 1217.29 8.82608 1217.28C8.31606 1217.22 7.86844 1216.93 7.60823 1216.49C3.00761 1208.82 0.582397 1200.03 0.582397 1191.05C0.582397 1182.08 3.00761 1173.29 7.60823 1165.62C7.86844 1165.18 8.31606 1164.89 8.82608 1164.82C9.33611 1164.76 9.83573 1164.94 10.2 1165.29L18.7143 1173.81C19.2139 1174.31 19.3388 1175.08 19.0265 1175.7C16.6534 1180.5 15.446 1185.66 15.446 1191.04C15.446 1196.42 16.6534 1201.59 19.0265 1206.39C19.3388 1207.02 19.2139 1207.79 18.7143 1208.28L10.2 1216.79C9.88777 1217.11 9.47137 1217.28 9.03421 1217.28L9.02385 1217.29ZM9.38813 1169.16C5.77633 1175.87 3.88198 1183.39 3.88198 1191.05C3.88198 1198.71 5.77633 1206.24 9.38813 1212.94L15.55 1206.78C13.2913 1201.83 12.1464 1196.54 12.1464 1191.05C12.1464 1185.57 13.2913 1180.28 15.55 1175.33L9.38813 1169.16Z" fill="white"/>
<path d="M50.1284 1153.07C29.1862 1153.07 12.1368 1170.11 12.1368 1191.06C12.1368 1212.02 29.1758 1229.06 50.1284 1229.06C71.0809 1229.06 88.1199 1212.02 88.1199 1191.06C88.1199 1170.11 71.0809 1153.07 50.1284 1153.07ZM71.5077 1178.58C73.3084 1181.67 74.4013 1185.03 74.7552 1188.6C74.7656 1188.74 74.7031 1188.88 74.5782 1188.95C71.8616 1190.62 69.4259 1192.66 67.3234 1195.04C67.2297 1195.16 67.0736 1195.2 66.9383 1195.14L62.244 1193.61C62.1087 1193.57 62.015 1193.46 61.9942 1193.31C61.4633 1189.43 60.256 1185.71 58.4032 1182.26C58.3408 1182.13 58.3512 1181.99 58.4344 1181.87L61.3384 1177.88C61.4113 1177.78 61.5258 1177.72 61.6403 1177.72C61.6715 1177.72 61.6924 1177.72 61.7236 1177.72C64.8254 1178.41 68.0104 1178.64 71.1746 1178.38C71.3203 1178.37 71.4556 1178.44 71.5285 1178.56L71.5077 1178.58ZM59.4337 1193.97C59.4441 1194.07 59.4128 1194.18 59.3504 1194.25C56.8835 1197.09 53.7402 1199.37 50.2741 1200.83C50.1804 1200.87 50.0867 1200.87 49.993 1200.83C46.527 1199.36 43.3835 1197.08 40.9167 1194.25C40.8542 1194.18 40.823 1194.07 40.8335 1193.97C41.3123 1190.2 42.4884 1186.6 44.3099 1183.27C44.3619 1183.17 44.4453 1183.11 44.5493 1183.09C46.3813 1182.71 48.2548 1182.51 50.1388 1182.51C52.0227 1182.51 53.8963 1182.71 55.7282 1183.09C55.8323 1183.11 55.9155 1183.17 55.9676 1183.27C57.7891 1186.6 58.9549 1190.2 59.4441 1193.97H59.4337ZM58.8716 1168.13C58.8716 1168.13 58.9965 1168.03 59.1214 1168.03C59.1631 1168.03 59.2151 1168.03 59.2671 1168.06C63.0975 1169.58 66.522 1172.08 69.1866 1175.27C69.3219 1175.43 69.2698 1175.6 69.2386 1175.66C69.2178 1175.71 69.1241 1175.88 68.9055 1175.88C66.5428 1175.91 64.1904 1175.64 61.9109 1175.1C61.8173 1175.08 61.734 1175.01 61.6819 1174.93C60.4641 1172.92 59.4857 1170.76 58.7779 1168.51C58.7155 1168.31 58.83 1168.18 58.882 1168.13H58.8716ZM44.872 1166.89C48.3173 1166.15 51.9499 1166.15 55.3951 1166.89C55.5304 1166.92 55.6449 1167.02 55.6761 1167.16C56.4151 1170.25 57.6122 1173.2 59.2255 1175.94C59.2984 1176.07 59.2879 1176.22 59.2047 1176.35L56.3215 1180.32C56.2382 1180.44 56.0925 1180.5 55.9572 1180.47C52.1476 1179.7 48.1195 1179.7 44.3099 1180.47C44.1746 1180.5 44.0289 1180.44 43.9456 1180.32L41.0624 1176.35C40.9791 1176.23 40.9687 1176.07 41.0416 1175.94C42.6549 1173.2 43.8519 1170.25 44.591 1167.16C44.6222 1167.02 44.7367 1166.92 44.872 1166.89ZM31.0806 1175.27C33.7452 1172.07 37.1696 1169.57 41 1168.06C41.052 1168.04 41.1041 1168.03 41.1457 1168.03C41.281 1168.03 41.3643 1168.1 41.3955 1168.13C41.4475 1168.19 41.562 1168.31 41.4996 1168.51C40.7918 1170.77 39.8134 1172.92 38.5956 1174.93C38.5435 1175.01 38.4603 1175.08 38.3666 1175.1C36.0871 1175.64 33.7347 1175.91 31.372 1175.88C31.1534 1175.88 31.0597 1175.71 31.0389 1175.66C31.0077 1175.6 30.9556 1175.43 31.0909 1175.27H31.0806ZM28.7594 1178.58C28.8219 1178.47 28.9468 1178.4 29.0821 1178.4C29.0821 1178.4 29.1029 1178.4 29.1133 1178.4C32.288 1178.65 35.473 1178.43 38.5644 1177.74C38.7101 1177.71 38.8558 1177.76 38.9391 1177.89L41.8431 1181.88C41.9263 1182 41.9368 1182.15 41.8743 1182.27C40.0216 1185.73 38.8142 1189.44 38.2833 1193.32C38.2625 1193.46 38.1688 1193.57 38.0335 1193.63L33.3392 1195.16C33.2039 1195.2 33.0478 1195.16 32.9541 1195.05C30.8516 1192.67 28.4159 1190.63 25.6993 1188.96C25.5848 1188.89 25.5119 1188.75 25.5223 1188.61C25.8762 1185.04 26.9691 1181.67 28.7698 1178.6L28.7594 1178.58ZM29.894 1204.23C29.8315 1204.43 29.6546 1204.47 29.5817 1204.48C29.5089 1204.48 29.3423 1204.48 29.2278 1204.31C27.0108 1200.83 25.6993 1196.79 25.439 1192.65C25.4286 1192.44 25.5639 1192.33 25.6264 1192.3C25.6888 1192.27 25.8554 1192.2 26.0219 1192.32C27.9475 1193.69 29.6962 1195.29 31.2262 1197.07C31.2887 1197.14 31.3199 1197.24 31.3095 1197.34C31.1222 1199.68 30.6434 1202 29.8836 1204.24L29.894 1204.23ZM40.1777 1213.73C36.9302 1212.31 34.0678 1210.22 31.6738 1207.53C31.5801 1207.43 31.549 1207.27 31.601 1207.15C32.8188 1204.21 33.589 1201.12 33.8909 1197.96C33.9013 1197.81 34.0054 1197.68 34.1407 1197.64L38.7829 1196.13C38.7829 1196.13 38.8558 1196.11 38.8974 1196.11C39.0015 1196.11 39.0952 1196.15 39.168 1196.24C41.7702 1199.15 45.0281 1201.53 48.5983 1203.1C48.7336 1203.16 48.8169 1203.28 48.8169 1203.43V1208.31C48.8169 1208.46 48.7336 1208.59 48.5983 1208.64C45.6838 1209.9 42.9776 1211.6 40.5524 1213.67C40.4483 1213.77 40.2922 1213.79 40.1673 1213.72L40.1777 1213.73ZM56.5505 1214.77C56.5401 1214.84 56.488 1215 56.2798 1215.06C52.2621 1216.08 48.0154 1216.08 43.9977 1215.06C43.7999 1215 43.7374 1214.84 43.727 1214.77C43.7166 1214.69 43.6958 1214.53 43.8728 1214.39C45.7671 1212.99 47.8281 1211.81 50.0035 1210.9C50.0971 1210.86 50.1908 1210.86 50.2845 1210.9C52.4494 1211.81 54.5104 1212.99 56.4152 1214.39C56.5817 1214.52 56.5713 1214.69 56.5609 1214.77H56.5505ZM68.6141 1207.54C66.2201 1210.23 63.3577 1212.31 60.1102 1213.73C59.9749 1213.8 59.8292 1213.77 59.7251 1213.68C57.2999 1211.61 54.6041 1209.91 51.6792 1208.66C51.5439 1208.59 51.4606 1208.47 51.4606 1208.32V1203.44C51.4606 1203.29 51.5439 1203.16 51.6792 1203.11C55.2494 1201.54 58.5177 1199.16 61.1095 1196.25C61.1823 1196.16 61.276 1196.12 61.3801 1196.12C61.4217 1196.12 61.4529 1196.12 61.4946 1196.14L66.1368 1197.65C66.2722 1197.69 66.3762 1197.82 66.3866 1197.97C66.6885 1201.13 67.4587 1204.21 68.6766 1207.16C68.7286 1207.28 68.7078 1207.44 68.6037 1207.54H68.6141ZM71.0497 1204.33C70.9352 1204.5 70.7583 1204.5 70.6958 1204.49C70.623 1204.49 70.4564 1204.44 70.3835 1204.24C69.6341 1202 69.1553 1199.68 68.9575 1197.34C68.9575 1197.25 68.9784 1197.14 69.0408 1197.07C70.5709 1195.29 72.3196 1193.7 74.2451 1192.32C74.318 1192.27 74.3909 1192.25 74.4533 1192.25C74.5366 1192.25 74.599 1192.28 74.6407 1192.3C74.7031 1192.33 74.8488 1192.44 74.828 1192.65C74.5678 1196.79 73.2563 1200.83 71.0393 1204.31L71.0497 1204.33Z" fill="white"/>
<path d="M49.9826 1117.15C37.2841 1117.15 24.5959 1112.32 14.9263 1102.65C-4.40252 1083.32 -4.40252 1051.88 14.9263 1032.55C24.2941 1023.18 36.7428 1018.03 49.9826 1018.03C63.2224 1018.03 75.6711 1023.18 85.0389 1032.55C104.368 1051.88 104.368 1083.32 85.0389 1102.65C75.3797 1112.31 62.6811 1117.15 49.9826 1117.15ZM17.5285 1100.05C35.4209 1117.94 64.5338 1117.94 82.4263 1100.05C100.319 1082.16 100.319 1053.05 82.4263 1035.15C73.7559 1026.48 62.2335 1021.72 49.9722 1021.72C37.7108 1021.72 26.1884 1026.49 17.5181 1035.15C-0.374391 1053.05 -0.374391 1082.16 17.5181 1100.05H17.5285Z" fill="#EBF29D"/>
<path d="M49.3269 1086.15C49.5039 1086.58 49.9202 1086.83 50.3574 1086.83C50.5031 1086.83 50.6489 1086.8 50.7946 1086.75C54.2919 1085.28 57.4769 1083.01 59.9958 1080.18C60.4017 1079.72 60.3601 1079.01 59.9021 1078.61C59.4441 1078.2 58.7364 1078.24 58.3304 1078.7C56.0301 1081.29 53.1261 1083.37 49.9306 1084.7C49.3686 1084.94 49.0979 1085.59 49.3373 1086.15H49.3269Z" fill="#EBF29D"/>
<path d="M68.8728 1050.46L50.3871 1043.07C50.1164 1042.97 49.825 1042.97 49.5544 1043.07L31.0686 1050.46C30.6419 1050.63 30.3712 1051.04 30.3712 1051.49V1064.73C30.392 1076.95 38.1153 1088 49.5856 1092.2C49.7105 1092.24 49.8354 1092.26 49.9707 1092.26C50.106 1092.26 50.2309 1092.24 50.3558 1092.2C61.8261 1087.99 69.5494 1076.95 69.5702 1064.73V1051.49C69.5702 1051.04 69.2996 1050.63 68.8728 1050.46ZM67.3427 1064.73C67.3219 1075.85 60.3481 1085.98 49.9811 1089.96C39.6141 1085.98 32.6299 1075.85 32.6091 1064.73V1052.25L49.9811 1045.31L67.3427 1052.25V1064.73Z" fill="#EBF29D"/>
<path d="M42.2585 1052.2C41.9878 1052.09 41.686 1052.09 41.4049 1052.2L37.0021 1053.96C36.5754 1054.13 36.3047 1054.53 36.3047 1054.99V1059.69C36.3047 1060.3 36.8043 1060.8 37.4184 1060.8C38.0325 1060.8 38.5322 1060.3 38.5322 1059.69V1055.75L42.2272 1054.27C42.5082 1054.16 42.7164 1053.95 42.8413 1053.67C42.9558 1053.4 42.9558 1053.1 42.8413 1052.82C42.7268 1052.53 42.5187 1052.33 42.248 1052.2H42.2585Z" fill="#EBF29D"/>
<path d="M78.1259 1039.45C70.6109 1031.93 60.6082 1027.79 49.9706 1027.79C39.333 1027.79 29.3407 1031.94 21.8152 1039.45C6.29596 1054.97 6.29596 1080.23 21.8152 1095.76C29.5801 1103.53 39.7701 1107.4 49.9706 1107.4C60.171 1107.4 70.3611 1103.52 78.1259 1095.76C93.6452 1080.24 93.6452 1054.98 78.1259 1039.45ZM72.6198 1064.73C72.651 1078.86 63.6267 1091.21 50.1683 1095.49C50.0434 1095.53 49.9081 1095.53 49.7728 1095.49C36.3144 1091.21 27.2902 1078.86 27.3214 1064.73V1049.11C27.3214 1048.85 27.4775 1048.61 27.7273 1048.51L49.7312 1039.71C49.8041 1039.68 49.8873 1039.67 49.9706 1039.67C50.0539 1039.67 50.1371 1039.68 50.21 1039.71L72.2138 1048.52C72.4636 1048.61 72.6198 1048.85 72.6198 1049.12V1064.74V1064.73Z" fill="#EBF29D"/>
<path d="M50.3967 994.84C23.074 994.84 0.851562 972.607 0.851562 945.295C0.851562 917.982 23.0844 895.75 50.3967 895.75C77.709 895.75 99.9418 917.982 99.9418 945.295C99.9418 972.607 77.709 994.84 50.3967 994.84ZM50.3967 899.049C24.8956 899.049 4.15108 919.793 4.15108 945.295C4.15108 970.796 24.8956 991.54 50.3967 991.54C75.8979 991.54 96.6423 970.796 96.6423 945.295C96.6423 919.793 75.8979 899.049 50.3967 899.049Z" fill="#11F8A5"/>
<path d="M82.7174 909.948L67.3792 925.286L70.3968 928.304L85.7351 912.966L82.7174 909.948Z" fill="#11F8A5"/>
<path d="M29.9243 962.74L14.5861 978.078L17.6036 981.096L32.9419 965.757L29.9243 962.74Z" fill="#11F8A5"/>
<path d="M70.8616 962.755L67.844 965.772L83.1822 981.111L86.1999 978.093L70.8616 962.755Z" fill="#11F8A5"/>
<path d="M17.5999 909.486L14.5823 912.504L29.9132 927.835L32.9308 924.817L17.5999 909.486Z" fill="#11F8A5"/>
<path d="M62.4808 946.627C63.48 945.628 63.48 944.014 62.4808 943.026L60.3574 940.913C59.3582 939.913 57.7449 939.913 56.7561 940.913L55.6111 942.058L54.2892 940.736C53.29 939.736 51.6766 939.736 50.6878 940.736L49.5429 941.891L48.221 940.559C47.2217 939.56 45.6084 939.56 44.6195 940.559L37.5937 947.585C37.5417 947.637 37.5417 947.72 37.5937 947.782C38.5305 948.719 40.0606 948.719 41.0078 947.782L45.5355 943.255C46.0247 942.765 46.8158 942.765 47.305 943.255L47.6381 943.588C47.7005 943.65 47.7005 943.744 47.6381 943.806L43.8597 947.585C43.8077 947.637 43.8077 947.72 43.8597 947.782C44.7965 948.719 46.3266 948.719 47.2738 947.782L51.6142 943.442C52.1034 942.953 52.8945 942.953 53.3837 943.442L53.7167 943.775C53.7688 943.827 53.7688 943.91 53.7167 943.973L50.0737 947.616C50.0217 947.668 50.0217 947.751 50.0737 947.814C51.0105 948.75 52.5405 948.75 53.4877 947.814L57.6824 943.619C58.1716 943.13 58.9626 943.13 59.4519 943.619L60.1701 944.337C60.4511 944.618 60.4511 945.086 60.1701 945.368L60.0556 945.482C59.7745 945.763 59.3062 945.763 59.0251 945.482L58.0987 944.556C58.0467 944.504 57.9634 944.504 57.901 944.556L56.2981 946.159C56.246 946.211 56.246 946.294 56.2981 946.356L57.7449 947.803C58.7441 948.802 60.3574 948.802 61.3462 947.803L62.4912 946.658L62.4808 946.627Z" fill="#11F8A5"/>
<path d="M50.3978 907.303C29.414 907.303 12.4062 924.311 12.4062 945.295C12.4062 966.278 29.414 983.286 50.3978 983.286C71.3816 983.286 88.3893 966.278 88.3893 945.295C88.3893 924.311 71.3816 907.303 50.3978 907.303ZM51.9486 919.034C58.0481 919.388 63.5855 921.823 67.8738 925.633L62.3885 931.118C59.5261 928.693 55.9143 927.121 51.9486 926.788V919.034ZM48.8572 919.034V926.788C44.8916 927.111 41.2798 928.693 38.4174 931.118L32.932 925.633C37.2204 921.823 42.7578 919.388 48.8572 919.034ZM30.7463 927.819L36.2316 933.304C33.8064 936.166 32.2347 939.778 31.9016 943.744H24.1472C24.5011 937.644 26.9367 932.107 30.7463 927.819ZM24.1472 946.835H31.9016C32.2243 950.801 33.8064 954.413 36.2316 957.275L30.7463 962.76C26.9367 958.472 24.5011 952.935 24.1472 946.835ZM48.8572 971.545C42.7578 971.191 37.2204 968.756 32.932 964.946L38.4174 959.461C41.2798 961.886 44.8916 963.458 48.8572 963.791V971.545ZM34.4309 945.284C34.4309 936.468 41.5817 929.317 50.3978 929.317C59.2139 929.317 66.3646 936.468 66.3646 945.284C66.3646 954.1 59.2139 961.251 50.3978 961.251C41.5817 961.251 34.4309 954.1 34.4309 945.284ZM51.9486 971.545V963.791C55.9143 963.468 59.5261 961.886 62.3885 959.461L67.8738 964.946C63.5855 968.756 58.0481 971.191 51.9486 971.545ZM70.0596 962.76L64.5743 957.275C66.9995 954.413 68.5712 950.801 68.9043 946.835H76.6587C76.3048 952.935 73.8692 958.472 70.0596 962.76ZM68.9043 943.744C68.5816 939.778 66.9995 936.166 64.5743 933.304L70.0596 927.819C73.8692 932.107 76.3048 937.644 76.6587 943.744H68.9043Z" fill="#11F8A5"/>
<path d="M15.4923 850.479C-3.99743 830.989 -3.99743 799.28 15.4923 779.791C34.982 760.301 66.6907 760.301 86.1804 779.791C105.67 799.28 105.67 830.989 86.1804 850.479C66.6907 869.969 34.982 869.969 15.4923 850.479ZM83.8248 782.146C65.6338 763.955 36.039 763.955 17.8527 782.146C-0.338378 800.337 -0.338378 829.932 17.8527 848.118C36.0437 866.309 65.6385 866.309 83.8248 848.118C102.016 829.927 102.016 800.333 83.8248 782.146Z" fill="white"/>
<path d="M84.3642 804.532C84.1888 804.357 84.0466 804.134 83.966 803.888C82.236 798.769 79.4111 794.233 75.572 790.394C71.7375 786.559 67.1969 783.734 62.078 782C61.4002 781.767 60.9452 781.137 60.9452 780.421V768.273C60.9452 767.761 61.1822 767.278 61.585 766.96C61.9927 766.643 62.5188 766.534 63.0117 766.657C71.7612 768.847 79.7713 773.387 86.17 779.791C92.5686 786.194 97.1093 794.2 99.299 802.949C99.4223 803.447 99.3085 803.973 98.9957 804.38C98.6781 804.788 98.1946 805.02 97.6828 805.02H85.5349C85.0798 805.02 84.6628 804.835 84.3547 804.527L84.3642 804.532ZM77.9276 788.038C81.8426 791.953 84.7955 796.541 86.7198 801.688H95.5072C93.2985 794.332 89.284 787.611 83.8191 782.146C78.3542 776.682 71.6333 772.667 64.282 770.463V779.25C69.4293 781.17 74.0173 784.123 77.9323 788.043L77.9276 788.038Z" fill="white"/>
<path d="M15.491 850.479C9.09237 844.08 4.54697 836.07 2.35722 827.321C2.23399 826.823 2.34775 826.297 2.66057 825.894C2.97813 825.486 3.46156 825.254 3.97345 825.254H16.1214C16.8371 825.254 17.4722 825.709 17.6997 826.387C19.4297 831.506 22.2545 836.042 26.0937 839.881C29.9281 843.715 34.4688 846.54 39.5877 848.275C40.2655 848.502 40.7205 849.138 40.7205 849.853V862.001C40.7205 862.513 40.4835 862.996 40.0806 863.314C39.673 863.632 39.1469 863.741 38.6492 863.617C29.8997 861.428 21.8944 856.887 15.491 850.488V850.479ZM6.15848 828.581C8.36719 835.937 12.3817 842.658 17.8466 848.123C23.3115 853.588 30.0325 857.603 37.3885 859.811V851.024C32.2412 849.104 27.6531 846.152 23.7381 842.237C19.8231 838.322 16.8702 833.733 14.9459 828.586H6.15848V828.581Z" fill="white"/>
<path d="M61.4412 863.172C61.1284 862.859 60.953 862.437 60.953 861.992V849.844C60.953 849.128 61.408 848.493 62.0858 848.266C67.2047 846.536 71.7406 843.711 75.5798 839.871C79.4189 836.032 82.2391 831.496 83.9738 826.377C84.2013 825.7 84.8365 825.245 85.5522 825.245H97.7001C98.2119 825.245 98.6954 825.482 99.013 825.885C99.3305 826.287 99.4395 826.818 99.3163 827.311C97.1218 836.061 92.5811 844.066 86.1825 850.469C79.7839 856.873 71.7738 861.413 63.0243 863.603C62.5266 863.726 62.0005 863.613 61.5976 863.3C61.5455 863.252 61.4933 863.21 61.446 863.162L61.4412 863.172ZM64.285 851.019V859.807C71.6411 857.598 78.362 853.583 83.8269 848.119C89.2918 842.654 93.3016 835.933 95.515 828.577H86.7276C84.808 833.724 81.8551 838.307 77.9354 842.227C74.0204 846.142 69.4324 849.1 64.285 851.019Z" fill="white"/>
<path d="M2.79401 804.532C2.74661 804.485 2.69923 804.433 2.66131 804.381C2.34375 803.978 2.23473 803.447 2.35796 802.949C4.54771 794.2 9.08837 786.19 15.4917 779.791C21.8951 773.392 29.9004 768.847 38.65 766.657C39.1476 766.534 39.6738 766.648 40.0766 766.96C40.4795 767.278 40.7165 767.762 40.7165 768.273V780.421C40.7165 781.137 40.2615 781.772 39.5837 782C34.4648 783.73 29.9289 786.554 26.0897 790.394C22.2553 794.228 19.4304 798.769 17.6957 803.888C17.4682 804.565 16.8331 805.02 16.1174 805.02H3.96948C3.52395 805.02 3.09735 804.845 2.78927 804.537L2.79401 804.532ZM37.3845 770.463C30.0285 772.672 23.3075 776.686 17.8426 782.151C12.3777 787.616 8.36793 794.337 6.15448 801.693H14.9419C16.8615 796.546 19.8143 791.963 23.7341 788.043C27.6491 784.128 32.2372 781.175 37.3845 779.251V770.463Z" fill="white"/>
<path d="M77.9316 788.038C62.9921 773.098 38.6773 773.093 23.7377 788.038C8.79339 802.982 8.79813 827.292 23.7377 842.232C38.6773 857.171 62.9873 857.176 77.9316 842.232C92.876 827.287 92.8712 802.977 77.9316 788.038Z" fill="white"/>
<path d="M64.6546 828.812L37.1269 828.995C35.9673 829.003 35.0335 829.949 35.0411 831.108L35.0477 832.09C35.0553 833.249 36.0017 834.183 37.1613 834.175L64.6889 833.993C65.8485 833.985 66.7824 833.039 66.7747 831.879L66.7682 830.898C66.7605 829.738 65.8142 828.805 64.6546 828.812Z" fill="#191D0A"/>
<path d="M40.8773 812.196C40.5787 812.196 40.2754 812.13 40.0005 811.997L37.8534 810.959C36.9197 810.504 36.4931 809.4 36.8817 808.438L37.8676 805.982C38.171 805.233 38.8867 804.745 39.6924 804.741C40.0384 804.741 40.3797 804.826 40.683 805.001L43.2425 806.461C43.7212 806.731 44.0672 807.2 44.1904 807.741C44.3136 808.281 44.2046 808.85 43.8918 809.305L42.4889 811.338C42.1239 811.869 41.5172 812.191 40.8726 812.191L40.8773 812.196Z" fill="#191D0A"/>
<path d="M60.6922 812.063C60.0476 812.063 59.4362 811.755 59.0665 811.229L57.6777 809.272C57.3554 808.821 57.2417 808.253 57.3555 807.712C57.4692 807.172 57.8105 806.698 58.2892 806.418L60.9292 804.869C61.2278 804.693 61.5691 804.598 61.9151 804.594C62.7208 804.589 63.446 805.068 63.7588 805.812L64.7542 808.196C65.1523 809.153 64.7399 810.267 63.8157 810.732L61.5691 811.855C61.2989 811.988 60.9955 812.063 60.6969 812.063H60.6922Z" fill="#191D0A"/>
<path d="M38.7148 827.155C37.5061 827.164 36.4208 826.406 36.0084 825.268L31.4156 812.627C31.1218 812.77 30.8089 812.879 30.4914 812.959C30.1169 813.054 29.7377 813.101 29.3538 813.101C29.1311 813.101 28.913 813.092 28.6997 813.063C26.3062 812.76 24.4909 810.708 24.4767 808.291C24.4577 805.617 26.619 803.428 29.2922 803.409C31.9654 803.39 34.1552 805.551 34.1694 808.224C34.1694 808.84 34.0651 809.433 33.8471 809.987C33.7286 810.291 33.5817 810.58 33.411 810.855L42.1463 815.083L48.8294 805.399C48.5497 805.281 48.2795 805.134 48.0236 804.959C47.5401 804.631 47.1183 804.224 46.777 803.745C46.1988 802.93 45.886 801.968 45.8812 800.972C45.8623 798.299 48.0236 796.109 50.6968 796.091C50.8153 796.091 50.9385 796.091 51.057 796.1C53.4506 796.261 55.3844 798.181 55.5597 800.574C55.6403 801.707 55.3417 802.792 54.6971 803.717C54.3559 804.2 53.9387 804.613 53.46 804.94C53.2088 805.115 52.9387 805.262 52.659 805.38L59.4605 814.964L68.0536 810.665C67.8925 810.357 67.7645 810.035 67.6697 809.698C67.556 809.291 67.4944 808.864 67.4944 808.433C67.4944 808.238 67.5038 808.044 67.5228 807.854C67.7977 805.418 69.8547 803.57 72.3051 803.556C74.9783 803.537 77.1681 805.698 77.1823 808.371C77.2013 810.921 75.2201 813.063 72.6749 813.239L72.3715 813.248C71.8786 813.248 71.3952 813.182 70.9259 813.04C70.6226 812.945 70.3287 812.826 70.0538 812.675L65.7406 825.069C65.3473 826.211 64.2666 826.979 63.0579 826.989L38.7148 827.15V827.155Z" fill="#191D0A"/>
<path d="M49.9826 743.999C37.2841 743.999 24.5959 739.169 14.9263 729.5C-4.40252 710.171 -4.40252 678.726 14.9263 659.398C24.2941 650.03 36.7428 644.878 49.9826 644.878C63.2224 644.878 75.6711 650.03 85.0389 659.398C104.368 678.726 104.368 710.171 85.0389 729.5C75.3797 739.159 62.6811 743.999 49.9826 743.999ZM17.5285 726.898C35.4209 744.79 64.5338 744.79 82.4263 726.898C100.319 709.005 100.319 679.892 82.4263 662C73.7559 653.329 62.2335 648.562 49.9722 648.562C37.7108 648.562 26.1884 653.34 17.5181 662C-0.374391 679.892 -0.374391 709.005 17.5181 726.898H17.5285Z" fill="#EBF29D"/>
<path d="M49.3269 712.992C49.5039 713.418 49.9202 713.668 50.3574 713.668C50.5031 713.668 50.6489 713.637 50.7946 713.585C54.2919 712.117 57.4769 709.848 59.9958 707.017C60.4017 706.559 60.3601 705.851 59.9021 705.445C59.4441 705.039 58.7364 705.081 58.3304 705.539C56.0301 708.131 53.1261 710.202 49.9306 711.534C49.3686 711.774 49.0979 712.43 49.3373 712.992H49.3269Z" fill="#EBF29D"/>
<path d="M68.8728 677.311L50.3871 669.921C50.1164 669.817 49.825 669.817 49.5544 669.921L31.0686 677.311C30.6419 677.477 30.3712 677.883 30.3712 678.341V691.581C30.392 703.801 38.1153 714.844 49.5856 719.049C49.7105 719.091 49.8354 719.112 49.9707 719.112C50.106 719.112 50.2309 719.091 50.3558 719.049C61.8261 714.834 69.5494 703.801 69.5702 691.581V678.341C69.5702 677.883 69.2996 677.477 68.8728 677.311ZM67.3427 691.581C67.3219 702.698 60.3481 712.825 49.9811 716.812C39.6141 712.825 32.6299 702.698 32.6091 691.581V679.101L49.9811 672.159L67.3427 679.101V691.581Z" fill="#EBF29D"/>
<path d="M42.2585 679.049C41.9878 678.935 41.686 678.935 41.4049 679.049L37.0021 680.808C36.5754 680.975 36.3047 681.381 36.3047 681.839V686.533C36.3047 687.147 36.8043 687.647 37.4184 687.647C38.0325 687.647 38.5322 687.147 38.5322 686.533V682.599L42.2272 681.121C42.5082 681.006 42.7164 680.798 42.8413 680.517C42.9558 680.246 42.9558 679.944 42.8413 679.663C42.7268 679.382 42.5187 679.174 42.248 679.049H42.2585Z" fill="#EBF29D"/>
<path d="M78.1259 666.299C70.6109 658.773 60.6082 654.641 49.9706 654.641C39.333 654.641 29.3407 658.784 21.8152 666.299C6.29596 681.818 6.29596 707.08 21.8152 722.609C29.5801 730.374 39.7701 734.246 49.9706 734.246C60.171 734.246 70.3611 730.364 78.1259 722.609C93.6452 707.09 93.6452 681.828 78.1259 666.299ZM72.6198 691.581C72.651 705.706 63.6267 718.061 50.1683 722.339C50.0434 722.38 49.9081 722.38 49.7728 722.339C36.3144 718.061 27.2902 705.706 27.3214 691.581V675.958C27.3214 675.698 27.4775 675.458 27.7273 675.354L49.7312 666.559C49.8041 666.528 49.8873 666.517 49.9706 666.517C50.0539 666.517 50.1371 666.528 50.21 666.559L72.2138 675.364C72.4636 675.458 72.6198 675.698 72.6198 675.968V691.592V691.581Z" fill="#EBF29D"/>
<path d="M50.1273 617.389C22.8046 617.389 0.582153 595.156 0.582153 567.844C0.582153 540.531 22.815 518.299 50.1273 518.299C77.4396 518.299 99.6724 540.531 99.6724 567.844C99.6724 595.156 77.4396 617.389 50.1273 617.389ZM50.1273 521.598C24.6261 521.598 3.88174 542.343 3.88174 567.844C3.88174 593.345 24.6261 614.089 50.1273 614.089C75.6285 614.089 96.3729 593.345 96.3729 567.844C96.3729 542.343 75.6285 521.598 50.1273 521.598Z" fill="white"/>
<path d="M66.1979 536.899C65.9481 536.899 65.6983 536.847 65.4693 536.732C60.6709 534.359 55.5082 533.152 50.127 533.152C44.7457 533.152 39.583 534.359 34.7847 536.732C34.1497 537.045 33.3899 536.92 32.8903 536.42L24.376 527.906C24.0117 527.542 23.8452 527.042 23.9076 526.532C23.9701 526.022 24.2615 525.574 24.6987 525.314C32.3699 520.714 41.1652 518.288 50.1374 518.288C59.1096 518.288 67.9049 520.724 75.5761 525.314C76.0133 525.574 76.3047 526.022 76.3671 526.532C76.4296 527.042 76.2527 527.542 75.8988 527.906L67.3845 536.42C67.0618 536.732 66.6455 536.899 66.2083 536.899H66.1979ZM50.127 529.852C55.6123 529.852 60.8999 530.997 65.8544 533.256L72.0163 527.094C65.3131 523.482 57.7877 521.588 50.127 521.588C42.4662 521.588 34.9408 523.482 28.2376 527.094L34.3996 533.256C39.3541 530.997 44.6416 529.852 50.127 529.852Z" fill="white"/>
<path d="M50.1252 617.389C41.1529 617.389 32.3576 614.953 24.6865 610.363C24.2493 610.103 23.9579 609.655 23.8954 609.145C23.833 608.635 24.0099 608.136 24.3638 607.771L32.8781 599.257C33.3777 598.757 34.1479 598.633 34.7725 598.945C39.5708 601.318 44.7335 602.525 50.1148 602.525C55.496 602.525 60.6587 601.318 65.4571 598.945C66.092 598.633 66.8519 598.757 67.3515 599.257L75.8657 607.771C76.23 608.136 76.3966 608.635 76.3341 609.145C76.2717 609.655 75.9802 610.103 75.5431 610.363C67.8719 614.964 59.0766 617.389 50.1044 617.389H50.1252ZM28.2358 608.583C34.939 612.195 42.4644 614.089 50.1252 614.089C57.7859 614.089 65.3114 612.195 72.0145 608.583L65.8526 602.421C60.8981 604.68 55.6105 605.825 50.1252 605.825C44.6398 605.825 39.3523 604.68 34.3978 602.421L28.2358 608.583Z" fill="white"/>
<path d="M91.2331 594.074C90.7959 594.074 90.3796 593.907 90.0673 593.595L81.553 585.08C81.0534 584.581 80.9285 583.811 81.2408 583.186C83.614 578.388 84.8213 573.225 84.8213 567.844C84.8213 562.463 83.614 557.3 81.2408 552.501C80.9285 551.867 81.0534 551.096 81.553 550.607L90.0673 542.093C90.4316 541.729 90.9312 541.562 91.4413 541.624C91.9513 541.687 92.3988 541.978 92.659 542.415C97.2597 550.087 99.6849 558.882 99.6849 567.854C99.6849 576.826 97.2597 585.622 92.659 593.293C92.3988 593.73 91.9513 594.022 91.4413 594.084C91.3684 594.084 91.3059 594.084 91.2331 594.084V594.074ZM84.7068 583.561L90.8688 589.723C94.4806 583.02 96.3749 575.494 96.3749 567.833C96.3749 560.173 94.4806 552.647 90.8688 545.944L84.7068 552.106C86.9655 557.06 88.1105 562.348 88.1105 567.833C88.1105 573.319 86.9655 578.606 84.7068 583.561Z" fill="white"/>
<path d="M9.02385 594.074C8.95099 594.074 8.88853 594.074 8.82608 594.063C8.31606 594.001 7.86844 593.709 7.60823 593.272C3.00761 585.601 0.582397 576.806 0.582397 567.833C0.582397 558.861 3.00761 550.066 7.60823 542.395C7.86844 541.958 8.31606 541.666 8.82608 541.604C9.33611 541.541 9.83573 541.718 10.2 542.072L18.7143 550.586C19.2139 551.086 19.3388 551.856 19.0265 552.481C16.6534 557.279 15.446 562.442 15.446 567.823C15.446 573.204 16.6534 578.367 19.0265 583.165C19.3388 583.8 19.2139 584.571 18.7143 585.06L10.2 593.574C9.88777 593.886 9.47137 594.063 9.03421 594.063L9.02385 594.074ZM9.38813 545.944C5.77633 552.647 3.88198 560.173 3.88198 567.833C3.88198 575.494 5.77633 583.02 9.38813 589.723L15.55 583.561C13.2913 578.606 12.1464 573.319 12.1464 567.833C12.1464 562.348 13.2913 557.06 15.55 552.106L9.38813 545.944Z" fill="white"/>
<path d="M50.1284 529.852C29.1862 529.852 12.1368 546.891 12.1368 567.844C12.1368 588.796 29.1758 605.835 50.1284 605.835C71.0809 605.835 88.1199 588.796 88.1199 567.844C88.1199 546.891 71.0809 529.852 50.1284 529.852ZM71.5077 555.364C73.3084 558.445 74.4013 561.807 74.7552 565.377C74.7656 565.523 74.7031 565.658 74.5782 565.731C71.8616 567.396 69.4259 569.436 67.3234 571.82C67.2297 571.934 67.0736 571.976 66.9383 571.924L62.244 570.394C62.1087 570.352 62.015 570.238 61.9942 570.092C61.4633 566.21 60.256 562.494 58.4032 559.038C58.3408 558.913 58.3512 558.768 58.4344 558.653L61.3384 554.656C61.4113 554.562 61.5258 554.5 61.6403 554.5C61.6715 554.5 61.6924 554.5 61.7236 554.5C64.8254 555.187 68.0104 555.416 71.1746 555.156C71.3203 555.145 71.4556 555.218 71.5285 555.343L71.5077 555.364ZM59.4337 570.748C59.4441 570.852 59.4128 570.956 59.3504 571.029C56.8835 573.87 53.7402 576.15 50.2741 577.607C50.1804 577.649 50.0867 577.649 49.993 577.607C46.527 576.14 43.3835 573.86 40.9167 571.029C40.8542 570.956 40.823 570.852 40.8335 570.748C41.3123 566.98 42.4884 563.379 44.3099 560.048C44.3619 559.954 44.4453 559.892 44.5493 559.871C46.3813 559.486 48.2548 559.288 50.1388 559.288C52.0227 559.288 53.8963 559.486 55.7282 559.871C55.8323 559.892 55.9155 559.954 55.9676 560.048C57.7891 563.379 58.9549 566.98 59.4441 570.748H59.4337ZM58.8716 544.914C58.8716 544.914 58.9965 544.809 59.1214 544.809C59.1631 544.809 59.2151 544.81 59.2671 544.841C63.0975 546.36 66.522 548.858 69.1866 552.054C69.3219 552.21 69.2698 552.377 69.2386 552.439C69.2178 552.491 69.1241 552.658 68.9055 552.658C66.5428 552.689 64.1904 552.418 61.9109 551.877C61.8173 551.856 61.734 551.794 61.6819 551.71C60.4641 549.702 59.4857 547.537 58.7779 545.288C58.7155 545.091 58.83 544.955 58.882 544.914H58.8716ZM44.872 543.665C48.3173 542.926 51.9499 542.926 55.3951 543.665C55.5304 543.696 55.6449 543.8 55.6761 543.935C56.4151 547.027 57.6122 549.983 59.2255 552.72C59.2984 552.845 59.2879 553.001 59.2047 553.126L56.3215 557.102C56.2382 557.217 56.0925 557.279 55.9572 557.248C52.1476 556.478 48.1195 556.478 44.3099 557.248C44.1746 557.279 44.0289 557.217 43.9456 557.102L41.0624 553.126C40.9791 553.012 40.9687 552.845 41.0416 552.72C42.6549 549.983 43.8519 547.027 44.591 543.935C44.6222 543.8 44.7367 543.696 44.872 543.665ZM31.0806 552.054C33.7452 548.848 37.1696 546.35 41 544.841C41.052 544.82 41.1041 544.809 41.1457 544.809C41.281 544.809 41.3643 544.882 41.3955 544.914C41.4475 544.966 41.562 545.091 41.4996 545.288C40.7918 547.547 39.8134 549.702 38.5956 551.71C38.5435 551.794 38.4603 551.856 38.3666 551.877C36.0871 552.418 33.7347 552.689 31.372 552.658C31.1534 552.658 31.0597 552.491 31.0389 552.439C31.0077 552.377 30.9556 552.21 31.0909 552.054H31.0806ZM28.7594 555.364C28.8219 555.249 28.9468 555.177 29.0821 555.177C29.0821 555.177 29.1029 555.177 29.1133 555.177C32.288 555.426 35.473 555.208 38.5644 554.521C38.7101 554.49 38.8558 554.542 38.9391 554.667L41.8431 558.663C41.9263 558.778 41.9368 558.934 41.8743 559.049C40.0216 562.504 38.8142 566.22 38.2833 570.103C38.2625 570.238 38.1688 570.352 38.0335 570.404L33.3392 571.934C33.2039 571.976 33.0478 571.934 32.9541 571.83C30.8516 569.447 28.4159 567.407 25.6993 565.741C25.5848 565.668 25.5119 565.533 25.5223 565.387C25.8762 561.817 26.9691 558.445 28.7698 555.374L28.7594 555.364ZM29.894 581.011C29.8315 581.209 29.6546 581.25 29.5817 581.261C29.5089 581.261 29.3423 581.261 29.2278 581.094C27.0108 577.607 25.6993 573.569 25.439 569.426C25.4286 569.218 25.5639 569.114 25.6264 569.082C25.6888 569.051 25.8554 568.978 26.0219 569.103C27.9475 570.467 29.6962 572.07 31.2262 573.85C31.2887 573.922 31.3199 574.016 31.3095 574.12C31.1222 576.462 30.6434 578.783 29.8836 581.021L29.894 581.011ZM40.1777 590.514C36.9302 589.088 34.0678 586.996 31.6738 584.31C31.5801 584.206 31.549 584.05 31.601 583.925C32.8188 580.99 33.589 577.899 33.8909 574.734C33.9013 574.589 34.0054 574.464 34.1407 574.422L38.7829 572.913C38.7829 572.913 38.8558 572.892 38.8974 572.892C39.0015 572.892 39.0952 572.934 39.168 573.017C41.7702 575.931 45.0281 578.304 48.5983 579.876C48.7336 579.939 48.8169 580.064 48.8169 580.209V585.091C48.8169 585.237 48.7336 585.372 48.5983 585.424C45.6838 586.683 42.9776 588.38 40.5524 590.451C40.4483 590.545 40.2922 590.566 40.1673 590.503L40.1777 590.514ZM56.5505 591.544C56.5401 591.617 56.488 591.784 56.2798 591.836C52.2621 592.856 48.0154 592.856 43.9977 591.836C43.7999 591.784 43.7374 591.617 43.727 591.544C43.7166 591.471 43.6958 591.305 43.8728 591.17C45.7671 589.764 47.8281 588.588 50.0035 587.683C50.0971 587.641 50.1908 587.641 50.2845 587.683C52.4494 588.588 54.5104 589.764 56.4152 591.17C56.5817 591.295 56.5713 591.471 56.5609 591.544H56.5505ZM68.6141 584.321C66.2201 587.006 63.3577 589.088 60.1102 590.514C59.9749 590.576 59.8292 590.545 59.7251 590.462C57.2999 588.391 54.6041 586.694 51.6792 585.434C51.5439 585.372 51.4606 585.247 51.4606 585.101V580.22C51.4606 580.074 51.5439 579.939 51.6792 579.887C55.2494 578.315 58.5177 575.942 61.1095 573.027C61.1823 572.944 61.276 572.902 61.3801 572.902C61.4217 572.902 61.4529 572.902 61.4946 572.923L66.1368 574.432C66.2722 574.474 66.3762 574.599 66.3866 574.745C66.6885 577.909 67.4587 580.99 68.6766 583.936C68.7286 584.06 68.7078 584.217 68.6037 584.321H68.6141ZM71.0497 581.104C70.9352 581.281 70.7583 581.281 70.6958 581.271C70.623 581.271 70.4564 581.219 70.3835 581.021C69.6341 578.783 69.1553 576.462 68.9575 574.12C68.9575 574.027 68.9784 573.922 69.0408 573.85C70.5709 572.07 72.3196 570.477 74.2451 569.103C74.318 569.051 74.3909 569.03 74.4533 569.03C74.5366 569.03 74.599 569.062 74.6407 569.082C74.7031 569.114 74.8488 569.218 74.828 569.426C74.5678 573.569 73.2563 577.607 71.0393 581.094L71.0497 581.104Z" fill="white"/>
<path d="M49.9826 493.932C37.2841 493.932 24.5959 489.102 14.9263 479.433C-4.40252 460.104 -4.40252 428.659 14.9263 409.331C24.2941 399.963 36.7428 394.811 49.9826 394.811C63.2224 394.811 75.6711 399.963 85.0389 409.331C104.368 428.659 104.368 460.104 85.0389 479.433C75.3797 489.092 62.6811 493.932 49.9826 493.932ZM17.5285 476.831C35.4209 494.723 64.5338 494.723 82.4263 476.831C100.319 458.938 100.319 429.825 82.4263 411.933C73.7559 403.262 62.2335 398.495 49.9722 398.495C37.7108 398.495 26.1884 403.273 17.5181 411.933C-0.374391 429.825 -0.374391 458.938 17.5181 476.831H17.5285Z" fill="#EBF29D"/>
<path d="M49.3269 462.935C49.5039 463.362 49.9202 463.612 50.3574 463.612C50.5031 463.612 50.6489 463.58 50.7946 463.528C54.2919 462.061 57.4769 459.792 59.9958 456.961C60.4017 456.503 60.3601 455.795 59.9021 455.389C59.4441 454.983 58.7364 455.025 58.3304 455.483C56.0301 458.074 53.1261 460.146 49.9306 461.478C49.3686 461.717 49.0979 462.373 49.3373 462.935H49.3269Z" fill="#EBF29D"/>
<path d="M68.8728 427.244L50.3871 419.854C50.1164 419.75 49.825 419.75 49.5544 419.854L31.0686 427.244C30.6419 427.41 30.3712 427.816 30.3712 428.274V441.514C30.392 453.734 38.1153 464.777 49.5856 468.982C49.7105 469.024 49.8354 469.045 49.9707 469.045C50.106 469.045 50.2309 469.024 50.3558 468.982C61.8261 464.767 69.5494 453.734 69.5702 441.514V428.274C69.5702 427.816 69.2996 427.41 68.8728 427.244ZM67.3427 441.514C67.3219 452.63 60.3481 462.758 49.9811 466.745C39.6141 462.758 32.6299 452.63 32.6091 441.514V429.034L49.9811 422.092L67.3427 429.034V441.514Z" fill="#EBF29D"/>
<path d="M42.2585 428.982C41.9878 428.867 41.686 428.867 41.4049 428.982L37.0021 430.741C36.5754 430.908 36.3047 431.314 36.3047 431.771V436.466C36.3047 437.08 36.8043 437.58 37.4184 437.58C38.0325 437.58 38.5322 437.08 38.5322 436.466V432.531L42.2272 431.053C42.5082 430.939 42.7164 430.731 42.8413 430.45C42.9558 430.179 42.9558 429.877 42.8413 429.596C42.7268 429.315 42.5187 429.107 42.248 428.982H42.2585Z" fill="#EBF29D"/>
<path d="M78.1259 416.232C70.6109 408.706 60.6082 404.574 49.9706 404.574C39.333 404.574 29.3407 408.717 21.8152 416.232C6.29596 431.751 6.29596 457.013 21.8152 472.542C29.5801 480.307 39.7701 484.179 49.9706 484.179C60.171 484.179 70.3611 480.297 78.1259 472.542C93.6452 457.023 93.6452 431.761 78.1259 416.232ZM72.6198 441.514C72.651 455.639 63.6267 467.994 50.1683 472.272C50.0434 472.313 49.9081 472.313 49.7728 472.272C36.3144 467.994 27.2902 455.639 27.3214 441.514V425.891C27.3214 425.631 27.4775 425.391 27.7273 425.287L49.7312 416.492C49.8041 416.461 49.8873 416.45 49.9706 416.45C50.0539 416.45 50.1371 416.461 50.21 416.492L72.2138 425.297C72.4636 425.391 72.6198 425.631 72.6198 425.901V441.525V441.514Z" fill="#EBF29D"/>
<path d="M50.3967 371.62C23.074 371.62 0.851562 349.387 0.851562 322.075C0.851562 294.763 23.0844 272.53 50.3967 272.53C77.709 272.53 99.9418 294.763 99.9418 322.075C99.9418 349.387 77.709 371.62 50.3967 371.62ZM50.3967 275.829C24.8956 275.829 4.15108 296.574 4.15108 322.075C4.15108 347.576 24.8956 368.32 50.3967 368.32C75.8979 368.32 96.6423 347.576 96.6423 322.075C96.6423 296.574 75.8979 275.829 50.3967 275.829Z" fill="#11F8A5"/>
<path d="M82.7174 286.728L67.3792 302.067L70.3968 305.084L85.7351 289.746L82.7174 286.728Z" fill="#11F8A5"/>
<path d="M29.9243 339.52L14.5861 354.858L17.6036 357.876L32.9419 342.537L29.9243 339.52Z" fill="#11F8A5"/>
<path d="M70.8616 339.535L67.844 342.552L83.1822 357.891L86.1999 354.873L70.8616 339.535Z" fill="#11F8A5"/>
<path d="M17.5999 286.266L14.5823 289.284L29.9132 304.615L32.9308 301.597L17.5999 286.266Z" fill="#11F8A5"/>
<path d="M62.4808 323.407C63.48 322.408 63.48 320.795 62.4808 319.806L60.3574 317.693C59.3582 316.694 57.7449 316.694 56.7561 317.693L55.6111 318.838L54.2892 317.516C53.29 316.517 51.6766 316.517 50.6878 317.516L49.5429 318.671L48.221 317.339C47.2217 316.34 45.6084 316.34 44.6195 317.339L37.5937 324.365C37.5417 324.417 37.5417 324.5 37.5937 324.563C38.5305 325.499 40.0606 325.499 41.0078 324.563L45.5355 320.035C46.0247 319.546 46.8158 319.546 47.305 320.035L47.6381 320.368C47.7005 320.43 47.7005 320.524 47.6381 320.587L43.8597 324.365C43.8077 324.417 43.8077 324.5 43.8597 324.563C44.7965 325.499 46.3266 325.499 47.2738 324.563L51.6142 320.222C52.1034 319.733 52.8945 319.733 53.3837 320.222L53.7167 320.555C53.7688 320.607 53.7688 320.691 53.7167 320.753L50.0737 324.396C50.0217 324.448 50.0217 324.531 50.0737 324.594C51.0105 325.531 52.5405 325.531 53.4877 324.594L57.6824 320.399C58.1716 319.91 58.9626 319.91 59.4519 320.399L60.1701 321.117C60.4511 321.398 60.4511 321.867 60.1701 322.148L60.0556 322.262C59.7745 322.543 59.3062 322.543 59.0251 322.262L58.0987 321.336C58.0467 321.284 57.9634 321.284 57.901 321.336L56.2981 322.939C56.246 322.991 56.246 323.074 56.2981 323.137L57.7449 324.583C58.7441 325.583 60.3574 325.583 61.3462 324.583L62.4912 323.438L62.4808 323.407Z" fill="#11F8A5"/>
<path d="M50.3978 284.083C29.414 284.083 12.4062 301.091 12.4062 322.075C12.4062 343.059 29.414 360.066 50.3978 360.066C71.3816 360.066 88.3893 343.059 88.3893 322.075C88.3893 301.091 71.3816 284.083 50.3978 284.083ZM51.9486 295.814C58.0481 296.168 63.5855 298.603 67.8738 302.413L62.3885 307.898C59.5261 305.473 55.9143 303.901 51.9486 303.568V295.814ZM48.8572 295.814V303.568C44.8916 303.891 41.2798 305.473 38.4174 307.898L32.932 302.413C37.2204 298.603 42.7578 296.168 48.8572 295.814ZM30.7463 304.599L36.2316 310.084C33.8064 312.947 32.2347 316.558 31.9016 320.524H24.1472C24.5011 314.425 26.9367 308.887 30.7463 304.599ZM24.1472 323.615H31.9016C32.2243 327.581 33.8064 331.193 36.2316 334.055L30.7463 339.541C26.9367 335.252 24.5011 329.715 24.1472 323.615ZM48.8572 348.326C42.7578 347.972 37.2204 345.536 32.932 341.726L38.4174 336.241C41.2798 338.666 44.8916 340.238 48.8572 340.571V348.326ZM34.4309 322.064C34.4309 313.248 41.5817 306.098 50.3978 306.098C59.2139 306.098 66.3646 313.248 66.3646 322.064C66.3646 330.881 59.2139 338.031 50.3978 338.031C41.5817 338.031 34.4309 330.881 34.4309 322.064ZM51.9486 348.326V340.571C55.9143 340.248 59.5261 338.666 62.3885 336.241L67.8738 341.726C63.5855 345.536 58.0481 347.972 51.9486 348.326ZM70.0596 339.541L64.5743 334.055C66.9995 331.193 68.5712 327.581 68.9043 323.615H76.6587C76.3048 329.715 73.8692 335.252 70.0596 339.541ZM68.9043 320.524C68.5816 316.558 66.9995 312.947 64.5743 310.084L70.0596 304.599C73.8692 308.887 76.3048 314.425 76.6587 320.524H68.9043Z" fill="#11F8A5"/>
<path d="M15.4881 227.259C-4.00158 207.769 -4.00158 176.061 15.4881 156.571C34.9779 137.081 66.6866 137.081 86.1763 156.571C105.666 176.061 105.666 207.769 86.1763 227.259C66.6866 246.749 34.9779 246.749 15.4881 227.259ZM83.8207 158.926C65.6296 140.735 36.0348 140.735 17.8485 158.926C-0.342528 177.117 -0.342528 206.712 17.8485 224.899C36.0396 243.09 65.6344 243.09 83.8207 224.899C102.012 206.708 102.012 177.113 83.8207 158.926Z" fill="white"/>
<path d="M84.3639 181.312C84.1885 181.137 84.0464 180.914 83.9658 180.668C82.2358 175.549 79.4109 171.013 75.5717 167.174C71.7373 163.339 67.1966 160.514 62.0777 158.78C61.4 158.547 60.9449 157.917 60.9449 157.201V145.053C60.9449 144.542 61.1819 144.058 61.5848 143.741C61.9924 143.423 62.5185 143.314 63.0115 143.437C71.761 145.627 79.7711 150.168 86.1697 156.571C92.5683 162.974 97.109 170.98 99.2988 179.729C99.422 180.227 99.3082 180.753 98.9954 181.161C98.6779 181.568 98.1944 181.8 97.6825 181.8H85.5346C85.0796 181.8 84.6625 181.616 84.3544 181.308L84.3639 181.312ZM77.9273 164.818C81.8423 168.733 84.7952 173.321 86.7195 178.468H95.507C93.2983 171.112 89.2837 164.391 83.8188 158.927C78.3539 153.462 71.633 149.447 64.2817 147.243V156.031C69.4291 157.95 74.0171 160.903 77.9321 164.823L77.9273 164.818Z" fill="white"/>
<path d="M15.4868 227.259C9.08822 220.86 4.54282 212.85 2.35307 204.101C2.22984 203.603 2.3436 203.077 2.65642 202.674C2.97398 202.266 3.45741 202.034 3.9693 202.034H16.1172C16.8329 202.034 17.468 202.489 17.6955 203.167C19.4255 208.286 22.2504 212.822 26.0896 216.661C29.924 220.495 34.4647 223.32 39.5836 225.055C40.2614 225.283 40.7163 225.918 40.7163 226.633V238.781C40.7163 239.293 40.4794 239.777 40.0765 240.094C39.6689 240.412 39.1427 240.521 38.6451 240.397C29.8956 238.208 21.8902 233.667 15.4868 227.268V227.259ZM6.15433 205.361C8.36304 212.718 12.3776 219.438 17.8425 224.903C23.3074 230.368 30.0283 234.383 37.3843 236.591V227.804C32.237 225.884 27.6489 222.932 23.7339 219.017C19.8189 215.102 16.8661 210.514 14.9418 205.366H6.15433V205.361Z" fill="white"/>
<path d="M61.4332 239.952C61.1203 239.639 60.9449 239.217 60.9449 238.772V226.624C60.9449 225.908 61.4 225.273 62.0777 225.046C67.1966 223.316 71.7325 220.491 75.5717 216.652C79.4109 212.812 82.231 208.277 83.9657 203.158C84.1932 202.48 84.8284 202.025 85.5441 202.025H97.692C98.2039 202.025 98.6873 202.262 99.0049 202.665C99.3225 203.068 99.4315 203.598 99.3083 204.091C97.1138 212.841 92.5731 220.846 86.1745 227.25C79.7758 233.653 71.7657 238.194 63.0162 240.383C62.5185 240.507 61.9924 240.393 61.5895 240.08C61.5374 240.033 61.4853 239.99 61.4379 239.943L61.4332 239.952ZM64.277 227.799V236.587C71.633 234.378 78.3539 230.364 83.8188 224.899C89.2837 219.434 93.2935 212.713 95.507 205.357H86.7195C84.7999 210.504 81.8471 215.088 77.9273 219.007C74.0123 222.922 69.4243 225.88 64.277 227.799Z" fill="white"/>
<path d="M2.78986 181.312C2.74246 181.265 2.69508 181.213 2.65716 181.161C2.3396 180.758 2.23058 180.227 2.35381 179.729C4.54356 170.98 9.08422 162.97 15.4876 156.571C21.8909 150.172 29.8963 145.627 38.6458 143.437C39.1435 143.314 39.6696 143.428 40.0725 143.741C40.4754 144.058 40.7124 144.542 40.7124 145.054V157.201C40.7124 157.917 40.2574 158.552 39.5796 158.78C34.4607 160.51 29.9247 163.335 26.0856 167.174C22.2511 171.008 19.4263 175.549 17.6915 180.668C17.464 181.346 16.8289 181.801 16.1132 181.801H3.96533C3.5198 181.801 3.0932 181.625 2.78512 181.317L2.78986 181.312ZM37.3803 147.243C30.0243 149.452 23.3034 153.467 17.8385 158.931C12.3736 164.396 8.36378 171.117 6.15033 178.473H14.9378C16.8573 173.326 19.8102 168.743 23.7299 164.823C27.6449 160.908 32.233 157.955 37.3803 156.031V147.243Z" fill="white"/>
<path d="M77.9314 164.818C62.9918 149.878 38.6771 149.874 23.7375 164.818C8.79315 179.762 8.79789 204.072 23.7375 219.012C38.6771 233.951 62.9871 233.956 77.9314 219.012C92.8757 204.068 92.871 179.758 77.9314 164.818Z" fill="white"/>
<path d="M64.6504 205.592L37.1227 205.775C35.9631 205.783 35.0293 206.729 35.037 207.889L35.0435 208.87C35.0512 210.029 35.9975 210.963 37.1571 210.955L64.6848 210.773C65.8444 210.765 66.7782 209.819 66.7705 208.659L66.764 207.678C66.7563 206.519 65.81 205.585 64.6504 205.592Z" fill="#191D0A"/>
<path d="M40.8732 188.976C40.5746 188.976 40.2713 188.91 39.9964 188.777L37.8492 187.739C36.9155 187.284 36.4889 186.18 36.8776 185.218L37.8635 182.762C38.1668 182.014 38.8825 181.525 39.6883 181.521C40.0343 181.521 40.3755 181.606 40.6788 181.781L43.2383 183.241C43.717 183.511 44.063 183.981 44.1862 184.521C44.3095 185.061 44.2005 185.63 43.8876 186.085L42.4847 188.118C42.1197 188.649 41.513 188.971 40.8684 188.971L40.8732 188.976Z" fill="#191D0A"/>
<path d="M60.6919 188.844C60.0473 188.844 59.4359 188.536 59.0663 188.009L57.6775 186.052C57.3552 185.602 57.2415 185.033 57.3552 184.493C57.469 183.952 57.8102 183.478 58.2889 183.199L60.9289 181.649C61.2275 181.473 61.5688 181.379 61.9148 181.374C62.7206 181.369 63.4458 181.848 63.7586 182.592L64.7539 184.976C65.152 185.933 64.7397 187.047 63.8155 187.512L61.5688 188.635C61.2987 188.768 60.9953 188.844 60.6967 188.844H60.6919Z" fill="#191D0A"/>
<path d="M38.7106 203.935C37.502 203.944 36.4166 203.186 36.0043 202.048L31.4115 189.407C31.1176 189.55 30.8048 189.659 30.4872 189.739C30.1128 189.834 29.7336 189.881 29.3497 189.881C29.1269 189.881 28.9089 189.872 28.6956 189.844C26.302 189.54 24.4868 187.488 24.4725 185.071C24.4536 182.397 26.6148 180.208 29.288 180.189C31.9612 180.17 34.151 182.331 34.1652 185.004C34.1652 185.62 34.0609 186.213 33.8429 186.767C33.7244 187.071 33.5775 187.36 33.4069 187.635L42.1422 191.863L48.8252 182.179C48.5456 182.061 48.2754 181.914 48.0194 181.739C47.536 181.412 47.1141 181.004 46.7729 180.525C46.1946 179.71 45.8818 178.748 45.8771 177.753C45.8581 175.079 48.0194 172.89 50.6926 172.871C50.8111 172.871 50.9344 172.871 51.0529 172.88C53.4464 173.041 55.3802 174.961 55.5556 177.354C55.6362 178.487 55.3376 179.573 54.693 180.497C54.3517 180.98 53.9346 181.393 53.4559 181.72C53.2047 181.895 52.9345 182.042 52.6549 182.16L59.4564 191.744L68.0495 187.445C67.8883 187.137 67.7604 186.815 67.6656 186.478C67.5518 186.071 67.4902 185.644 67.4902 185.213C67.4902 185.018 67.4997 184.824 67.5186 184.635C67.7935 182.198 69.8506 180.35 72.301 180.336C74.9742 180.317 77.164 182.478 77.1782 185.151C77.1971 187.701 75.2159 189.844 72.6707 190.019L72.3674 190.028C71.8744 190.028 71.391 189.962 70.9218 189.82C70.6184 189.725 70.3245 189.607 70.0496 189.455L65.7365 201.849C65.3431 202.992 64.2624 203.759 63.0538 203.769L38.7106 203.93V203.935Z" fill="#191D0A"/>
<path d="M100.411 71.0394V190.635C100.411 191.623 99.6098 192.414 98.6314 192.414C97.653 192.414 96.8516 191.613 96.8516 190.635V71.0394C96.8516 70.0506 97.653 69.2595 98.6314 69.2595C99.6098 69.2595 100.411 70.061 100.411 71.0394Z" fill="white"/>
<path d="M4.86833 70.7791V190.374C4.86833 191.363 4.0669 192.154 3.08849 192.154C2.11008 192.154 1.30859 191.353 1.30859 190.374V70.7791C1.30859 69.7903 2.11008 68.9993 3.08849 68.9993C4.0669 68.9993 4.86833 69.8007 4.86833 70.7791Z" fill="white"/>
<path d="M100.09 68.5557C100.09 69.5445 99.2888 70.3356 98.3104 70.3356C97.332 70.3356 96.5305 69.5341 96.5305 68.5557C96.5305 43.2002 75.9006 22.5703 50.5452 22.5703C25.1897 22.5703 4.55983 43.2002 4.55983 68.5557C4.55983 69.5445 3.75834 70.3356 2.77993 70.3356C1.80151 70.3356 1.00009 69.5341 1.00009 68.5557C1.00009 41.233 23.2329 19.0002 50.5556 19.0002C77.8783 19.0002 100.111 41.233 100.111 68.5557L100.09 68.5557Z" fill="white"/>
</g>
</svg>
