<svg width="608" height="51" viewBox="0 0 608 51" fill="none" xmlns="http://www.w3.org/2000/svg">
<g opacity="0.6">
<path d="M511.812 49.3934C498.381 49.3934 487.452 38.4641 487.452 25.0327C487.452 11.6012 498.381 0.671916 511.812 0.671916C525.244 0.671916 536.173 11.6012 536.173 25.0327C536.173 38.4641 525.244 49.3934 511.812 49.3934ZM511.812 2.42695C499.348 2.42695 489.207 12.5683 489.207 25.0327C489.207 37.497 499.348 47.6384 511.812 47.6384C524.277 47.6384 534.418 37.497 534.418 25.0327C534.418 12.5683 524.277 2.42695 511.812 2.42695Z" fill="#11F8A5"/>
<path d="M571.366 49.3946C570.88 49.3946 570.491 49.0006 570.491 48.5196C570.491 48.0386 570.885 47.6446 571.366 47.6446C583.83 47.6446 593.971 37.5033 593.971 25.0389C593.971 12.5746 583.83 2.43321 571.366 2.43321C570.88 2.43321 570.491 2.03921 570.491 1.55824C570.491 1.07727 570.885 0.6833 571.366 0.6833C584.797 0.6833 595.726 11.6126 595.726 25.044C595.726 38.4755 584.797 49.4048 571.366 49.4048V49.3946Z" fill="#11F8A5"/>
<path d="M535.976 24.0653H525.307V26.1683H535.976V24.0653Z" fill="#11F8A5"/>
<path d="M499.243 24.0653H488.575V26.1683H499.243V24.0653Z" fill="#11F8A5"/>
<path d="M513.494 38.3101H511.392V48.9785H513.494V38.3101Z" fill="#11F8A5"/>
<path d="M513.494 1.25488H511.392V11.9233H513.494V1.25488Z" fill="#11F8A5"/>
<path d="M524.985 11.7697C517.689 4.47325 505.854 4.47325 498.552 11.7697C491.256 19.0662 491.256 30.9012 498.552 38.2027C505.849 45.4992 517.684 45.4992 524.985 38.2027C532.282 30.9063 532.282 19.0713 524.985 11.7697ZM515.381 13.3508C517.51 14.0108 519.418 15.244 520.902 16.9223L521.189 17.2446L520.769 17.3418C519.659 17.6028 518.472 17.8177 517.244 17.9763L517.024 18.007L516.962 17.7921C516.758 17.0911 516.517 16.4157 516.241 15.7914C515.898 15.0086 515.514 14.3229 515.095 13.7448L514.634 13.1154L515.381 13.3457V13.3508ZM506.841 24.4029L506.852 24.1368C506.903 22.5199 507.082 20.9747 507.389 19.5523L507.435 19.3271L507.665 19.3476C510.357 19.583 513.232 19.5727 515.908 19.322L516.138 19.3015L516.19 19.5267C516.502 20.9645 516.681 22.5148 516.727 24.1368V24.4029H506.846H506.841ZM516.727 25.59V25.8561C516.671 27.4781 516.492 29.0284 516.179 30.4662L516.128 30.6914L515.898 30.6709C513.222 30.4202 510.346 30.4151 507.655 30.6453L507.425 30.6658L507.379 30.4406C507.072 29.0182 506.893 27.4781 506.841 25.8561L506.831 25.59H516.717H516.727ZM511.784 12.9056C513.273 12.9056 514.788 14.7937 515.734 17.8381L515.831 18.1452L515.509 18.1707C514.25 18.2782 512.951 18.3345 511.646 18.3345C510.433 18.3345 509.226 18.2884 508.049 18.1912L507.727 18.1656L507.824 17.8535C508.77 14.7988 510.29 12.9005 511.784 12.9005V12.9056ZM502.615 16.9785C504.109 15.2747 506.033 14.0211 508.187 13.3559L508.939 13.1257L508.474 13.7601C508.054 14.3332 507.665 15.0239 507.327 15.8017C507.056 16.4157 506.811 17.1013 506.596 17.8381L506.534 18.0479L506.314 18.0224C505.076 17.8689 503.879 17.6642 502.753 17.4032L502.328 17.306L502.615 16.9785ZM499.627 24.1266C499.77 22.1311 500.41 20.1867 501.479 18.4931L501.581 18.3345L501.766 18.3805C503.075 18.7131 504.488 18.9792 505.972 19.1685L506.248 19.2043L506.192 19.4806C505.885 20.9645 505.711 22.5353 505.665 24.1522V24.4029H499.611L499.632 24.1266H499.627ZM501.581 31.6584L501.479 31.4998C500.41 29.8113 499.77 27.8618 499.627 25.8663L499.606 25.59H505.654V25.8407C505.705 27.4576 505.885 29.0336 506.186 30.5123L506.243 30.7886L505.966 30.8244C504.488 31.0137 503.07 31.2798 501.76 31.6124L501.576 31.6584H501.581ZM508.187 36.6421C506.033 35.9769 504.109 34.7234 502.615 33.0195L502.328 32.692L502.753 32.5948C503.879 32.339 505.076 32.1292 506.314 31.9757L506.534 31.9501L506.596 32.1599C506.811 32.8967 507.056 33.5823 507.327 34.1963C507.67 34.9792 508.054 35.6648 508.474 36.243L508.939 36.8775L508.187 36.6472V36.6421ZM511.784 37.0873C510.29 37.0873 508.77 35.189 507.824 32.1343L507.727 31.8222L508.049 31.7966C510.49 31.6022 513.089 31.6073 515.509 31.817L515.831 31.8426L515.734 32.1496C514.783 35.189 513.268 37.0822 511.784 37.0822V37.0873ZM520.902 33.0707C519.418 34.7489 517.505 35.9821 515.381 36.6421L514.634 36.8724L515.095 36.243C515.514 35.67 515.898 34.9792 516.241 34.1963C516.512 33.567 516.758 32.8967 516.962 32.1957L517.024 31.9808L517.244 32.0115C518.472 32.1701 519.659 32.385 520.769 32.646L521.189 32.7483L520.902 33.0707ZM523.936 25.8663C523.793 27.8823 523.143 29.8522 522.048 31.5612L521.946 31.7198L521.762 31.6738C520.467 31.331 519.06 31.0598 517.587 30.8602L517.31 30.8244L517.366 30.5532C517.673 29.0694 517.853 27.4883 517.899 25.8458V25.5951H523.952L523.931 25.8714L523.936 25.8663ZM517.909 24.4029V24.1522C517.858 22.5097 517.679 20.9235 517.372 19.4448L517.315 19.1736L517.592 19.1378C519.065 18.9383 520.467 18.6671 521.767 18.3242L521.951 18.2782L522.053 18.4368C523.148 20.1458 523.803 22.1106 523.941 24.1317L523.962 24.408H517.914L517.909 24.4029Z" fill="#11F8A5"/>
<path d="M571.734 49.4238L512.943 49.4238C512.457 49.4238 512.068 49.0298 512.068 48.5489C512.068 48.0679 512.462 47.6739 512.943 47.6739H571.734C572.22 47.6739 572.609 48.0679 572.609 48.5489C572.609 49.0298 572.215 49.4238 571.734 49.4238Z" fill="#11F8A5"/>
<path d="M571.867 2.45264L513.076 2.45264C512.59 2.45264 512.201 2.05867 512.201 1.5777C512.201 1.09672 512.595 0.702724 513.076 0.702724L571.867 0.702724C572.353 0.702724 572.742 1.09672 572.742 1.5777C572.742 2.05867 572.348 2.45264 571.867 2.45264Z" fill="#11F8A5"/>
<path d="M434.291 41.9845C424.71 32.4036 424.71 16.8161 434.291 7.2352C443.871 -2.34565 459.459 -2.34565 469.04 7.2352C478.621 16.8161 478.621 32.4036 469.04 41.9845C459.459 51.5653 443.871 51.5653 434.291 41.9845ZM467.882 8.3932C458.939 -0.549243 444.391 -0.549243 435.451 8.3932C426.508 17.3356 426.508 31.884 435.451 40.8241C444.393 49.7666 458.942 49.7666 467.882 40.8241C476.824 31.8817 476.824 17.3333 467.882 8.3932Z" fill="white"/>
<path d="M468.147 19.3978C468.061 19.3116 467.991 19.2021 467.951 19.0809C467.101 16.5645 465.712 14.3348 463.825 12.4475C461.94 10.5625 459.708 9.17387 457.191 8.3211C456.858 8.20693 456.635 7.89704 456.635 7.54522V1.57349C456.635 1.32185 456.751 1.08419 456.949 0.928084C457.149 0.771976 457.408 0.71839 457.65 0.77897C461.952 1.85542 465.889 4.08753 469.035 7.23533C472.18 10.3831 474.412 14.3185 475.489 18.6196C475.549 18.8642 475.493 19.1229 475.34 19.3232C475.183 19.5236 474.946 19.6378 474.694 19.6378H468.722C468.499 19.6378 468.294 19.5469 468.142 19.3955L468.147 19.3978ZM464.983 11.2895C466.907 13.214 468.359 15.4695 469.305 17.9998H473.625C472.539 14.3837 470.565 11.0798 467.879 8.39333C465.193 5.70686 461.889 3.73338 458.275 2.64994V6.96971C460.805 7.91335 463.061 9.36493 464.985 11.2918L464.983 11.2895Z" fill="white"/>
<path d="M434.29 41.9846C431.144 38.8391 428.91 34.9015 427.833 30.6004C427.773 30.3557 427.829 30.0971 427.983 29.899C428.139 29.6986 428.376 29.5845 428.628 29.5845H434.6C434.952 29.5845 435.264 29.8082 435.376 30.1413C436.226 32.6577 437.615 34.8875 439.502 36.7748C441.387 38.6597 443.619 40.0484 446.135 40.9012C446.469 41.013 446.692 41.3252 446.692 41.677V47.6488C446.692 47.9004 446.576 48.1381 446.378 48.2942C446.177 48.4503 445.919 48.5039 445.674 48.4433C441.373 47.3668 437.438 45.1347 434.29 41.9893V41.9846ZM429.702 31.2201C430.788 34.8362 432.761 38.1401 435.448 40.8266C438.134 43.5131 441.438 45.4866 445.054 46.5723V42.2525C442.524 41.3089 440.269 39.8573 438.344 37.9328C436.419 36.0082 434.968 33.7528 434.022 31.2225H429.702V31.2201Z" fill="white"/>
<path d="M456.878 48.2242C456.725 48.0704 456.638 47.863 456.638 47.644V41.6723C456.638 41.3204 456.862 41.0082 457.195 40.8964C459.712 40.046 461.941 38.6573 463.829 36.77C465.716 34.8827 467.102 32.6529 467.955 30.1366C468.067 29.8034 468.379 29.5797 468.731 29.5797H474.703C474.954 29.5797 475.192 29.6962 475.348 29.8943C475.504 30.0923 475.558 30.3533 475.497 30.5956C474.418 34.8967 472.186 38.832 469.041 41.9798C465.895 45.1276 461.958 47.3597 457.657 48.4362C457.412 48.4968 457.153 48.4409 456.955 48.2871C456.93 48.2638 456.904 48.2428 456.881 48.2195L456.878 48.2242ZM458.276 42.2501V46.5699C461.892 45.4841 465.196 43.5106 467.883 40.8242C470.569 38.1377 472.54 34.8338 473.629 31.2177H469.309C468.365 33.748 466.914 36.0011 464.987 37.928C463.062 39.8526 460.807 41.3065 458.276 42.2501Z" fill="white"/>
<path d="M428.048 19.3978C428.025 19.3745 428.002 19.3489 427.983 19.3232C427.827 19.1252 427.774 18.8642 427.834 18.6196C428.911 14.3185 431.143 10.3808 434.29 7.23533C437.438 4.08986 441.374 1.85542 445.675 0.77897C445.919 0.71839 446.178 0.774306 446.376 0.928084C446.574 1.08419 446.691 1.32185 446.691 1.57349V7.54522C446.691 7.89705 446.467 8.20926 446.134 8.3211C443.617 9.17154 441.388 10.5602 439.5 12.4475C437.615 14.3324 436.227 16.5645 435.374 19.0809C435.262 19.4141 434.95 19.6378 434.598 19.6378H428.626C428.407 19.6378 428.198 19.5516 428.046 19.4001L428.048 19.3978ZM445.053 2.64994C441.436 3.73571 438.133 5.7092 435.446 8.39566C432.76 11.0821 430.788 14.386 429.7 18.0021H434.02C434.964 15.4718 436.415 13.2187 438.342 11.2918C440.267 9.36726 442.522 7.91569 445.053 6.96972V2.64994Z" fill="white"/>
<path d="M464.985 11.2895C457.641 3.94537 445.688 3.94304 438.344 11.2895C430.997 18.6359 431 30.5863 438.344 37.9304C445.688 45.2745 457.638 45.2768 464.985 37.9304C472.331 30.584 472.329 18.6335 464.985 11.2895Z" fill="white"/>
<path d="M458.46 31.3337L444.928 31.4235C444.358 31.4272 443.899 31.8924 443.902 32.4625L443.906 32.9447C443.909 33.5148 444.375 33.9738 444.945 33.9701L458.477 33.8803C459.047 33.8765 459.506 33.4114 459.502 32.8413L459.499 32.359C459.495 31.789 459.03 31.3299 458.46 31.3337Z" fill="#191D0A"/>
<path d="M446.771 23.1654C446.625 23.1654 446.475 23.1328 446.34 23.0676L445.285 22.5573C444.826 22.3336 444.616 21.7907 444.807 21.3177L445.292 20.1108C445.441 19.7427 445.793 19.5027 446.189 19.5004C446.359 19.5004 446.527 19.5423 446.676 19.6285L447.934 20.3461C448.169 20.479 448.339 20.7096 448.4 20.9752C448.461 21.2409 448.407 21.5205 448.253 21.7441L447.564 22.7437C447.384 23.0046 447.086 23.1631 446.769 23.1631L446.771 23.1654Z" fill="#191D0A"/>
<path d="M456.512 23.1002C456.195 23.1002 455.895 22.9487 455.713 22.6901L455.03 21.7278C454.872 21.5065 454.816 21.2269 454.872 20.9612C454.928 20.6956 455.096 20.4626 455.331 20.3252L456.629 19.5633C456.775 19.477 456.943 19.4304 457.113 19.4281C457.509 19.4258 457.866 19.6611 458.02 20.0269L458.509 21.1989C458.705 21.6695 458.502 22.2171 458.048 22.4454L456.943 22.9976C456.81 23.0629 456.661 23.1002 456.514 23.1002H456.512Z" fill="#191D0A"/>
<path d="M445.708 30.5187C445.114 30.5234 444.581 30.1506 444.378 29.5914L442.12 23.3773C441.976 23.4472 441.822 23.5008 441.666 23.5404C441.482 23.587 441.295 23.6103 441.107 23.6103C440.997 23.6103 440.89 23.6057 440.785 23.5917C439.609 23.4426 438.716 22.4337 438.709 21.2454C438.7 19.9313 439.762 18.8548 441.076 18.8455C442.391 18.8362 443.467 19.8987 443.474 21.2128C443.474 21.5157 443.423 21.8069 443.316 22.0795C443.257 22.2287 443.185 22.3708 443.101 22.5059L447.395 24.5843L450.681 19.8241C450.543 19.7659 450.41 19.6936 450.284 19.6074C450.047 19.4467 449.839 19.2463 449.672 19.011C449.387 18.6102 449.234 18.1372 449.231 17.6479C449.222 16.3338 450.284 15.2574 451.599 15.248C451.657 15.248 451.717 15.248 451.776 15.2527C452.952 15.3319 453.903 16.2756 453.989 17.4522C454.029 18.0091 453.882 18.5426 453.565 18.997C453.397 19.2346 453.192 19.4373 452.957 19.5981C452.833 19.6843 452.701 19.7565 452.563 19.8148L455.907 24.526L460.131 22.4127C460.052 22.2613 459.989 22.1028 459.942 21.9374C459.886 21.737 459.856 21.5273 459.856 21.3153C459.856 21.2198 459.861 21.1242 459.87 21.031C460.005 19.8334 461.016 18.9247 462.221 18.9178C463.535 18.9084 464.611 19.9709 464.618 21.285C464.628 22.5385 463.654 23.5917 462.403 23.6779L462.254 23.6826C462.011 23.6826 461.774 23.6499 461.543 23.58C461.394 23.5334 461.249 23.4752 461.114 23.4006L458.994 29.4935C458.801 30.055 458.269 30.4325 457.675 30.4372L445.708 30.5164V30.5187Z" fill="#191D0A"/>
<path d="M389.105 49.174C382.863 49.174 376.626 46.7998 371.872 42.0464C362.37 32.5446 362.37 17.087 371.872 7.58523C376.477 2.98018 382.597 0.447388 389.105 0.447388C395.614 0.447388 401.733 2.98018 406.339 7.58523C415.84 17.087 415.84 32.5446 406.339 42.0464C401.59 46.7947 395.348 49.174 389.105 49.174ZM373.151 40.7672C381.947 49.5629 396.259 49.5629 405.054 40.7672C413.85 31.9716 413.85 17.6601 405.054 8.86442C400.792 4.60218 395.128 2.2587 389.1 2.2587C383.073 2.2587 377.409 4.6073 373.146 8.86442C364.351 17.6601 364.351 31.9716 373.146 40.7672H373.151Z" fill="#DA7DB5"/>
<path d="M390.007 19.6864L385.494 26.0107H388.201V30.5236L392.714 24.2045H390.007V19.6864Z" fill="#DA7DB5"/>
<path d="M389.101 16.171C384.158 16.171 380.146 20.1825 380.146 25.1253C380.146 30.0681 384.158 34.0694 389.101 34.0694C394.043 34.0694 398.055 30.0578 398.055 25.1253C398.055 20.1928 394.043 16.171 389.101 16.171ZM389.101 32.9641C384.762 32.9641 381.241 29.4438 381.241 25.1048C381.241 20.7659 384.762 17.2456 389.101 17.2456C393.44 17.2456 396.96 20.7659 396.96 25.1048C396.96 29.4438 393.44 32.9641 389.101 32.9641Z" fill="#DA7DB5"/>
<path d="M402.942 10.9776C399.248 7.27817 394.331 5.24683 389.101 5.24683C383.872 5.24683 378.96 7.28329 375.261 10.9776C367.632 18.6066 367.632 31.0249 375.261 38.6591C379.078 42.4761 384.087 44.3847 389.101 44.3847C394.116 44.3847 399.125 42.4761 402.942 38.6591C410.571 31.03 410.571 18.6117 402.942 10.9776ZM389.101 37.2725C382.409 37.2725 376.959 31.8231 376.959 25.1304C376.959 22.173 378.019 19.4611 379.779 17.3428L378.295 15.8589C377.87 15.4342 377.87 14.7435 378.295 14.3137C378.72 13.8839 379.41 13.889 379.84 14.3137L381.324 15.7975C383.166 14.2574 385.484 13.2443 388.011 13.0294V12.0265H387.009C386.123 12.0265 385.392 11.2948 385.392 10.4096V9.56535C385.392 8.66992 386.123 7.94847 387.009 7.94847H391.204C392.09 7.94847 392.821 8.66992 392.821 9.56535V10.4096C392.821 11.2948 392.09 12.0265 391.204 12.0265H390.201V13.0294C392.734 13.2494 395.047 14.2625 396.889 15.7975L398.373 14.3137C398.798 13.889 399.488 13.889 399.918 14.3137C400.343 14.7384 400.343 15.4291 399.918 15.8589L398.434 17.3428C400.194 19.4611 401.254 22.1678 401.254 25.1304C401.254 31.8231 395.804 37.2725 389.112 37.2725H389.101Z" fill="#DA7DB5"/>
<path d="M330.967 49.6618C317.535 49.6618 306.611 38.7325 306.611 25.3062C306.611 11.8799 317.54 0.950562 330.967 0.950562C344.393 0.950562 355.322 11.8799 355.322 25.3062C355.322 38.7325 344.393 49.6618 330.967 49.6618ZM330.967 2.57256C318.431 2.57256 308.233 12.7702 308.233 25.3062C308.233 37.8422 318.431 48.0398 330.967 48.0398C343.503 48.0398 353.7 37.8422 353.7 25.3062C353.7 12.7702 343.503 2.57256 330.967 2.57256Z" fill="white"/>
<path d="M346.859 7.9266L339.319 15.4667L340.802 16.9501L348.342 9.41001L346.859 7.9266Z" fill="white"/>
<path d="M320.904 33.8819L313.364 41.422L314.848 42.9054L322.388 35.3653L320.904 33.8819Z" fill="white"/>
<path d="M341.03 33.8804L339.547 35.3638L347.087 42.9038L348.57 41.4204L341.03 33.8804Z" fill="white"/>
<path d="M314.854 7.69812L313.37 9.18152L320.907 16.718L322.39 15.2346L314.854 7.69812Z" fill="white"/>
<path d="M336.913 25.9611C337.404 25.4699 337.404 24.6768 336.913 24.1907L335.869 23.152C335.378 22.6608 334.585 22.6608 334.099 23.152L333.536 23.7148L332.886 23.065C332.395 22.5738 331.602 22.5738 331.116 23.065L330.553 23.633L329.903 22.978C329.412 22.4868 328.619 22.4868 328.133 22.978L324.679 26.4318C324.653 26.4574 324.653 26.4983 324.679 26.529C325.139 26.9895 325.891 26.9895 326.357 26.529L328.583 24.3033C328.823 24.0628 329.212 24.0628 329.453 24.3033L329.616 24.467C329.647 24.4977 329.647 24.5437 329.616 24.5744L327.759 26.4318C327.733 26.4574 327.733 26.4983 327.759 26.529C328.22 26.9895 328.972 26.9895 329.437 26.529L331.571 24.3954C331.812 24.1549 332.2 24.1549 332.441 24.3954L332.605 24.5591C332.63 24.5847 332.63 24.6256 332.605 24.6563L330.814 26.4472C330.788 26.4728 330.788 26.5137 330.814 26.5444C331.274 27.0049 332.026 27.0049 332.492 26.5444L334.554 24.4823C334.795 24.2419 335.183 24.2419 335.424 24.4823L335.777 24.8354C335.915 24.9736 335.915 25.2038 335.777 25.342L335.721 25.3982C335.583 25.5364 335.352 25.5364 335.214 25.3982L334.759 24.9428C334.733 24.9173 334.692 24.9173 334.662 24.9428L333.874 25.7308C333.848 25.7564 333.848 25.7973 333.874 25.828L334.585 26.5393C335.076 27.0305 335.869 27.0305 336.355 26.5393L336.918 25.9764L336.913 25.9611Z" fill="white"/>
<path d="M330.967 6.62512C320.652 6.62512 312.291 14.9859 312.291 25.3012C312.291 35.6165 320.652 43.9772 330.967 43.9772C341.282 43.9772 349.643 35.6165 349.643 25.3012C349.643 14.9859 341.282 6.62512 330.967 6.62512ZM331.73 12.3917C334.728 12.5656 337.45 13.763 339.558 15.6357L336.862 18.3322C335.455 17.14 333.679 16.3674 331.73 16.2036V12.3917ZM330.21 12.3917V16.2036C328.26 16.3623 326.485 17.14 325.078 18.3322L322.381 15.6357C324.489 13.763 327.211 12.5656 330.21 12.3917ZM321.307 16.7102L324.003 19.4067C322.811 20.8138 322.038 22.5893 321.875 24.5388H318.063C318.237 21.5404 319.434 18.8183 321.307 16.7102ZM318.063 26.0585H321.875C322.033 28.0079 322.811 29.7834 324.003 31.1905L321.307 33.8871C319.434 31.779 318.237 29.0569 318.063 26.0585ZM330.21 38.2056C327.211 38.0316 324.489 36.8343 322.381 34.9616L325.078 32.265C326.485 33.4572 328.26 34.2299 330.21 34.3936V38.2056ZM323.118 25.2961C323.118 20.9622 326.633 17.447 330.967 17.447C335.301 17.447 338.816 20.9622 338.816 25.2961C338.816 29.6299 335.301 33.1451 330.967 33.1451C326.633 33.1451 323.118 29.6299 323.118 25.2961ZM331.73 38.2056V34.3936C333.679 34.235 335.455 33.4572 336.862 32.265L339.558 34.9616C337.45 36.8343 334.728 38.0316 331.73 38.2056ZM340.633 33.8871L337.936 31.1905C339.128 29.7834 339.901 28.0079 340.065 26.0585H343.877C343.703 29.0569 342.505 31.779 340.633 33.8871ZM340.065 24.5388C339.906 22.5893 339.128 20.8138 337.936 19.4067L340.633 16.7102C342.505 18.8183 343.703 21.5404 343.877 24.5388H340.065Z" fill="white"/>
<path d="M205.446 49.3934C192.015 49.3934 181.086 38.4641 181.086 25.0327C181.086 11.6012 192.015 0.671916 205.446 0.671916C218.878 0.671916 229.807 11.6012 229.807 25.0327C229.807 38.4641 218.878 49.3934 205.446 49.3934ZM205.446 2.42695C192.982 2.42695 182.841 12.5683 182.841 25.0327C182.841 37.497 192.982 47.6384 205.446 47.6384C217.911 47.6384 228.052 37.497 228.052 25.0327C228.052 12.5683 217.911 2.42695 205.446 2.42695Z" fill="#11F8A5"/>
<path d="M265 49.3946C264.514 49.3946 264.125 49.0006 264.125 48.5196C264.125 48.0386 264.519 47.6446 265 47.6446C277.464 47.6446 287.606 37.5033 287.606 25.0389C287.606 12.5746 277.464 2.43321 265 2.43321C264.514 2.43321 264.125 2.03921 264.125 1.55824C264.125 1.07727 264.519 0.6833 265 0.6833C278.431 0.6833 289.361 11.6126 289.361 25.044C289.361 38.4755 278.431 49.4048 265 49.4048V49.3946Z" fill="#11F8A5"/>
<path d="M229.61 24.0653H218.942V26.1683H229.61V24.0653Z" fill="#11F8A5"/>
<path d="M192.877 24.0653H182.209V26.1683H192.877V24.0653Z" fill="#11F8A5"/>
<path d="M207.128 38.3103H205.025V48.9787H207.128V38.3103Z" fill="#11F8A5"/>
<path d="M207.128 1.25488H205.025V11.9233H207.128V1.25488Z" fill="#11F8A5"/>
<path d="M218.619 11.7697C211.323 4.47325 199.488 4.47325 192.186 11.7697C184.89 19.0662 184.89 30.9012 192.186 38.2027C199.483 45.4992 211.318 45.4992 218.619 38.2027C225.916 30.9063 225.916 19.0713 218.619 11.7697ZM209.015 13.3508C211.144 14.0108 213.052 15.244 214.536 16.9223L214.823 17.2446L214.403 17.3418C213.293 17.6028 212.106 17.8177 210.878 17.9763L210.658 18.007L210.596 17.7921C210.392 17.0911 210.151 16.4157 209.875 15.7914C209.532 15.0086 209.148 14.3229 208.729 13.7448L208.268 13.1154L209.015 13.3457V13.3508ZM200.475 24.4029L200.486 24.1368C200.537 22.5199 200.716 20.9747 201.023 19.5523L201.069 19.3271L201.299 19.3476C203.991 19.583 206.866 19.5727 209.542 19.322L209.773 19.3015L209.824 19.5267C210.136 20.9645 210.315 22.5148 210.361 24.1368V24.4029H200.481H200.475ZM210.361 25.59V25.8561C210.305 27.4781 210.126 29.0284 209.813 30.4662L209.762 30.6914L209.532 30.6709C206.856 30.4202 203.98 30.4151 201.289 30.6453L201.059 30.6658L201.013 30.4406C200.706 29.0182 200.527 27.4781 200.475 25.8561L200.465 25.59H210.351H210.361ZM205.418 12.9056C206.907 12.9056 208.422 14.7937 209.368 17.8381L209.466 18.1452L209.143 18.1707C207.884 18.2782 206.585 18.3345 205.28 18.3345C204.067 18.3345 202.86 18.2884 201.683 18.1912L201.361 18.1656L201.458 17.8535C202.404 14.7988 203.924 12.9005 205.418 12.9005V12.9056ZM196.249 16.9785C197.743 15.2747 199.667 14.0211 201.821 13.3559L202.573 13.1257L202.108 13.7601C201.688 14.3332 201.299 15.0239 200.962 15.8017C200.69 16.4157 200.445 17.1013 200.23 17.8381L200.168 18.0479L199.948 18.0224C198.71 17.8689 197.513 17.6642 196.387 17.4032L195.962 17.306L196.249 16.9785ZM193.261 24.1266C193.404 22.1311 194.044 20.1867 195.113 18.4931L195.215 18.3345L195.4 18.3805C196.71 18.7131 198.122 18.9792 199.606 19.1685L199.882 19.2043L199.826 19.4806C199.519 20.9645 199.345 22.5353 199.299 24.1522V24.4029H193.245L193.266 24.1266H193.261ZM195.215 31.6584L195.113 31.4998C194.044 29.8113 193.404 27.8618 193.261 25.8663L193.24 25.59H199.288V25.8407C199.34 27.4576 199.519 29.0336 199.82 30.5123L199.877 30.7886L199.6 30.8244C198.122 31.0137 196.704 31.2798 195.395 31.6124L195.21 31.6584H195.215ZM201.821 36.6421C199.667 35.9769 197.743 34.7234 196.249 33.0195L195.962 32.692L196.387 32.5948C197.513 32.339 198.71 32.1292 199.948 31.9757L200.168 31.9501L200.23 32.1599C200.445 32.8967 200.69 33.5823 200.962 34.1963C201.304 34.9792 201.688 35.6648 202.108 36.243L202.573 36.8775L201.821 36.6472V36.6421ZM205.418 37.0873C203.924 37.0873 202.404 35.189 201.458 32.1343L201.361 31.8222L201.683 31.7966C204.124 31.6022 206.723 31.6073 209.143 31.817L209.466 31.8426L209.368 32.1496C208.417 35.189 206.902 37.0822 205.418 37.0822V37.0873ZM214.536 33.0707C213.052 34.7489 211.139 35.9821 209.015 36.6421L208.268 36.8724L208.729 36.243C209.148 35.67 209.532 34.9792 209.875 34.1963C210.146 33.567 210.392 32.8967 210.596 32.1957L210.658 31.9808L210.878 32.0115C212.106 32.1701 213.293 32.385 214.403 32.646L214.823 32.7483L214.536 33.0707ZM217.57 25.8663C217.427 27.8823 216.777 29.8522 215.682 31.5612L215.58 31.7198L215.396 31.6738C214.101 31.331 212.694 31.0598 211.221 30.8602L210.944 30.8244L211.001 30.5532C211.308 29.0694 211.487 27.4883 211.533 25.8458V25.5951H217.586L217.565 25.8714L217.57 25.8663ZM211.543 24.4029V24.1522C211.492 22.5097 211.313 20.9235 211.006 19.4448L210.949 19.1736L211.226 19.1378C212.699 18.9383 214.101 18.6671 215.401 18.3242L215.585 18.2782L215.687 18.4368C216.782 20.1458 217.437 22.1106 217.576 24.1317L217.596 24.408H211.548L211.543 24.4029Z" fill="#11F8A5"/>
<path d="M265.369 49.4238L206.577 49.4238C206.091 49.4238 205.702 49.0298 205.702 48.5489C205.702 48.0679 206.096 47.6739 206.577 47.6739H265.369C265.855 47.6739 266.244 48.0679 266.244 48.5489C266.244 49.0298 265.85 49.4238 265.369 49.4238Z" fill="#11F8A5"/>
<path d="M265.502 2.45264L206.71 2.45264C206.224 2.45264 205.835 2.05867 205.835 1.5777C205.835 1.09672 206.229 0.702724 206.71 0.702724L265.502 0.702724C265.988 0.702724 266.377 1.09672 266.377 1.5777C266.377 2.05867 265.983 2.45264 265.502 2.45264Z" fill="#11F8A5"/>
<path d="M127.925 42.8641C118.344 33.2832 118.344 17.6957 127.925 8.11484C137.506 -1.46602 153.093 -1.46602 162.674 8.11484C172.255 17.6957 172.255 33.2832 162.674 42.8641C153.093 52.445 137.506 52.445 127.925 42.8641ZM161.516 9.27284C152.574 0.330396 138.025 0.330396 129.085 9.27284C120.143 18.2153 120.143 32.7637 129.085 41.7038C138.028 50.6462 152.576 50.6462 161.516 41.7038C170.458 32.7613 170.458 18.213 161.516 9.27284Z" fill="white"/>
<path d="M161.781 20.2772C161.695 20.191 161.625 20.0815 161.585 19.9603C160.735 17.4439 159.346 15.2142 157.459 13.3269C155.574 11.4419 153.342 10.0533 150.826 9.20049C150.492 9.08632 150.269 8.77644 150.269 8.42461V2.45289C150.269 2.20125 150.385 1.96359 150.583 1.80748C150.784 1.65137 151.042 1.59778 151.285 1.65836C155.586 2.73481 159.523 4.96693 162.669 8.11472C165.814 11.2625 168.046 15.1978 169.123 19.499C169.184 19.7436 169.128 20.0023 168.974 20.2026C168.818 20.403 168.58 20.5172 168.328 20.5172H162.357C162.133 20.5172 161.928 20.4263 161.777 20.2749L161.781 20.2772ZM158.617 12.1689C160.542 14.0934 161.993 16.3489 162.939 18.8792H167.259C166.173 15.2631 164.2 11.9592 161.513 9.27272C158.827 6.58626 155.523 4.61277 151.909 3.52933V7.84911C154.439 8.79275 156.695 10.2443 158.619 12.1712L158.617 12.1689Z" fill="white"/>
<path d="M127.924 42.864C124.779 39.7185 122.544 35.7809 121.468 31.4797C121.407 31.2351 121.463 30.9765 121.617 30.7784C121.773 30.578 122.011 30.4639 122.262 30.4639H128.234C128.586 30.4639 128.898 30.6875 129.01 31.0207C129.86 33.5371 131.249 35.7669 133.136 37.6542C135.021 39.5391 137.253 40.9278 139.77 41.7806C140.103 41.8924 140.327 42.2046 140.327 42.5564V48.5282C140.327 48.7798 140.21 49.0175 140.012 49.1736C139.812 49.3297 139.553 49.3833 139.308 49.3227C135.007 48.2462 131.072 46.0141 127.924 42.8687V42.864ZM123.336 32.0995C124.422 35.7156 126.396 39.0195 129.082 41.706C131.769 44.3925 135.073 46.366 138.689 47.4517V43.1319C136.158 42.1883 133.903 40.7367 131.978 38.8122C130.054 36.8876 128.602 34.6322 127.656 32.1018H123.336V32.0995Z" fill="white"/>
<path d="M150.513 49.1038C150.359 48.95 150.273 48.7427 150.273 48.5236V42.5519C150.273 42.2001 150.496 41.8879 150.829 41.776C153.346 40.9256 155.576 39.5369 157.463 37.6497C159.35 35.7624 160.737 33.5326 161.589 31.0162C161.701 30.683 162.013 30.4594 162.365 30.4594H168.337C168.589 30.4594 168.826 30.5758 168.982 30.7739C169.138 30.9719 169.192 31.2329 169.131 31.4752C168.053 35.7764 165.821 39.7117 162.675 42.8595C159.53 46.0073 155.592 48.2394 151.291 49.3158C151.046 49.3764 150.788 49.3205 150.589 49.1667C150.564 49.1434 150.538 49.1225 150.515 49.0992L150.513 49.1038ZM151.911 43.1298V47.4495C155.527 46.3638 158.831 44.3903 161.517 41.7038C164.204 39.0174 166.175 35.7134 167.263 32.0973H162.943C161.999 34.6277 160.548 36.8808 158.621 38.8076C156.696 40.7322 154.441 42.1861 151.911 43.1298Z" fill="white"/>
<path d="M121.682 20.2773C121.659 20.254 121.636 20.2284 121.617 20.2028C121.461 20.0047 121.408 19.7438 121.468 19.4991C122.545 15.198 124.777 11.2603 127.924 8.11485C131.072 4.96938 135.008 2.73493 139.309 1.65849C139.553 1.59791 139.812 1.65382 140.01 1.8076C140.208 1.96371 140.325 2.20137 140.325 2.45301V8.42474C140.325 8.77656 140.101 9.08878 139.768 9.20062C137.251 10.0511 135.022 11.4397 133.134 13.327C131.249 15.2119 129.861 17.4441 129.008 19.9604C128.896 20.2936 128.584 20.5173 128.232 20.5173H122.26C122.041 20.5173 121.832 20.4311 121.68 20.2797L121.682 20.2773ZM138.687 3.52946C135.071 4.61522 131.767 6.58871 129.08 9.27518C126.394 11.9616 124.423 15.2655 123.334 18.8817H127.654C128.598 16.3513 130.049 14.0982 131.976 12.1713C133.901 10.2468 136.156 8.7952 138.687 7.84923V3.52946Z" fill="white"/>
<path d="M158.619 12.1691C151.275 4.82501 139.322 4.82268 131.978 12.1691C124.632 19.5155 124.634 31.4659 131.978 38.81C139.322 46.1541 151.273 46.1564 158.619 38.81C165.965 31.4636 165.963 19.5132 158.619 12.1691Z" fill="white"/>
<path d="M152.094 32.213L138.562 32.3027C137.992 32.3065 137.533 32.7717 137.537 33.3417L137.54 33.824C137.544 34.3941 138.009 34.8531 138.579 34.8493L152.111 34.7596C152.681 34.7558 153.14 34.2906 153.136 33.7206L153.133 33.2383C153.129 32.6682 152.664 32.2092 152.094 32.213Z" fill="#191D0A"/>
<path d="M140.406 24.0447C140.259 24.0447 140.11 24.0121 139.975 23.9468L138.919 23.4366C138.46 23.2129 138.25 22.67 138.441 22.197L138.926 20.9901C139.075 20.622 139.427 20.382 139.823 20.3796C139.993 20.3796 140.161 20.4216 140.31 20.5078L141.568 21.2254C141.804 21.3582 141.974 21.5889 142.034 21.8545C142.095 22.1201 142.041 22.3997 141.888 22.6234L141.198 23.623C141.018 23.8839 140.72 24.0424 140.403 24.0424L140.406 24.0447Z" fill="#191D0A"/>
<path d="M150.146 23.9798C149.83 23.9798 149.529 23.8283 149.347 23.5697L148.665 22.6074C148.506 22.3861 148.45 22.1065 148.506 21.8409C148.562 21.5753 148.73 21.3423 148.965 21.2048L150.263 20.4429C150.41 20.3567 150.577 20.3101 150.748 20.3078C151.144 20.3054 151.5 20.5407 151.654 20.9066L152.143 22.0785C152.339 22.5492 152.136 23.0967 151.682 23.3251L150.577 23.8773C150.445 23.9425 150.296 23.9798 150.149 23.9798H150.146Z" fill="#191D0A"/>
<path d="M139.342 31.3983C138.748 31.403 138.215 31.0302 138.012 30.471L135.754 24.257C135.61 24.3269 135.456 24.3805 135.3 24.4201C135.116 24.4667 134.93 24.49 134.741 24.49C134.631 24.49 134.524 24.4853 134.419 24.4713C133.243 24.3222 132.35 23.3133 132.343 22.125C132.334 20.8109 133.396 19.7345 134.71 19.7252C136.025 19.7158 137.101 20.7783 137.108 22.0924C137.108 22.3953 137.057 22.6866 136.95 22.9592C136.891 23.1083 136.819 23.2504 136.735 23.3856L141.029 25.4639L144.315 20.7038C144.177 20.6455 144.044 20.5733 143.919 20.4871C143.681 20.3263 143.474 20.1259 143.306 19.8906C143.022 19.4898 142.868 19.0169 142.865 18.5276C142.856 17.2135 143.919 16.137 145.233 16.1277C145.291 16.1277 145.352 16.1277 145.41 16.1323C146.586 16.2116 147.537 17.1552 147.623 18.3318C147.663 18.8887 147.516 19.4223 147.199 19.8766C147.031 20.1143 146.826 20.317 146.591 20.4777C146.468 20.564 146.335 20.6362 146.197 20.6944L149.541 25.4056L153.765 23.2924C153.686 23.1409 153.623 22.9825 153.576 22.817C153.52 22.6167 153.49 22.407 153.49 22.1949C153.49 22.0994 153.495 22.0039 153.504 21.9107C153.639 20.7131 154.65 19.8044 155.855 19.7974C157.169 19.7881 158.246 20.8505 158.253 22.1647C158.262 23.4182 157.288 24.4713 156.037 24.5575L155.888 24.5622C155.645 24.5622 155.408 24.5296 155.177 24.4597C155.028 24.4131 154.883 24.3548 154.748 24.2803L152.628 30.3732C152.435 30.9347 151.903 31.3121 151.309 31.3168L139.342 31.396V31.3983Z" fill="#191D0A"/>
<path d="M82.7396 49.6351C76.4972 49.6351 70.2599 47.2609 65.5064 42.5075C56.0047 33.0057 56.0047 17.5481 65.5064 8.04629C70.1115 3.44124 76.2311 0.908447 82.7396 0.908447C89.248 0.908447 95.3677 3.44124 99.9727 8.04629C109.474 17.5481 109.474 33.0057 99.9727 42.5075C95.2244 47.2558 88.982 49.6351 82.7396 49.6351ZM66.7856 41.2283C75.5813 50.0239 89.8927 50.0239 98.6884 41.2283C107.484 32.4326 107.484 18.1211 98.6884 9.32548C94.4262 5.06324 88.762 2.71976 82.7344 2.71976C76.7069 2.71976 71.0427 5.06836 66.7805 9.32548C57.9848 18.1211 57.9848 32.4326 66.7805 41.2283H66.7856Z" fill="#DA7DB5"/>
<path d="M83.6415 20.1472L79.1286 26.4715H81.8353V30.9844L86.3483 24.6653H83.6415V20.1472Z" fill="#DA7DB5"/>
<path d="M82.735 16.6318C77.7922 16.6318 73.7807 20.6434 73.7807 25.5861C73.7807 30.5289 77.7922 34.5302 82.735 34.5302C87.6777 34.5302 91.6893 30.5186 91.6893 25.5861C91.6893 20.6536 87.6777 16.6318 82.735 16.6318ZM82.735 33.4249C78.396 33.4249 74.8757 29.9046 74.8757 25.5657C74.8757 21.2267 78.396 17.7064 82.735 17.7064C87.074 17.7064 90.5943 21.2267 90.5943 25.5657C90.5943 29.9046 87.074 33.4249 82.735 33.4249Z" fill="#DA7DB5"/>
<path d="M96.5765 11.4384C92.8822 7.73899 87.965 5.70764 82.7357 5.70764C77.5064 5.70764 72.5943 7.74411 68.8949 11.4384C61.2659 19.0674 61.2659 31.4857 68.8949 39.1199C72.712 42.937 77.7213 44.8455 82.7357 44.8455C87.7501 44.8455 92.7594 42.937 96.5765 39.1199C104.206 31.4908 104.206 19.0725 96.5765 11.4384ZM82.7357 37.7333C76.043 37.7333 70.5937 32.2839 70.5937 25.5912C70.5937 22.6338 71.6529 19.9219 73.413 17.8036L71.9292 16.3197C71.5045 15.895 71.5045 15.2043 71.9292 14.7745C72.3538 14.3447 73.0446 14.3498 73.4744 14.7745L74.9583 16.2583C76.8003 14.7182 79.1182 13.7051 81.6458 13.4902V12.4873H80.643C79.7578 12.4873 79.0261 11.7556 79.0261 10.8704V10.0262C79.0261 9.13074 79.7578 8.40929 80.643 8.40929H84.8387C85.7239 8.40929 86.4556 9.13074 86.4556 10.0262V10.8704C86.4556 11.7556 85.7239 12.4873 84.8387 12.4873H83.8358V13.4902C86.3686 13.7102 88.6813 14.7233 90.5234 16.2583L92.0072 14.7745C92.4319 14.3498 93.1227 14.3498 93.5525 14.7745C93.9771 15.1992 93.9771 15.8899 93.5525 16.3197L92.0686 17.8036C93.8288 19.9219 94.8879 22.6287 94.8879 25.5912C94.8879 32.2839 89.4386 37.7333 82.7459 37.7333H82.7357Z" fill="#DA7DB5"/>
<path d="M24.6008 49.1701C11.1694 49.1701 0.245117 38.2408 0.245117 24.8145C0.245117 11.3882 11.1745 0.458862 24.6008 0.458862C38.0271 0.458862 48.9564 11.3882 48.9564 24.8145C48.9564 38.2408 38.0271 49.1701 24.6008 49.1701ZM24.6008 2.08086C12.0648 2.08086 1.86714 12.2785 1.86714 24.8145C1.86714 37.3505 12.0648 47.5481 24.6008 47.5481C37.1368 47.5481 47.3344 37.3505 47.3344 24.8145C47.3344 12.2785 37.1368 2.08086 24.6008 2.08086Z" fill="white"/>
<path d="M40.4928 7.43502L32.9527 14.9751L34.4361 16.4585L41.9762 8.91843L40.4928 7.43502Z" fill="white"/>
<path d="M14.5386 33.3901L6.99857 40.9302L8.48197 42.4136L16.022 34.8735L14.5386 33.3901Z" fill="white"/>
<path d="M34.6647 33.3888L33.1813 34.8722L40.7214 42.4122L42.2048 40.9288L34.6647 33.3888Z" fill="white"/>
<path d="M8.48767 7.20642L7.00427 8.68982L14.5407 16.2263L16.0241 14.7429L8.48767 7.20642Z" fill="white"/>
<path d="M30.5469 25.4695C31.0382 24.9783 31.0382 24.1852 30.5469 23.6991L29.5031 22.6604C29.0119 22.1692 28.2188 22.1692 27.7327 22.6604L27.1699 23.2233L26.5201 22.5734C26.0289 22.0822 25.2358 22.0822 24.7497 22.5734L24.1869 23.1414L23.537 22.4864C23.0458 21.9952 22.2527 21.9952 21.7666 22.4864L18.3128 25.9402C18.2872 25.9658 18.2872 26.0068 18.3128 26.0375C18.7733 26.498 19.5255 26.498 19.9911 26.0375L22.2169 23.8117C22.4574 23.5712 22.8463 23.5712 23.0867 23.8117L23.2505 23.9754C23.2812 24.0061 23.2812 24.0522 23.2505 24.0829L21.3931 25.9402C21.3675 25.9658 21.3675 26.0068 21.3931 26.0375C21.8536 26.498 22.6058 26.498 23.0714 26.0375L25.2051 23.9038C25.4456 23.6633 25.8344 23.6633 26.0749 23.9038L26.2386 24.0675C26.2642 24.0931 26.2642 24.134 26.2386 24.1647L24.4478 25.9556C24.4222 25.9812 24.4222 26.0221 24.4478 26.0528C24.9083 26.5133 25.6605 26.5133 26.1261 26.0528L28.1881 23.9908C28.4286 23.7503 28.8175 23.7503 29.058 23.9908L29.411 24.3438C29.5492 24.482 29.5492 24.7122 29.411 24.8504L29.3547 24.9067C29.2166 25.0448 28.9863 25.0448 28.8482 24.9067L28.3928 24.4513C28.3672 24.4257 28.3263 24.4257 28.2956 24.4513L27.5076 25.2393C27.482 25.2648 27.482 25.3058 27.5076 25.3365L28.2188 26.0477C28.71 26.5389 29.5031 26.5389 29.9892 26.0477L30.5521 25.4849L30.5469 25.4695Z" fill="white"/>
<path d="M24.6014 6.13318C14.2861 6.13318 5.92532 14.4939 5.92532 24.8092C5.92532 35.1246 14.2861 43.4853 24.6014 43.4853C34.9167 43.4853 43.2775 35.1246 43.2775 24.8092C43.2775 14.4939 34.9167 6.13318 24.6014 6.13318ZM25.3638 11.8997C28.3622 12.0737 31.0843 13.271 33.1924 15.1437L30.4958 17.8403C29.0887 16.6481 27.3132 15.8754 25.3638 15.7117V11.8997ZM23.8441 11.8997V15.7117C21.8946 15.8703 20.1191 16.6481 18.712 17.8403L16.0155 15.1437C18.1236 13.271 20.8457 12.0737 23.8441 11.8997ZM14.941 16.2182L17.6375 18.9148C16.4453 20.3219 15.6727 22.0974 15.5089 24.0469H11.697C11.8709 21.0485 13.0683 18.3263 14.941 16.2182ZM11.697 25.5665H15.5089C15.6676 27.516 16.4453 29.2915 17.6375 30.6986L14.941 33.3951C13.0683 31.287 11.8709 28.5649 11.697 25.5665ZM23.8441 37.7136C20.8457 37.5397 18.1236 36.3423 16.0155 34.4696L18.712 31.7731C20.1191 32.9653 21.8946 33.7379 23.8441 33.9017V37.7136ZM16.7523 24.8041C16.7523 20.4703 20.2675 16.9551 24.6014 16.9551C28.9353 16.9551 32.4504 20.4703 32.4504 24.8041C32.4504 29.138 28.9353 32.6532 24.6014 32.6532C20.2675 32.6532 16.7523 29.138 16.7523 24.8041ZM25.3638 37.7136V33.9017C27.3132 33.743 29.0887 32.9653 30.4958 31.7731L33.1924 34.4696C31.0843 36.3423 28.3622 37.5397 25.3638 37.7136ZM34.2669 33.3951L31.5704 30.6986C32.7626 29.2915 33.5352 27.516 33.6989 25.5665H37.5109C37.3369 28.5649 36.1396 31.287 34.2669 33.3951ZM33.6989 24.0469C33.5403 22.0974 32.7626 20.3219 31.5704 18.9148L34.2669 16.2182C36.1396 18.3263 37.3369 21.0485 37.5109 24.0469H33.6989Z" fill="white"/>
</g>
</svg>
