<svg width="100" height="1353" viewBox="0 0 100 1353" fill="none" xmlns="http://www.w3.org/2000/svg">
<g opacity="0.2">
<path d="M49.7326 1352.22C37.0341 1352.22 24.3459 1347.39 14.6763 1337.72C-4.65252 1318.39 -4.65252 1286.95 14.6763 1267.62C24.0441 1258.25 36.4928 1253.1 49.7326 1253.1C62.9724 1253.1 75.4212 1258.25 84.7889 1267.62C104.118 1286.95 104.118 1318.39 84.7889 1337.72C75.1297 1347.38 62.4311 1352.22 49.7326 1352.22ZM17.2785 1335.12C35.1709 1353.01 64.2839 1353.01 82.1763 1335.12C100.069 1317.23 100.069 1288.11 82.1763 1270.22C73.506 1261.55 61.9836 1256.78 49.7222 1256.78C37.4609 1256.78 25.9384 1261.56 17.2681 1270.22C-0.624391 1288.11 -0.624391 1317.23 17.2681 1335.12H17.2785Z" fill="#EBF29D"/>
<path d="M49.077 1321.21C49.2539 1321.64 49.6703 1321.89 50.1074 1321.89C50.2532 1321.89 50.3989 1321.86 50.5446 1321.81C54.0419 1320.34 57.2269 1318.07 59.7458 1315.24C60.1518 1314.78 60.1101 1314.07 59.6521 1313.67C59.1942 1313.26 58.4864 1313.3 58.0804 1313.76C55.7801 1316.35 52.8761 1318.42 49.6806 1319.75C49.1186 1319.99 48.8479 1320.65 49.0873 1321.21H49.077Z" fill="#EBF29D"/>
<path d="M68.6226 1285.53L50.1369 1278.14C49.8663 1278.04 49.5748 1278.04 49.3042 1278.14L30.8185 1285.53C30.3917 1285.7 30.1211 1286.1 30.1211 1286.56V1299.8C30.1419 1312.02 37.8651 1323.06 49.3355 1327.27C49.4604 1327.31 49.5853 1327.33 49.7206 1327.33C49.8559 1327.33 49.9808 1327.31 50.1057 1327.27C61.576 1323.05 69.2992 1312.02 69.32 1299.8V1286.56C69.32 1286.1 69.0494 1285.7 68.6226 1285.53ZM67.0926 1299.8C67.0718 1310.92 60.0979 1321.05 49.7309 1325.03C39.3639 1321.05 32.3797 1310.92 32.3589 1299.8V1287.32L49.7309 1280.38L67.0926 1287.32V1299.8Z" fill="#EBF29D"/>
<path d="M42.0084 1287.27C41.7378 1287.16 41.4359 1287.16 41.1549 1287.27L36.752 1289.03C36.3253 1289.2 36.0547 1289.6 36.0547 1290.06V1294.75C36.0547 1295.37 36.5543 1295.87 37.1684 1295.87C37.7825 1295.87 38.2821 1295.37 38.2821 1294.75V1290.82L41.9772 1289.34C42.2582 1289.23 42.4664 1289.02 42.5913 1288.74C42.7058 1288.47 42.7058 1288.16 42.5913 1287.88C42.4768 1287.6 42.2686 1287.39 41.998 1287.27H42.0084Z" fill="#EBF29D"/>
<path d="M77.8877 1274.52C70.3727 1266.99 60.3699 1262.86 49.7323 1262.86C39.0947 1262.86 29.1024 1267 21.577 1274.52C6.05768 1290.04 6.05768 1315.3 21.577 1330.83C29.3418 1338.59 39.5318 1342.47 49.7323 1342.47C59.9328 1342.47 70.1229 1338.58 77.8877 1330.83C93.407 1315.31 93.407 1290.05 77.8877 1274.52ZM72.3815 1299.8C72.4127 1313.93 63.3884 1326.28 49.9301 1330.56C49.8052 1330.6 49.6698 1330.6 49.5345 1330.56C36.0762 1326.28 27.0519 1313.93 27.0832 1299.8V1284.18C27.0832 1283.92 27.2392 1283.68 27.4891 1283.57L49.4929 1274.78C49.5658 1274.75 49.649 1274.74 49.7323 1274.74C49.8156 1274.74 49.8989 1274.75 49.9717 1274.78L71.9756 1283.59C72.2254 1283.68 72.3815 1283.92 72.3815 1284.19V1299.81V1299.8Z" fill="#EBF29D"/>
<path d="M49.7326 1225.61C22.4099 1225.61 0.1875 1203.38 0.1875 1176.06C0.1875 1148.75 22.4203 1126.52 49.7326 1126.52C77.0448 1126.52 99.2777 1148.75 99.2777 1176.06C99.2777 1203.38 77.0448 1225.61 49.7326 1225.61ZM49.7326 1129.82C24.2314 1129.82 3.48702 1150.56 3.48702 1176.06C3.48702 1201.57 24.2314 1222.31 49.7326 1222.31C75.2337 1222.31 95.9782 1201.57 95.9782 1176.06C95.9782 1150.56 75.2337 1129.82 49.7326 1129.82Z" fill="#DA7DB5"/>
<path d="M82.0648 1140.71L66.7266 1156.05L69.7442 1159.07L85.0824 1143.73L82.0648 1140.71Z" fill="#DA7DB5"/>
<path d="M29.2639 1193.51L13.9257 1208.85L16.9432 1211.87L32.2815 1196.53L29.2639 1193.51Z" fill="#DA7DB5"/>
<path d="M70.1934 1193.52L67.1758 1196.53L82.514 1211.87L85.5316 1208.86L70.1934 1193.52Z" fill="#DA7DB5"/>
<path d="M16.9395 1140.26L13.9219 1143.27L29.2528 1158.6L32.2704 1155.59L16.9395 1140.26Z" fill="#DA7DB5"/>
<path d="M61.8167 1177.4C62.816 1176.4 62.816 1174.78 61.8167 1173.79L59.6933 1171.68C58.6941 1170.68 57.0808 1170.68 56.092 1171.68L54.947 1172.83L53.6251 1171.5C52.6259 1170.51 51.0126 1170.51 50.0237 1171.5L48.8788 1172.66L47.5569 1171.33C46.5577 1170.33 44.9443 1170.33 43.9555 1171.33L36.9297 1178.35C36.8776 1178.41 36.8776 1178.49 36.9297 1178.55C37.8664 1179.49 39.3965 1179.49 40.3437 1178.55L44.8715 1174.02C45.3607 1173.53 46.1517 1173.53 46.6409 1174.02L46.974 1174.36C47.0365 1174.42 47.0365 1174.51 46.974 1174.58L43.1957 1178.35C43.1436 1178.41 43.1436 1178.49 43.1957 1178.55C44.1325 1179.49 45.6625 1179.49 46.6097 1178.55L50.9501 1174.21C51.4393 1173.72 52.2304 1173.72 52.7196 1174.21L53.0526 1174.54C53.1047 1174.6 53.1047 1174.68 53.0526 1174.74L49.4096 1178.39C49.3576 1178.44 49.3576 1178.52 49.4096 1178.58C50.3464 1179.52 51.8765 1179.52 52.8237 1178.58L57.0183 1174.39C57.5075 1173.9 58.2986 1173.9 58.7878 1174.39L59.506 1175.11C59.787 1175.39 59.787 1175.86 59.506 1176.14L59.3915 1176.25C59.1105 1176.53 58.6421 1176.53 58.3611 1176.25L57.4347 1175.32C57.3826 1175.27 57.2994 1175.27 57.2369 1175.32L55.634 1176.93C55.582 1176.98 55.582 1177.06 55.634 1177.13L57.0808 1178.57C58.08 1179.57 59.6934 1179.57 60.6822 1178.57L61.8272 1177.43L61.8167 1177.4Z" fill="#DA7DB5"/>
<path d="M49.7337 1138.07C28.7499 1138.07 11.7422 1155.08 11.7422 1176.06C11.7422 1197.05 28.7499 1214.06 49.7337 1214.06C70.7175 1214.06 87.7252 1197.05 87.7252 1176.06C87.7252 1155.08 70.7175 1138.07 49.7337 1138.07ZM51.2846 1149.8C57.3841 1150.16 62.9215 1152.59 67.2098 1156.4L61.7245 1161.89C58.8621 1159.46 55.2503 1157.89 51.2846 1157.56V1149.8ZM48.1932 1149.8V1157.56C44.2276 1157.88 40.6158 1159.46 37.7534 1161.89L32.268 1156.4C36.5564 1152.59 42.0938 1150.16 48.1932 1149.8ZM30.0823 1158.59L35.5676 1164.07C33.1424 1166.94 31.5707 1170.55 31.2376 1174.51H23.4832C23.8371 1168.41 26.2727 1162.88 30.0823 1158.59ZM23.4832 1177.6H31.2376C31.5603 1181.57 33.1424 1185.18 35.5676 1188.04L30.0823 1193.53C26.2727 1189.24 23.8371 1183.7 23.4832 1177.6ZM48.1932 1202.31C42.0938 1201.96 36.5564 1199.52 32.268 1195.72L37.7534 1190.23C40.6158 1192.66 44.2276 1194.23 48.1932 1194.56V1202.31ZM33.7669 1176.05C33.7669 1167.24 40.9176 1160.09 49.7337 1160.09C58.5498 1160.09 65.7006 1167.24 65.7006 1176.05C65.7006 1184.87 58.5498 1192.02 49.7337 1192.02C40.9176 1192.02 33.7669 1184.87 33.7669 1176.05ZM51.2846 1202.31V1194.56C55.2503 1194.24 58.8621 1192.66 61.7245 1190.23L67.2098 1195.72C62.9215 1199.52 57.3841 1201.96 51.2846 1202.31ZM69.3956 1193.53L63.9103 1188.04C66.3355 1185.18 67.9072 1181.57 68.2403 1177.6H75.9947C75.6408 1183.7 73.2052 1189.24 69.3956 1193.53ZM68.2403 1174.51C67.9176 1170.55 66.3355 1166.94 63.9103 1164.07L69.3956 1158.59C73.2052 1162.88 75.6408 1168.41 75.9947 1174.51H68.2403Z" fill="#DA7DB5"/>
<path d="M49.877 1102.15C22.5543 1102.15 0.331909 1079.92 0.331909 1052.61C0.331909 1025.29 22.5647 1003.06 49.877 1003.06C77.1893 1003.06 99.4221 1025.29 99.4221 1052.61C99.4221 1079.92 77.1893 1102.15 49.877 1102.15ZM49.877 1006.36C24.3758 1006.36 3.63143 1027.11 3.63143 1052.61C3.63143 1078.11 24.3758 1098.85 49.877 1098.85C75.3782 1098.85 96.1226 1078.11 96.1226 1052.61C96.1226 1027.11 75.3782 1006.36 49.877 1006.36Z" fill="#EBF29D"/>
<path d="M65.9513 1021.67C65.7015 1021.67 65.4517 1021.62 65.2227 1021.51C60.4243 1019.13 55.2617 1017.93 49.8804 1017.93C44.4991 1017.93 39.3365 1019.13 34.5381 1021.51C33.9032 1021.82 33.1433 1021.69 32.6437 1021.19L24.1294 1012.68C23.7651 1012.32 23.5986 1011.82 23.661 1011.31C23.7235 1010.8 24.015 1010.35 24.4521 1010.09C32.1233 1005.49 40.9186 1003.06 49.8908 1003.06C58.8631 1003.06 67.6584 1005.5 75.3295 1010.09C75.7667 1010.35 76.0581 1010.8 76.1206 1011.31C76.183 1011.82 76.0061 1012.32 75.6522 1012.68L67.1379 1021.19C66.8153 1021.51 66.3989 1021.67 65.9618 1021.67H65.9513ZM49.8804 1014.63C55.3658 1014.63 60.6533 1015.77 65.6078 1018.03L71.7698 1011.87C65.0666 1008.26 57.5412 1006.36 49.8804 1006.36C42.2196 1006.36 34.6942 1008.26 27.9911 1011.87L34.153 1018.03C39.1075 1015.77 44.3951 1014.63 49.8804 1014.63Z" fill="#EBF29D"/>
<path d="M49.8786 1102.15C40.9064 1102.15 32.1111 1099.72 24.4399 1095.13C24.0027 1094.87 23.7113 1094.42 23.6488 1093.91C23.5864 1093.4 23.7633 1092.9 24.1172 1092.53L32.6315 1084.02C33.1311 1083.52 33.9014 1083.4 34.5259 1083.71C39.3243 1086.08 44.4869 1087.29 49.8682 1087.29C55.2495 1087.29 60.4122 1086.08 65.2106 1083.71C65.8455 1083.4 66.6053 1083.52 67.1049 1084.02L75.6192 1092.53C75.9835 1092.9 76.15 1093.4 76.0876 1093.91C76.0251 1094.42 75.7337 1094.87 75.2965 1095.13C67.6253 1099.73 58.8301 1102.15 49.8578 1102.15H49.8786ZM27.9893 1093.35C34.6924 1096.96 42.2179 1098.85 49.8786 1098.85C57.5394 1098.85 65.0648 1096.96 71.768 1093.35L65.6061 1087.18C60.6515 1089.44 55.364 1090.59 49.8786 1090.59C44.3933 1090.59 39.1057 1089.44 34.1512 1087.18L27.9893 1093.35Z" fill="#EBF29D"/>
<path d="M90.9826 1078.85C90.5454 1078.85 90.1291 1078.68 89.8168 1078.37L81.3026 1069.85C80.8029 1069.35 80.6781 1068.58 80.9903 1067.96C83.3635 1063.16 84.5709 1058 84.5709 1052.62C84.5709 1047.24 83.3635 1042.07 80.9903 1037.28C80.6781 1036.64 80.8029 1035.87 81.3026 1035.38L89.8168 1026.87C90.1811 1026.5 90.6807 1026.34 91.1908 1026.4C91.7008 1026.46 92.1483 1026.75 92.4086 1027.19C97.0092 1034.86 99.4344 1043.66 99.4344 1052.63C99.4344 1061.6 97.0092 1070.4 92.4086 1078.07C92.1483 1078.5 91.7008 1078.8 91.1908 1078.86C91.1179 1078.86 91.0554 1078.86 90.9826 1078.86V1078.85ZM84.4564 1068.33L90.6183 1074.5C94.2301 1067.79 96.1244 1060.27 96.1244 1052.61C96.1244 1044.95 94.2301 1037.42 90.6183 1030.72L84.4564 1036.88C86.7151 1041.83 87.86 1047.12 87.86 1052.61C87.86 1058.09 86.7151 1063.38 84.4564 1068.33Z" fill="#EBF29D"/>
<path d="M8.77305 1078.85C8.70019 1078.85 8.63774 1078.85 8.57529 1078.84C8.06526 1078.77 7.61771 1078.48 7.35749 1078.05C2.75688 1070.37 0.331665 1061.58 0.331665 1052.61C0.331665 1043.63 2.75688 1034.84 7.35749 1027.17C7.61771 1026.73 8.06526 1026.44 8.57529 1026.38C9.08531 1026.31 9.58493 1026.49 9.94923 1026.85L18.4635 1035.36C18.9631 1035.86 19.088 1036.63 18.7757 1037.25C16.4026 1042.05 15.1952 1047.22 15.1952 1052.6C15.1952 1057.98 16.4026 1063.14 18.7757 1067.94C19.088 1068.57 18.9631 1069.34 18.4635 1069.83L9.94923 1078.35C9.63697 1078.66 9.22063 1078.84 8.78347 1078.84L8.77305 1078.85ZM9.13733 1030.72C5.52553 1037.42 3.63118 1044.95 3.63118 1052.61C3.63118 1060.27 5.52553 1067.79 9.13733 1074.5L15.2993 1068.33C13.0406 1063.38 11.8956 1058.09 11.8956 1052.61C11.8956 1047.12 13.0406 1041.83 15.2993 1036.88L9.13733 1030.72Z" fill="#EBF29D"/>
<path d="M49.8781 1014.62C28.9359 1014.62 11.8866 1031.65 11.8866 1052.61C11.8866 1073.56 28.9255 1090.6 49.8781 1090.6C70.8307 1090.6 87.8696 1073.56 87.8696 1052.61C87.8696 1031.65 70.8307 1014.62 49.8781 1014.62ZM71.2575 1040.13C73.0582 1043.21 74.1511 1046.57 74.505 1050.14C74.5154 1050.29 74.4529 1050.42 74.328 1050.49C71.6113 1052.16 69.1757 1054.2 67.0732 1056.58C66.9795 1056.7 66.8234 1056.74 66.6881 1056.69L61.9938 1055.16C61.8585 1055.12 61.7648 1055 61.744 1054.86C61.2131 1050.97 60.0057 1047.26 58.153 1043.8C58.0905 1043.68 58.101 1043.53 58.1842 1043.42L61.0882 1039.42C61.1611 1039.33 61.2756 1039.26 61.3901 1039.26C61.4213 1039.26 61.4421 1039.26 61.4733 1039.26C64.5751 1039.95 67.7602 1040.18 70.9244 1039.92C71.0701 1039.91 71.2054 1039.98 71.2783 1040.11L71.2575 1040.13ZM59.1834 1055.51C59.1938 1055.62 59.1626 1055.72 59.1002 1055.79C56.6333 1058.63 53.4899 1060.91 50.0239 1062.37C49.9302 1062.41 49.8365 1062.41 49.7428 1062.37C46.2767 1060.9 43.1333 1058.62 40.6665 1055.79C40.604 1055.72 40.5728 1055.62 40.5832 1055.51C41.062 1051.74 42.2382 1048.14 44.0597 1044.81C44.1118 1044.72 44.195 1044.65 44.2991 1044.63C46.131 1044.25 48.0046 1044.05 49.8885 1044.05C51.7725 1044.05 53.646 1044.25 55.478 1044.63C55.5821 1044.65 55.6653 1044.72 55.7173 1044.81C57.5389 1048.14 58.7047 1051.74 59.1939 1055.51H59.1834ZM58.6214 1029.68C58.6214 1029.68 58.7463 1029.57 58.8712 1029.57C58.9128 1029.57 58.9649 1029.57 59.0169 1029.6C62.8473 1031.12 66.2717 1033.62 68.9363 1036.82C69.0716 1036.97 69.0196 1037.14 68.9884 1037.2C68.9675 1037.25 68.8739 1037.42 68.6553 1037.42C66.2926 1037.45 63.9402 1037.18 61.6607 1036.64C61.567 1036.62 61.4838 1036.56 61.4317 1036.47C60.2139 1034.46 59.2355 1032.3 58.5277 1030.05C58.4652 1029.85 58.5798 1029.72 58.6318 1029.68H58.6214ZM44.6218 1028.43C48.067 1027.69 51.6996 1027.69 55.1449 1028.43C55.2802 1028.46 55.3947 1028.56 55.4259 1028.7C56.1649 1031.79 57.3619 1034.75 58.9753 1037.48C59.0481 1037.61 59.0377 1037.76 58.9545 1037.89L56.0713 1041.87C55.988 1041.98 55.8423 1042.04 55.707 1042.01C51.8974 1041.24 47.8693 1041.24 44.0597 1042.01C43.9244 1042.04 43.7787 1041.98 43.6954 1041.87L40.8122 1037.89C40.729 1037.77 40.7185 1037.61 40.7914 1037.48C42.4047 1034.75 43.6017 1031.79 44.3407 1028.7C44.3719 1028.56 44.4865 1028.46 44.6218 1028.43ZM30.8303 1036.82C33.4949 1033.61 36.9194 1031.11 40.7498 1029.6C40.8018 1029.58 40.8538 1029.57 40.8955 1029.57C41.0308 1029.57 41.114 1029.65 41.1453 1029.68C41.1973 1029.73 41.3118 1029.85 41.2494 1030.05C40.5416 1032.31 39.5631 1034.46 38.3453 1036.47C38.2933 1036.56 38.21 1036.62 38.1164 1036.64C35.8369 1037.18 33.4846 1037.45 31.1218 1037.42C30.9032 1037.42 30.8095 1037.25 30.7887 1037.2C30.7575 1037.14 30.7054 1036.97 30.8407 1036.82H30.8303ZM28.5092 1040.13C28.5717 1040.01 28.6966 1039.94 28.8319 1039.94C28.8319 1039.94 28.8527 1039.94 28.8631 1039.94C32.0377 1040.19 35.2228 1039.97 38.3141 1039.28C38.4599 1039.25 38.6056 1039.3 38.6888 1039.43L41.5929 1043.43C41.6762 1043.54 41.6865 1043.7 41.6241 1043.81C39.7713 1047.27 38.5639 1050.98 38.0331 1054.87C38.0123 1055 37.9186 1055.12 37.7833 1055.17L33.089 1056.7C32.9537 1056.74 32.7975 1056.7 32.7039 1056.59C30.6013 1054.21 28.1657 1052.17 25.4491 1050.5C25.3346 1050.43 25.2617 1050.3 25.2721 1050.15C25.626 1046.58 26.7189 1043.21 28.5196 1040.14L28.5092 1040.13ZM29.6437 1065.77C29.5813 1065.97 29.4043 1066.01 29.3315 1066.02C29.2586 1066.02 29.0921 1066.02 28.9776 1065.86C26.7605 1062.37 25.4491 1058.33 25.1889 1054.19C25.1785 1053.98 25.3138 1053.88 25.3762 1053.85C25.4387 1053.81 25.6052 1053.74 25.7717 1053.87C27.6973 1055.23 29.446 1056.83 30.9761 1058.61C31.0385 1058.69 31.0697 1058.78 31.0593 1058.88C30.8719 1061.23 30.3931 1063.55 29.6333 1065.78L29.6437 1065.77ZM39.9275 1075.28C36.68 1073.85 33.8176 1071.76 31.4236 1069.07C31.3299 1068.97 31.2987 1068.81 31.3508 1068.69C32.5686 1065.75 33.3388 1062.66 33.6407 1059.5C33.6511 1059.35 33.7552 1059.23 33.8905 1059.19L38.5327 1057.68C38.5327 1057.68 38.6056 1057.66 38.6472 1057.66C38.7513 1057.66 38.845 1057.7 38.9179 1057.78C41.52 1060.69 44.7779 1063.07 48.3481 1064.64C48.4834 1064.7 48.5666 1064.83 48.5666 1064.97V1069.85C48.5666 1070 48.4834 1070.14 48.3481 1070.19C45.4337 1071.45 42.7274 1073.14 40.3022 1075.21C40.1981 1075.31 40.0419 1075.33 39.917 1075.27L39.9275 1075.28ZM56.3002 1076.31C56.2898 1076.38 56.2378 1076.55 56.0297 1076.6C52.0119 1077.62 47.7651 1077.62 43.7474 1076.6C43.5496 1076.55 43.4873 1076.38 43.4768 1076.31C43.4664 1076.23 43.4456 1076.07 43.6225 1075.93C45.5169 1074.53 47.5778 1073.35 49.7532 1072.45C49.8469 1072.4 49.9406 1072.4 50.0343 1072.45C52.1993 1073.35 54.2602 1074.53 56.165 1075.93C56.3315 1076.06 56.3211 1076.23 56.3106 1076.31H56.3002ZM68.3639 1069.08C65.9699 1071.77 63.1075 1073.85 59.86 1075.28C59.7247 1075.34 59.579 1075.31 59.4749 1075.22C57.0497 1073.15 54.3538 1071.46 51.429 1070.2C51.2937 1070.14 51.2105 1070.01 51.2105 1069.86V1064.98C51.2105 1064.84 51.2937 1064.7 51.429 1064.65C54.9992 1063.08 58.2675 1060.7 60.8592 1057.79C60.9321 1057.71 61.0258 1057.67 61.1298 1057.67C61.1715 1057.67 61.2027 1057.67 61.2443 1057.69L65.8866 1059.2C66.0219 1059.24 66.126 1059.36 66.1364 1059.51C66.4382 1062.67 67.2085 1065.75 68.4263 1068.7C68.4784 1068.82 68.4575 1068.98 68.3534 1069.08H68.3639ZM70.7995 1065.87C70.685 1066.04 70.508 1066.04 70.4456 1066.03C70.3727 1066.03 70.2062 1065.98 70.1333 1065.78C69.3839 1063.55 68.9051 1061.23 68.7074 1058.88C68.7074 1058.79 68.7281 1058.69 68.7906 1058.61C70.3207 1056.83 72.0693 1055.24 73.9949 1053.87C74.0678 1053.81 74.1406 1053.79 74.2031 1053.79C74.2864 1053.79 74.3488 1053.82 74.3904 1053.85C74.4529 1053.88 74.5987 1053.98 74.5778 1054.19C74.3176 1058.33 73.0061 1062.37 70.7891 1065.86L70.7995 1065.87Z" fill="#EBF29D"/>
<path d="M99.111 930.285C99.111 957.607 76.8782 979.84 49.5555 979.84C22.2328 979.84 0 957.607 0 930.285C0 902.962 22.2328 880.729 49.5555 880.729C76.8782 880.729 99.111 902.962 99.111 930.285ZM3.57015 930.285C3.57015 955.64 24.2001 976.27 49.5555 976.27C74.9109 976.27 95.5408 955.64 95.5408 930.285C95.5408 904.929 74.9109 884.299 49.5555 884.299C24.2001 884.299 3.57015 904.929 3.57015 930.285Z" fill="#11F8A5"/>
<path d="M99.1136 809.149C99.1136 810.138 98.3122 810.929 97.3338 810.929C96.3553 810.929 95.5539 810.127 95.5539 809.149C95.5539 783.794 74.924 763.164 49.5685 763.164C24.2131 763.164 3.58317 783.794 3.58317 809.149C3.58317 810.138 2.78169 810.929 1.80327 810.929C0.824862 810.929 0.0234375 810.127 0.0234375 809.149C0.0234375 781.826 22.2563 759.594 49.5789 759.594C76.9016 759.594 99.1344 781.826 99.1344 809.149H99.1136Z" fill="#11F8A5"/>
<path d="M40.012 921.531C40.012 923.353 41.2506 924.935 43.0201 925.372L46.382 926.215V917.565H43.9881C41.8023 917.565 40.0224 919.345 40.0224 921.531H40.012Z" fill="#11F8A5"/>
<path d="M52.7293 943.004H55.1234C57.3092 943.004 59.0891 941.224 59.0891 939.038C59.0891 937.217 57.8504 935.635 56.081 935.198L52.719 934.354V943.004H52.7293Z" fill="#11F8A5"/>
<path d="M49.5564 889.962C27.3235 889.962 9.2229 908.052 9.2229 930.295C9.2229 952.538 27.3131 970.629 49.5564 970.629C71.7996 970.629 89.8898 952.538 89.8898 930.295C89.8898 908.052 71.7996 889.962 49.5564 889.962ZM65.4608 923.925H59.1011V920.74C59.1011 918.991 57.6751 917.555 55.916 917.555H52.731V927.797L57.6335 929.025C62.2341 930.181 65.4504 934.292 65.4504 939.038C65.4504 944.732 60.8185 949.364 55.125 949.364H52.731V957.42H46.3713V949.364H43.1863C37.9195 949.364 33.6416 945.086 33.6416 939.819V936.634H40.0012V939.819C40.0012 941.568 41.4272 943.004 43.1863 943.004H46.3713V932.762L41.4688 931.534C36.8682 930.378 33.652 926.267 33.652 921.521C33.652 915.827 38.2838 911.195 43.9773 911.195H46.3713V903.139H52.731V911.195H55.916C61.1828 911.195 65.4608 915.473 65.4608 920.74V923.925Z" fill="#11F8A5"/>
<path d="M99.173 808.389V927.984C99.173 928.973 98.3716 929.764 97.3932 929.764C96.4148 929.764 95.6133 928.963 95.6133 927.984V808.389C95.6133 807.4 96.4148 806.609 97.3932 806.609C98.3716 806.609 99.173 807.411 99.173 808.389Z" fill="#11F8A5"/>
<path d="M3.63786 808.129V927.724C3.63786 928.713 2.83637 929.504 1.85796 929.504C0.879549 929.504 0.078125 928.703 0.078125 927.724V808.129C0.078125 807.14 0.879549 806.349 1.85796 806.349C2.83637 806.349 3.63786 807.151 3.63786 808.129Z" fill="#11F8A5"/>
<path d="M49.7326 728.999C37.0341 728.999 24.3459 724.17 14.6763 714.5C-4.65252 695.171 -4.65252 663.727 14.6763 644.398C24.0441 635.03 36.4928 629.878 49.7326 629.878C62.9724 629.878 75.4212 635.03 84.7889 644.398C104.118 663.727 104.118 695.171 84.7889 714.5C75.1297 724.159 62.4311 728.999 49.7326 728.999ZM17.2785 711.898C35.1709 729.79 64.2839 729.79 82.1763 711.898C100.069 694.006 100.069 664.893 82.1763 647C73.506 638.33 61.9836 633.563 49.7222 633.563C37.4609 633.563 25.9384 638.34 17.2681 647C-0.624391 664.893 -0.624391 694.006 17.2681 711.898H17.2785Z" fill="#EBF29D"/>
<path d="M49.077 697.992C49.2539 698.419 49.6703 698.669 50.1074 698.669C50.2532 698.669 50.3989 698.637 50.5446 698.585C54.0419 697.118 57.2269 694.849 59.7458 692.017C60.1518 691.559 60.1101 690.852 59.6521 690.446C59.1942 690.04 58.4864 690.082 58.0804 690.54C55.7801 693.131 52.8761 695.203 49.6806 696.535C49.1186 696.774 48.8479 697.43 49.0873 697.992H49.077Z" fill="#EBF29D"/>
<path d="M68.6226 662.311L50.1369 654.921C49.8663 654.817 49.5748 654.817 49.3042 654.921L30.8185 662.311C30.3917 662.478 30.1211 662.884 30.1211 663.342V676.582C30.1419 688.801 37.8651 699.845 49.3355 704.05C49.4604 704.092 49.5853 704.112 49.7206 704.112C49.8559 704.112 49.9808 704.092 50.1057 704.05C61.576 699.834 69.2992 688.801 69.32 676.582V663.342C69.32 662.884 69.0494 662.478 68.6226 662.311ZM67.0926 676.582C67.0718 687.698 60.0979 697.826 49.7309 701.812C39.3639 697.826 32.3797 687.698 32.3589 676.582V664.102L49.7309 657.159L67.0926 664.102V676.582Z" fill="#EBF29D"/>
<path d="M42.0084 664.049C41.7378 663.935 41.4359 663.935 41.1549 664.049L36.752 665.809C36.3253 665.975 36.0547 666.381 36.0547 666.839V671.533C36.0547 672.147 36.5543 672.647 37.1684 672.647C37.7825 672.647 38.2821 672.147 38.2821 671.533V667.599L41.9772 666.121C42.2582 666.006 42.4664 665.798 42.5913 665.517C42.7058 665.247 42.7058 664.945 42.5913 664.664C42.4768 664.383 42.2686 664.174 41.998 664.049H42.0084Z" fill="#EBF29D"/>
<path d="M77.8877 651.299C70.3727 643.774 60.3699 639.641 49.7323 639.641C39.0947 639.641 29.1024 643.784 21.577 651.299C6.05768 666.818 6.05768 692.08 21.577 707.61C29.3418 715.375 39.5318 719.247 49.7323 719.247C59.9328 719.247 70.1229 715.364 77.8877 707.61C93.407 692.091 93.407 666.829 77.8877 651.299ZM72.3815 676.582C72.4127 690.706 63.3884 703.061 49.9301 707.339C49.8052 707.381 49.6698 707.381 49.5345 707.339C36.0762 703.061 27.0519 690.706 27.0832 676.582V660.958C27.0832 660.698 27.2392 660.459 27.4891 660.355L49.4929 651.559C49.5658 651.528 49.649 651.518 49.7323 651.518C49.8156 651.518 49.8989 651.528 49.9717 651.559L71.9756 660.365C72.2254 660.459 72.3815 660.698 72.3815 660.969V676.592V676.582Z" fill="#EBF29D"/>
<path d="M49.7326 602.389C22.4099 602.389 0.1875 580.156 0.1875 552.844C0.1875 525.531 22.4203 503.299 49.7326 503.299C77.0448 503.299 99.2777 525.531 99.2777 552.844C99.2777 580.156 77.0448 602.389 49.7326 602.389ZM49.7326 506.598C24.2314 506.598 3.48702 527.343 3.48702 552.844C3.48702 578.345 24.2314 599.089 49.7326 599.089C75.2337 599.089 95.9782 578.345 95.9782 552.844C95.9782 527.343 75.2337 506.598 49.7326 506.598Z" fill="#DA7DB5"/>
<path d="M82.0648 517.49L66.7266 532.829L69.7442 535.846L85.0824 520.508L82.0648 517.49Z" fill="#DA7DB5"/>
<path d="M29.2639 570.289L13.9257 585.627L16.9432 588.645L32.2815 573.307L29.2639 570.289Z" fill="#DA7DB5"/>
<path d="M70.1934 570.297L67.1758 573.314L82.514 588.653L85.5316 585.635L70.1934 570.297Z" fill="#DA7DB5"/>
<path d="M16.9395 517.036L13.9219 520.053L29.2528 535.384L32.2704 532.367L16.9395 517.036Z" fill="#DA7DB5"/>
<path d="M61.8167 554.176C62.816 553.177 62.816 551.563 61.8167 550.575L59.6933 548.462C58.6941 547.463 57.0808 547.463 56.092 548.462L54.947 549.607L53.6251 548.285C52.6259 547.286 51.0126 547.286 50.0237 548.285L48.8788 549.44L47.5569 548.108C46.5577 547.109 44.9443 547.109 43.9555 548.108L36.9297 555.134C36.8776 555.186 36.8776 555.269 36.9297 555.331C37.8664 556.268 39.3965 556.268 40.3437 555.331L44.8715 550.804C45.3607 550.314 46.1517 550.314 46.6409 550.804L46.974 551.137C47.0365 551.199 47.0365 551.293 46.974 551.355L43.1957 555.134C43.1436 555.186 43.1436 555.269 43.1957 555.331C44.1325 556.268 45.6625 556.268 46.6097 555.331L50.9501 550.991C51.4393 550.502 52.2304 550.502 52.7196 550.991L53.0526 551.324C53.1047 551.376 53.1047 551.459 53.0526 551.522L49.4096 555.165C49.3576 555.217 49.3576 555.3 49.4096 555.363C50.3464 556.299 51.8765 556.299 52.8237 555.363L57.0183 551.168C57.5075 550.679 58.2986 550.679 58.7878 551.168L59.506 551.886C59.787 552.167 59.787 552.636 59.506 552.917L59.3915 553.031C59.1105 553.312 58.6421 553.312 58.3611 553.031L57.4347 552.105C57.3826 552.053 57.2994 552.053 57.2369 552.105L55.634 553.708C55.582 553.76 55.582 553.843 55.634 553.905L57.0808 555.352C58.08 556.351 59.6934 556.351 60.6822 555.352L61.8272 554.207L61.8167 554.176Z" fill="#DA7DB5"/>
<path d="M49.7337 514.852C28.7499 514.852 11.7422 531.86 11.7422 552.844C11.7422 573.827 28.7499 590.835 49.7337 590.835C70.7175 590.835 87.7252 573.827 87.7252 552.844C87.7252 531.86 70.7175 514.852 49.7337 514.852ZM51.2846 526.583C57.3841 526.937 62.9215 529.372 67.2098 533.182L61.7245 538.667C58.8621 536.242 55.2503 534.67 51.2846 534.337V526.583ZM48.1932 526.583V534.337C44.2276 534.66 40.6158 536.242 37.7534 538.667L32.268 533.182C36.5564 529.372 42.0938 526.937 48.1932 526.583ZM30.0823 535.368L35.5676 540.853C33.1424 543.715 31.5707 547.327 31.2376 551.293H23.4832C23.8371 545.193 26.2727 539.656 30.0823 535.368ZM23.4832 554.384H31.2376C31.5603 558.35 33.1424 561.962 35.5676 564.824L30.0823 570.309C26.2727 566.021 23.8371 560.484 23.4832 554.384ZM48.1932 579.094C42.0938 578.74 36.5564 576.305 32.268 572.495L37.7534 567.01C40.6158 569.435 44.2276 571.007 48.1932 571.34V579.094ZM33.7669 552.833C33.7669 544.017 40.9176 536.866 49.7337 536.866C58.5498 536.866 65.7006 544.017 65.7006 552.833C65.7006 561.649 58.5498 568.8 49.7337 568.8C40.9176 568.8 33.7669 561.649 33.7669 552.833ZM51.2846 579.094V571.34C55.2503 571.017 58.8621 569.435 61.7245 567.01L67.2098 572.495C62.9215 576.305 57.3841 578.74 51.2846 579.094ZM69.3956 570.309L63.9103 564.824C66.3355 561.962 67.9072 558.35 68.2403 554.384H75.9947C75.6408 560.484 73.2052 566.021 69.3956 570.309ZM68.2403 551.293C67.9176 547.327 66.3355 543.715 63.9103 540.853L69.3956 535.368C73.2052 539.656 75.6408 545.193 75.9947 551.293H68.2403Z" fill="#DA7DB5"/>
<path d="M49.877 478.932C22.5543 478.932 0.331909 456.699 0.331909 429.387C0.331909 402.075 22.5647 379.842 49.877 379.842C77.1893 379.842 99.4221 402.075 99.4221 429.387C99.4221 456.699 77.1893 478.932 49.877 478.932ZM49.877 383.141C24.3758 383.141 3.63143 403.886 3.63143 429.387C3.63143 454.888 24.3758 475.632 49.877 475.632C75.3782 475.632 96.1226 454.888 96.1226 429.387C96.1226 403.886 75.3782 383.141 49.877 383.141Z" fill="#EBF29D"/>
<path d="M65.9513 398.452C65.7015 398.452 65.4517 398.4 65.2227 398.286C60.4243 395.913 55.2617 394.705 49.8804 394.705C44.4991 394.705 39.3365 395.913 34.5381 398.286C33.9032 398.598 33.1433 398.473 32.6437 397.974L24.1294 389.459C23.7651 389.095 23.5986 388.595 23.661 388.085C23.7235 387.575 24.015 387.128 24.4521 386.868C32.1233 382.267 40.9186 379.842 49.8908 379.842C58.8631 379.842 67.6584 382.277 75.3295 386.868C75.7667 387.128 76.0581 387.575 76.1206 388.085C76.183 388.595 76.0061 389.095 75.6522 389.459L67.1379 397.974C66.8153 398.286 66.3989 398.452 65.9618 398.452H65.9513ZM49.8804 391.406C55.3658 391.406 60.6533 392.551 65.6078 394.809L71.7698 388.647C65.0666 385.036 57.5412 383.141 49.8804 383.141C42.2196 383.141 34.6942 385.036 27.9911 388.647L34.153 394.809C39.1075 392.551 44.3951 391.406 49.8804 391.406Z" fill="#EBF29D"/>
<path d="M49.8786 478.932C40.9064 478.932 32.1111 476.496 24.4399 471.906C24.0027 471.646 23.7113 471.198 23.6488 470.688C23.5864 470.178 23.7633 469.679 24.1172 469.314L32.6315 460.8C33.1311 460.301 33.9014 460.176 34.5259 460.488C39.3243 462.861 44.4869 464.068 49.8682 464.068C55.2495 464.068 60.4122 462.861 65.2106 460.488C65.8455 460.176 66.6053 460.301 67.1049 460.8L75.6192 469.314C75.9835 469.679 76.15 470.178 76.0876 470.688C76.0251 471.198 75.7337 471.646 75.2965 471.906C67.6253 476.507 58.8301 478.932 49.8578 478.932H49.8786ZM27.9893 470.126C34.6924 473.738 42.2179 475.632 49.8786 475.632C57.5394 475.632 65.0648 473.738 71.768 470.126L65.6061 463.964C60.6515 466.223 55.364 467.368 49.8786 467.368C44.3933 467.368 39.1057 466.223 34.1512 463.964L27.9893 470.126Z" fill="#EBF29D"/>
<path d="M90.9826 455.627C90.5454 455.627 90.1291 455.46 89.8168 455.148L81.3026 446.634C80.8029 446.134 80.6781 445.364 80.9903 444.74C83.3635 439.941 84.5709 434.779 84.5709 429.397C84.5709 424.016 83.3635 418.853 80.9903 414.055C80.6781 413.42 80.8029 412.65 81.3026 412.161L89.8168 403.646C90.1811 403.282 90.6807 403.115 91.1908 403.178C91.7008 403.24 92.1483 403.532 92.4086 403.969C97.0092 411.64 99.4344 420.435 99.4344 429.408C99.4344 438.38 97.0092 447.175 92.4086 454.846C92.1483 455.284 91.7008 455.575 91.1908 455.637C91.1179 455.637 91.0554 455.637 90.9826 455.637V455.627ZM84.4564 445.114L90.6183 451.276C94.2301 444.573 96.1244 437.048 96.1244 429.387C96.1244 421.726 94.2301 414.201 90.6183 407.498L84.4564 413.659C86.7151 418.614 87.86 423.901 87.86 429.387C87.86 434.872 86.7151 440.16 84.4564 445.114Z" fill="#EBF29D"/>
<path d="M8.77305 455.627C8.70019 455.627 8.63774 455.627 8.57529 455.617C8.06526 455.554 7.61771 455.263 7.35749 454.826C2.75688 447.154 0.331665 438.359 0.331665 429.387C0.331665 420.415 2.75688 411.619 7.35749 403.948C7.61771 403.511 8.06526 403.22 8.57529 403.157C9.08531 403.095 9.58493 403.272 9.94923 403.626L18.4635 412.14C18.9631 412.639 19.088 413.41 18.7757 414.034C16.4026 418.833 15.1952 423.995 15.1952 429.376C15.1952 434.758 16.4026 439.92 18.7757 444.719C19.088 445.354 18.9631 446.124 18.4635 446.613L9.94923 455.127C9.63697 455.44 9.22063 455.617 8.78347 455.617L8.77305 455.627ZM9.13733 407.498C5.52553 414.201 3.63118 421.726 3.63118 429.387C3.63118 437.048 5.52553 444.573 9.13733 451.276L15.2993 445.114C13.0406 440.16 11.8956 434.872 11.8956 429.387C11.8956 423.902 13.0406 418.614 15.2993 413.659L9.13733 407.498Z" fill="#EBF29D"/>
<path d="M49.8781 391.395C28.9359 391.395 11.8866 408.434 11.8866 429.387C11.8866 450.339 28.9255 467.378 49.8781 467.378C70.8307 467.378 87.8696 450.339 87.8696 429.387C87.8696 408.434 70.8307 391.395 49.8781 391.395ZM71.2575 416.907C73.0582 419.988 74.1511 423.35 74.505 426.92C74.5154 427.066 74.4529 427.201 74.328 427.274C71.6113 428.939 69.1757 430.979 67.0732 433.363C66.9795 433.477 66.8234 433.519 66.6881 433.467L61.9938 431.937C61.8585 431.895 61.7648 431.781 61.744 431.635C61.2131 427.753 60.0057 424.037 58.153 420.581C58.0905 420.456 58.101 420.31 58.1842 420.196L61.0882 416.199C61.1611 416.105 61.2756 416.043 61.3901 416.043C61.4213 416.043 61.4421 416.043 61.4733 416.043C64.5751 416.73 67.7602 416.959 70.9244 416.699C71.0701 416.688 71.2054 416.761 71.2783 416.886L71.2575 416.907ZM59.1834 432.291C59.1938 432.395 59.1626 432.499 59.1002 432.572C56.6333 435.413 53.4899 437.693 50.0239 439.15C49.9302 439.192 49.8365 439.192 49.7428 439.15C46.2767 437.682 43.1333 435.403 40.6665 432.572C40.604 432.499 40.5728 432.395 40.5832 432.291C41.062 428.523 42.2382 424.921 44.0597 421.591C44.1118 421.497 44.195 421.435 44.2991 421.414C46.131 421.029 48.0046 420.831 49.8885 420.831C51.7725 420.831 53.646 421.029 55.478 421.414C55.5821 421.435 55.6653 421.497 55.7173 421.591C57.5389 424.921 58.7047 428.523 59.1939 432.291H59.1834ZM58.6214 406.457C58.6214 406.457 58.7463 406.352 58.8712 406.352C58.9128 406.352 58.9649 406.352 59.0169 406.384C62.8473 407.903 66.2717 410.401 68.9363 413.597C69.0716 413.753 69.0196 413.92 68.9884 413.982C68.9675 414.034 68.8739 414.201 68.6553 414.201C66.2926 414.232 63.9402 413.961 61.6607 413.42C61.567 413.399 61.4838 413.337 61.4317 413.253C60.2139 411.245 59.2355 409.08 58.5277 406.831C58.4652 406.634 58.5798 406.498 58.6318 406.457H58.6214ZM44.6218 405.208C48.067 404.469 51.6996 404.469 55.1449 405.208C55.2802 405.239 55.3947 405.343 55.4259 405.478C56.1649 408.57 57.3619 411.526 58.9753 414.263C59.0481 414.388 59.0377 414.544 58.9545 414.669L56.0713 418.645C55.988 418.76 55.8423 418.822 55.707 418.791C51.8974 418.021 47.8693 418.021 44.0597 418.791C43.9244 418.822 43.7787 418.76 43.6954 418.645L40.8122 414.669C40.729 414.554 40.7185 414.388 40.7914 414.263C42.4047 411.526 43.6017 408.57 44.3407 405.478C44.3719 405.343 44.4865 405.239 44.6218 405.208ZM30.8303 413.597C33.4949 410.391 36.9194 407.893 40.7498 406.384C40.8018 406.363 40.8538 406.352 40.8955 406.352C41.0308 406.352 41.114 406.425 41.1453 406.457C41.1973 406.509 41.3118 406.634 41.2494 406.831C40.5416 409.09 39.5631 411.245 38.3453 413.253C38.2933 413.337 38.21 413.399 38.1164 413.42C35.8369 413.961 33.4846 414.232 31.1218 414.201C30.9032 414.201 30.8095 414.034 30.7887 413.982C30.7575 413.92 30.7054 413.753 30.8407 413.597H30.8303ZM28.5092 416.907C28.5717 416.792 28.6966 416.719 28.8319 416.719C28.8319 416.719 28.8527 416.719 28.8631 416.719C32.0377 416.969 35.2228 416.751 38.3141 416.064C38.4599 416.033 38.6056 416.085 38.6888 416.209L41.5929 420.206C41.6762 420.321 41.6865 420.477 41.6241 420.591C39.7713 424.047 38.5639 427.763 38.0331 431.645C38.0123 431.781 37.9186 431.895 37.7833 431.947L33.089 433.477C32.9537 433.519 32.7975 433.477 32.7039 433.373C30.6013 430.99 28.1657 428.95 25.4491 427.284C25.3346 427.211 25.2617 427.076 25.2721 426.93C25.626 423.36 26.7189 419.988 28.5196 416.917L28.5092 416.907ZM29.6437 442.554C29.5813 442.751 29.4043 442.793 29.3315 442.804C29.2586 442.804 29.0921 442.803 28.9776 442.637C26.7605 439.15 25.4491 435.112 25.1889 430.969C25.1785 430.761 25.3138 430.657 25.3762 430.625C25.4387 430.594 25.6052 430.521 25.7717 430.646C27.6973 432.01 29.446 433.613 30.9761 435.393C31.0385 435.465 31.0697 435.559 31.0593 435.663C30.8719 438.005 30.3931 440.326 29.6333 442.564L29.6437 442.554ZM39.9275 452.057C36.68 450.631 33.8176 448.539 31.4236 445.853C31.3299 445.749 31.2987 445.593 31.3508 445.468C32.5686 442.533 33.3388 439.442 33.6407 436.277C33.6511 436.132 33.7552 436.007 33.8905 435.965L38.5327 434.456C38.5327 434.456 38.6056 434.435 38.6472 434.435C38.7513 434.435 38.845 434.477 38.9179 434.56C41.52 437.474 44.7779 439.847 48.3481 441.419C48.4834 441.482 48.5666 441.607 48.5666 441.752V446.634C48.5666 446.78 48.4834 446.915 48.3481 446.967C45.4337 448.226 42.7274 449.923 40.3022 451.994C40.1981 452.088 40.0419 452.109 39.917 452.046L39.9275 452.057ZM56.3002 453.087C56.2898 453.16 56.2378 453.327 56.0297 453.379C52.0119 454.399 47.7651 454.399 43.7474 453.379C43.5496 453.327 43.4873 453.16 43.4768 453.087C43.4664 453.014 43.4456 452.848 43.6225 452.713C45.5169 451.307 47.5778 450.131 49.7532 449.226C49.8469 449.184 49.9406 449.184 50.0343 449.226C52.1993 450.131 54.2602 451.307 56.165 452.713C56.3315 452.837 56.3211 453.014 56.3106 453.087H56.3002ZM68.3639 445.864C65.9699 448.549 63.1075 450.631 59.86 452.057C59.7247 452.119 59.579 452.088 59.4749 452.005C57.0497 449.933 54.3538 448.237 51.429 446.977C51.2937 446.915 51.2105 446.79 51.2105 446.644V441.763C51.2105 441.617 51.2937 441.482 51.429 441.43C54.9992 439.858 58.2675 437.485 60.8592 434.57C60.9321 434.487 61.0258 434.445 61.1298 434.445C61.1715 434.445 61.2027 434.445 61.2443 434.466L65.8866 435.975C66.0219 436.017 66.126 436.142 66.1364 436.288C66.4382 439.452 67.2085 442.533 68.4263 445.479C68.4784 445.603 68.4575 445.76 68.3534 445.864H68.3639ZM70.7995 442.647C70.685 442.824 70.508 442.824 70.4456 442.814C70.3727 442.814 70.2062 442.762 70.1333 442.564C69.3839 440.326 68.9051 438.005 68.7074 435.663C68.7074 435.57 68.7281 435.465 68.7906 435.393C70.3207 433.613 72.0693 432.02 73.9949 430.646C74.0678 430.594 74.1406 430.573 74.2031 430.573C74.2864 430.573 74.3488 430.605 74.3904 430.625C74.4529 430.657 74.5987 430.761 74.5778 430.969C74.3176 435.112 73.0061 439.15 70.7891 442.637L70.7995 442.647Z" fill="#EBF29D"/>
<path d="M99.111 307.065C99.111 334.387 76.8782 356.62 49.5555 356.62C22.2328 356.62 0 334.387 0 307.065C0 279.742 22.2328 257.509 49.5555 257.509C76.8782 257.509 99.111 279.742 99.111 307.065ZM3.57015 307.065C3.57015 332.42 24.2001 353.05 49.5555 353.05C74.9109 353.05 95.5408 332.42 95.5408 307.065C95.5408 281.709 74.9109 261.079 49.5555 261.079C24.2001 261.079 3.57015 281.709 3.57015 307.065Z" fill="#11F8A5"/>
<path d="M99.1136 185.929C99.1136 186.918 98.3122 187.709 97.3338 187.709C96.3553 187.709 95.5539 186.907 95.5539 185.929C95.5539 160.573 74.924 139.943 49.5685 139.943C24.2131 139.943 3.58317 160.573 3.58317 185.929C3.58317 186.918 2.78169 187.709 1.80327 187.709C0.824862 187.709 0.0234375 186.907 0.0234375 185.929C0.0234375 158.606 22.2563 136.373 49.5789 136.373C76.9016 136.373 99.1344 158.606 99.1344 185.929H99.1136Z" fill="#11F8A5"/>
<path d="M40.012 298.311C40.012 300.132 41.2506 301.715 43.0201 302.152L46.382 302.995V294.345H43.9881C41.8023 294.345 40.0224 296.125 40.0224 298.311H40.012Z" fill="#11F8A5"/>
<path d="M52.7293 319.784H55.1234C57.3092 319.784 59.0891 318.004 59.0891 315.818C59.0891 313.997 57.8504 312.415 56.081 311.977L52.719 311.134V319.784H52.7293Z" fill="#11F8A5"/>
<path d="M49.5564 266.741C27.3235 266.741 9.2229 284.832 9.2229 307.075C9.2229 329.318 27.3131 347.408 49.5564 347.408C71.7996 347.408 89.8898 329.318 89.8898 307.075C89.8898 284.832 71.7996 266.741 49.5564 266.741ZM65.4608 300.705H59.1011V297.52C59.1011 295.771 57.6751 294.335 55.916 294.335H52.731V304.577L57.6335 305.805C62.2341 306.96 65.4504 311.072 65.4504 315.818C65.4504 321.512 60.8185 326.144 55.125 326.144H52.731V334.2H46.3713V326.144H43.1863C37.9195 326.144 33.6416 321.866 33.6416 316.599V313.414H40.0012V316.599C40.0012 318.347 41.4272 319.784 43.1863 319.784H46.3713V309.542L41.4688 308.314C36.8682 307.158 33.652 303.047 33.652 298.3C33.652 292.607 38.2838 287.975 43.9773 287.975H46.3713V279.919H52.731V287.975H55.916C61.1828 287.975 65.4608 292.253 65.4608 297.52V300.705Z" fill="#11F8A5"/>
<path d="M99.173 185.169V304.764C99.173 305.753 98.3716 306.544 97.3932 306.544C96.4148 306.544 95.6133 305.743 95.6133 304.764V185.169C95.6133 184.18 96.4148 183.389 97.3932 183.389C98.3716 183.389 99.173 184.191 99.173 185.169Z" fill="#11F8A5"/>
<path d="M3.63786 184.909V304.504C3.63786 305.493 2.83637 306.284 1.85796 306.284C0.879549 306.284 0.078125 305.482 0.078125 304.504V184.909C0.078125 183.92 0.879549 183.129 1.85796 183.129C2.83637 183.129 3.63786 183.93 3.63786 184.909Z" fill="#11F8A5"/>
<path d="M49.7326 117.121C37.0341 117.121 24.3459 112.291 14.6763 102.622C-4.65252 83.2928 -4.65252 51.8483 14.6763 32.5195C24.0441 23.1517 36.4928 17.9994 49.7326 17.9994C62.9724 17.9994 75.4212 23.1517 84.7889 32.5195C104.118 51.8483 104.118 83.2928 84.7889 102.622C75.1297 112.281 62.4311 117.121 49.7326 117.121ZM17.2785 100.019C35.1709 117.912 64.2839 117.912 82.1763 100.019C100.069 82.127 100.069 53.0141 82.1763 35.1216C73.506 26.4512 61.9836 21.6841 49.7222 21.6841C37.4609 21.6841 25.9384 26.4616 17.2681 35.1216C-0.624391 53.0141 -0.624391 82.127 17.2681 100.019H17.2785Z" fill="#EBF29D"/>
<path d="M49.077 86.1135C49.2539 86.5402 49.6703 86.7899 50.1074 86.7899C50.2532 86.7899 50.3989 86.7588 50.5446 86.7067C54.0419 85.2391 57.2269 82.97 59.7458 80.1388C60.1518 79.6808 60.1101 78.9732 59.6521 78.5672C59.1942 78.1613 58.4864 78.2029 58.0804 78.6609C55.7801 81.2526 52.8761 83.3239 49.6806 84.6562C49.1186 84.8956 48.8479 85.5514 49.0873 86.1135H49.077Z" fill="#EBF29D"/>
<path d="M68.6226 50.4327L50.1369 43.0425C49.8663 42.9385 49.5748 42.9385 49.3042 43.0425L30.8185 50.4327C30.3917 50.5993 30.1211 51.0052 30.1211 51.4632V64.7029C30.1419 76.9227 37.8651 87.9662 49.3355 92.1713C49.4604 92.213 49.5853 92.2338 49.7206 92.2338C49.8559 92.2338 49.9808 92.213 50.1057 92.1713C61.576 87.9558 69.2992 76.9227 69.32 64.7029V51.4632C69.32 51.0052 69.0494 50.5993 68.6226 50.4327ZM67.0926 64.7029C67.0718 75.8193 60.0979 85.9469 49.7309 89.9334C39.3639 85.9469 32.3797 75.8193 32.3589 64.7029V52.223L49.7309 45.2804L67.0926 52.223V64.7029Z" fill="#EBF29D"/>
<path d="M42.0084 52.1708C41.7378 52.0563 41.4359 52.0563 41.1549 52.1708L36.752 53.93C36.3253 54.0965 36.0547 54.5024 36.0547 54.9604V59.6547C36.0547 60.2688 36.5543 60.7684 37.1684 60.7684C37.7825 60.7684 38.2821 60.2688 38.2821 59.6547V55.7202L41.9772 54.2423C42.2582 54.1278 42.4664 53.9195 42.5913 53.6385C42.7058 53.3679 42.7058 53.0661 42.5913 52.785C42.4768 52.504 42.2686 52.2957 41.998 52.1708H42.0084Z" fill="#EBF29D"/>
<path d="M77.8877 39.4204C70.3727 31.8949 60.3699 27.7627 49.7323 27.7627C39.0947 27.7627 29.1024 31.9053 21.577 39.4204C6.05768 54.9397 6.05768 80.2014 21.577 95.7311C29.3418 103.496 39.5318 107.368 49.7323 107.368C59.9328 107.368 70.1229 103.486 77.8877 95.7311C93.407 80.2119 93.407 54.9501 77.8877 39.4204ZM72.3815 64.7029C72.4127 78.8274 63.3884 91.1825 49.9301 95.4605C49.8052 95.5021 49.6698 95.5021 49.5345 95.4605C36.0762 91.1825 27.0519 78.8274 27.0832 64.7029V49.0796C27.0832 48.8193 27.2392 48.58 27.4891 48.4759L49.4929 39.6806C49.5658 39.6494 49.649 39.639 49.7323 39.639C49.8156 39.639 49.8989 39.6494 49.9717 39.6806L71.9756 48.4863C72.2254 48.58 72.3815 48.8194 72.3815 49.09V64.7134V64.7029Z" fill="#EBF29D"/>
</g>
</svg>
